<svg id="Layer_1" data-name="Layer 1" xmlns="http://www.w3.org/2000/svg" viewBox="0 0 500 500"><defs><style>.cls-1,.cls-7{fill:#ababab;}.cls-2,.cls-8{fill:#f2f2f3;}.cls-3,.cls-6{fill:#c0c3c4;}.cls-4{fill:#a3a3a3;}.cls-5,.cls-9{fill:#d6d6d6;}.cls-5,.cls-6,.cls-7,.cls-8{opacity:0.37;}</style></defs><rect class="cls-1" x="367.65" y="235.29" width="9.8" height="9.8"/><rect class="cls-1" x="367.65" y="225.49" width="9.8" height="9.8"/><rect class="cls-1" x="367.65" y="215.68" width="9.8" height="9.81"/><rect class="cls-1" x="367.65" y="205.88" width="9.8" height="9.8"/><rect class="cls-1" x="357.85" y="245.09" width="9.8" height="9.81"/><rect class="cls-2" x="357.85" y="235.29" width="9.8" height="9.8"/><rect class="cls-2" x="357.85" y="225.49" width="9.8" height="9.8"/><rect class="cls-2" x="357.85" y="215.68" width="9.8" height="9.81"/><rect class="cls-3" x="357.85" y="205.88" width="9.8" height="9.8"/><rect class="cls-1" x="357.85" y="196.07" width="9.8" height="9.81"/><rect class="cls-3" x="348.04" y="264.7" width="9.81" height="9.81"/><rect class="cls-3" x="348.04" y="254.9" width="9.81" height="9.8"/><rect class="cls-2" x="348.04" y="245.09" width="9.81" height="9.81"/><rect class="cls-2" x="348.04" y="235.29" width="9.81" height="9.8"/><rect class="cls-2" x="348.04" y="225.49" width="9.81" height="9.8"/><rect class="cls-2" x="348.04" y="215.68" width="9.81" height="9.81"/><rect class="cls-4" x="348.04" y="205.88" width="9.81" height="9.8"/><rect class="cls-4" x="348.04" y="196.07" width="9.81" height="9.81"/><rect class="cls-1" x="348.04" y="186.27" width="9.81" height="9.8"/><rect class="cls-3" x="338.24" y="274.51" width="9.8" height="9.8"/><rect class="cls-2" x="338.24" y="264.7" width="9.8" height="9.81"/><rect class="cls-2" x="338.24" y="254.9" width="9.8" height="9.8"/><rect class="cls-2" x="338.24" y="245.09" width="9.8" height="9.81"/><rect class="cls-2" x="338.24" y="235.29" width="9.8" height="9.8"/><rect class="cls-2" x="338.24" y="225.49" width="9.8" height="9.8"/><rect class="cls-1" x="338.24" y="215.68" width="9.8" height="9.81"/><rect class="cls-4" x="338.24" y="205.88" width="9.8" height="9.8"/><rect class="cls-3" x="338.24" y="196.07" width="9.8" height="9.81"/><rect class="cls-1" x="338.24" y="186.27" width="9.8" height="9.8"/><rect class="cls-3" x="328.43" y="284.31" width="9.81" height="9.8"/><rect class="cls-2" x="328.43" y="274.51" width="9.81" height="9.8"/><rect class="cls-2" x="328.43" y="264.7" width="9.81" height="9.81"/><rect class="cls-2" x="328.43" y="254.9" width="9.81" height="9.8"/><rect class="cls-2" x="328.43" y="245.09" width="9.81" height="9.81"/><rect class="cls-2" x="328.43" y="235.29" width="9.81" height="9.8"/><rect class="cls-2" x="328.43" y="225.49" width="9.81" height="9.8"/><rect class="cls-4" x="328.43" y="215.68" width="9.81" height="9.81"/><rect class="cls-5" x="328.43" y="205.88" width="9.81" height="9.8"/><rect class="cls-6" x="328.43" y="196.07" width="9.81" height="9.81"/><rect class="cls-7" x="328.43" y="186.27" width="9.81" height="9.8"/><rect class="cls-3" x="318.63" y="294.11" width="9.8" height="9.81"/><rect class="cls-2" x="318.63" y="284.31" width="9.8" height="9.8"/><rect class="cls-2" x="318.63" y="274.51" width="9.8" height="9.8"/><rect class="cls-2" x="318.63" y="264.7" width="9.8" height="9.81"/><rect class="cls-2" x="318.63" y="254.9" width="9.8" height="9.8"/><rect class="cls-2" x="318.63" y="245.09" width="9.8" height="9.81"/><rect class="cls-2" x="318.63" y="235.29" width="9.8" height="9.8"/><rect class="cls-2" x="318.63" y="225.49" width="9.8" height="9.8"/><rect class="cls-4" x="318.63" y="215.68" width="9.8" height="9.81"/><rect class="cls-5" x="318.63" y="205.88" width="9.8" height="9.8"/><rect class="cls-5" x="318.63" y="196.07" width="9.8" height="9.81"/><rect class="cls-7" x="318.63" y="186.27" width="9.8" height="9.8"/><rect class="cls-3" x="308.83" y="303.92" width="9.8" height="9.8"/><rect class="cls-2" x="308.83" y="294.11" width="9.8" height="9.81"/><rect class="cls-2" x="308.83" y="284.31" width="9.8" height="9.8"/><rect class="cls-2" x="308.83" y="274.51" width="9.8" height="9.8"/><rect class="cls-2" x="308.83" y="264.7" width="9.8" height="9.81"/><rect class="cls-2" x="308.83" y="254.9" width="9.8" height="9.8"/><rect class="cls-2" x="308.83" y="245.09" width="9.8" height="9.81"/><rect class="cls-2" x="308.83" y="235.29" width="9.8" height="9.8"/><rect class="cls-2" x="308.83" y="225.49" width="9.8" height="9.8"/><rect class="cls-4" x="308.83" y="215.68" width="9.8" height="9.81"/><rect class="cls-5" x="308.83" y="205.88" width="9.8" height="9.8"/><rect class="cls-5" x="308.83" y="196.07" width="9.8" height="9.81"/><rect class="cls-8" x="308.83" y="186.27" width="9.8" height="9.8"/><rect class="cls-7" x="308.83" y="176.47" width="9.8" height="9.8"/><rect class="cls-2" x="299.02" y="303.92" width="9.81" height="9.8"/><rect class="cls-2" x="299.02" y="294.11" width="9.81" height="9.81"/><rect class="cls-2" x="299.02" y="284.31" width="9.81" height="9.8"/><rect class="cls-2" x="299.02" y="274.51" width="9.81" height="9.8"/><rect class="cls-2" x="299.02" y="264.7" width="9.81" height="9.81"/><rect class="cls-2" x="299.02" y="254.9" width="9.81" height="9.8"/><rect class="cls-2" x="299.02" y="245.09" width="9.81" height="9.81"/><rect class="cls-2" x="299.02" y="235.29" width="9.81" height="9.8"/><rect class="cls-2" x="299.02" y="225.49" width="9.81" height="9.8"/><rect class="cls-4" x="299.02" y="215.68" width="9.81" height="9.81"/><rect class="cls-5" x="299.02" y="205.88" width="9.81" height="9.8"/><rect class="cls-8" x="299.02" y="196.07" width="9.81" height="9.81"/><rect class="cls-8" x="299.02" y="186.27" width="9.81" height="9.8"/><rect class="cls-7" x="299.02" y="176.47" width="9.81" height="9.8"/><rect class="cls-3" x="289.22" y="313.72" width="9.8" height="9.81"/><rect class="cls-2" x="289.22" y="303.92" width="9.8" height="9.8"/><rect class="cls-2" x="289.22" y="294.11" width="9.8" height="9.81"/><rect class="cls-2" x="289.22" y="284.31" width="9.8" height="9.8"/><rect class="cls-2" x="289.22" y="274.51" width="9.8" height="9.8"/><rect class="cls-2" x="289.22" y="264.7" width="9.8" height="9.81"/><rect class="cls-2" x="289.22" y="254.9" width="9.8" height="9.8"/><rect class="cls-2" x="289.22" y="245.09" width="9.8" height="9.81"/><rect class="cls-2" x="289.22" y="235.29" width="9.8" height="9.8"/><rect class="cls-2" x="289.22" y="225.49" width="9.8" height="9.8"/><rect class="cls-4" x="289.22" y="215.68" width="9.8" height="9.81"/><rect class="cls-5" x="289.22" y="205.88" width="9.8" height="9.8"/><rect class="cls-8" x="289.22" y="196.07" width="9.8" height="9.81"/><rect class="cls-8" x="289.22" y="186.27" width="9.8" height="9.8"/><rect class="cls-7" x="289.22" y="176.47" width="9.8" height="9.8"/><rect class="cls-1" x="279.41" y="313.72" width="9.81" height="9.81"/><rect class="cls-2" x="279.41" y="303.92" width="9.81" height="9.8"/><rect class="cls-2" x="279.41" y="294.11" width="9.81" height="9.81"/><rect class="cls-2" x="279.41" y="284.31" width="9.81" height="9.8"/><rect class="cls-2" x="279.41" y="274.51" width="9.81" height="9.8"/><rect class="cls-2" x="279.41" y="264.7" width="9.81" height="9.81"/><rect class="cls-2" x="279.41" y="254.9" width="9.81" height="9.8"/><rect class="cls-2" x="279.41" y="245.09" width="9.81" height="9.81"/><rect class="cls-2" x="279.41" y="235.29" width="9.81" height="9.8"/><rect class="cls-2" x="279.41" y="225.49" width="9.81" height="9.8"/><rect class="cls-4" x="279.41" y="215.68" width="9.81" height="9.81"/><rect class="cls-5" x="279.41" y="205.88" width="9.81" height="9.8"/><rect class="cls-8" x="279.41" y="196.07" width="9.81" height="9.81"/><rect class="cls-8" x="279.41" y="186.27" width="9.81" height="9.8"/><rect class="cls-7" x="279.41" y="176.47" width="9.81" height="9.8"/><rect class="cls-1" x="269.61" y="313.72" width="9.8" height="9.81"/><rect class="cls-2" x="269.61" y="303.92" width="9.8" height="9.8"/><rect class="cls-2" x="269.61" y="294.11" width="9.8" height="9.81"/><rect class="cls-2" x="269.61" y="284.31" width="9.8" height="9.8"/><rect class="cls-2" x="269.61" y="274.51" width="9.8" height="9.8"/><rect class="cls-2" x="269.61" y="264.7" width="9.8" height="9.81"/><rect class="cls-2" x="269.61" y="254.9" width="9.8" height="9.8"/><rect class="cls-2" x="269.61" y="245.09" width="9.8" height="9.81"/><rect class="cls-2" x="269.61" y="235.29" width="9.8" height="9.8"/><rect class="cls-2" x="269.61" y="225.49" width="9.8" height="9.8"/><rect class="cls-4" x="269.61" y="215.68" width="9.8" height="9.81"/><rect class="cls-5" x="269.61" y="205.88" width="9.8" height="9.8"/><rect class="cls-8" x="269.61" y="196.07" width="9.8" height="9.81"/><rect class="cls-8" x="269.61" y="186.27" width="9.8" height="9.8"/><rect class="cls-7" x="269.61" y="176.47" width="9.8" height="9.8"/><rect class="cls-1" x="259.81" y="313.72" width="9.8" height="9.81"/><rect class="cls-2" x="259.81" y="303.92" width="9.8" height="9.8"/><rect class="cls-2" x="259.81" y="294.11" width="9.8" height="9.81"/><rect class="cls-2" x="259.81" y="284.31" width="9.8" height="9.8"/><rect class="cls-2" x="259.81" y="274.51" width="9.8" height="9.8"/><rect class="cls-2" x="259.81" y="264.7" width="9.8" height="9.81"/><rect class="cls-2" x="259.81" y="254.9" width="9.8" height="9.8"/><rect class="cls-2" x="259.81" y="245.09" width="9.8" height="9.81"/><rect class="cls-2" x="259.81" y="235.29" width="9.8" height="9.8"/><rect class="cls-2" x="259.81" y="225.49" width="9.8" height="9.8"/><rect class="cls-4" x="259.81" y="215.68" width="9.8" height="9.81"/><rect class="cls-5" x="259.81" y="205.88" width="9.8" height="9.8"/><rect class="cls-8" x="259.81" y="196.07" width="9.8" height="9.81"/><rect class="cls-8" x="259.81" y="186.27" width="9.8" height="9.8"/><rect class="cls-7" x="259.81" y="176.47" width="9.8" height="9.8"/><rect class="cls-1" x="250" y="313.72" width="9.81" height="9.81"/><rect class="cls-2" x="250" y="303.92" width="9.81" height="9.8"/><rect class="cls-2" x="250" y="294.11" width="9.81" height="9.81"/><rect class="cls-2" x="250" y="284.31" width="9.81" height="9.8"/><rect class="cls-2" x="250" y="274.51" width="9.81" height="9.8"/><rect class="cls-2" x="250" y="264.7" width="9.81" height="9.81"/><rect class="cls-2" x="250" y="254.9" width="9.81" height="9.8"/><rect class="cls-2" x="250" y="245.09" width="9.81" height="9.81"/><rect class="cls-2" x="250" y="235.29" width="9.81" height="9.8"/><rect class="cls-2" x="250" y="225.49" width="9.81" height="9.8"/><rect class="cls-4" x="250" y="215.68" width="9.81" height="9.81"/><rect class="cls-8" x="250" y="205.88" width="9.81" height="9.8"/><rect class="cls-8" x="250" y="196.07" width="9.81" height="9.81"/><rect class="cls-8" x="250" y="186.27" width="9.81" height="9.8"/><rect class="cls-7" x="250" y="176.47" width="9.81" height="9.8"/><rect class="cls-1" x="240.2" y="313.72" width="9.8" height="9.81"/><rect class="cls-2" x="240.2" y="303.92" width="9.8" height="9.8"/><rect class="cls-2" x="240.2" y="294.11" width="9.8" height="9.81"/><rect class="cls-2" x="240.2" y="284.31" width="9.8" height="9.8"/><rect class="cls-2" x="240.2" y="274.51" width="9.8" height="9.8"/><rect class="cls-2" x="240.2" y="264.7" width="9.8" height="9.81"/><rect class="cls-2" x="240.2" y="254.9" width="9.8" height="9.8"/><rect class="cls-2" x="240.2" y="245.09" width="9.8" height="9.81"/><rect class="cls-2" x="240.2" y="235.29" width="9.8" height="9.8"/><rect class="cls-2" x="240.2" y="225.49" width="9.8" height="9.8"/><rect class="cls-4" x="240.2" y="215.68" width="9.8" height="9.81"/><rect class="cls-8" x="240.2" y="205.88" width="9.8" height="9.8"/><rect class="cls-8" x="240.2" y="196.07" width="9.8" height="9.81"/><rect class="cls-8" x="240.2" y="186.27" width="9.8" height="9.8"/><rect class="cls-7" x="240.2" y="176.47" width="9.8" height="9.8"/><rect class="cls-1" x="230.39" y="313.72" width="9.81" height="9.81"/><rect class="cls-2" x="230.39" y="303.92" width="9.81" height="9.8"/><rect class="cls-2" x="230.39" y="294.11" width="9.81" height="9.81"/><rect class="cls-2" x="230.39" y="284.31" width="9.81" height="9.8"/><rect class="cls-2" x="230.39" y="274.51" width="9.81" height="9.8"/><rect class="cls-2" x="230.39" y="264.7" width="9.81" height="9.81"/><rect class="cls-2" x="230.39" y="254.9" width="9.81" height="9.8"/><rect class="cls-2" x="230.39" y="245.09" width="9.81" height="9.81"/><rect class="cls-2" x="230.39" y="235.29" width="9.81" height="9.8"/><rect class="cls-2" x="230.39" y="225.49" width="9.81" height="9.8"/><rect class="cls-4" x="230.39" y="215.68" width="9.81" height="9.81"/><rect class="cls-8" x="230.39" y="205.88" width="9.81" height="9.8"/><rect class="cls-8" x="230.39" y="196.07" width="9.81" height="9.81"/><rect class="cls-8" x="230.39" y="186.27" width="9.81" height="9.8"/><rect class="cls-7" x="230.39" y="176.47" width="9.81" height="9.8"/><rect class="cls-1" x="220.59" y="313.72" width="9.8" height="9.81"/><rect class="cls-2" x="220.59" y="303.92" width="9.8" height="9.8"/><rect class="cls-2" x="220.59" y="294.11" width="9.8" height="9.81"/><rect class="cls-2" x="220.59" y="284.31" width="9.8" height="9.8"/><rect class="cls-2" x="220.59" y="274.51" width="9.8" height="9.8"/><rect class="cls-2" x="220.59" y="264.7" width="9.8" height="9.81"/><rect class="cls-2" x="220.59" y="254.9" width="9.8" height="9.8"/><rect class="cls-2" x="220.59" y="245.09" width="9.8" height="9.81"/><rect class="cls-2" x="220.59" y="235.29" width="9.8" height="9.8"/><rect class="cls-2" x="220.59" y="225.49" width="9.8" height="9.8"/><rect class="cls-4" x="220.59" y="215.68" width="9.8" height="9.81"/><rect class="cls-8" x="220.59" y="205.88" width="9.8" height="9.8"/><rect class="cls-8" x="220.59" y="196.07" width="9.8" height="9.81"/><rect class="cls-8" x="220.59" y="186.27" width="9.8" height="9.8"/><rect class="cls-7" x="220.59" y="176.47" width="9.8" height="9.8"/><rect class="cls-9" x="210.79" y="313.72" width="9.8" height="9.81"/><rect class="cls-2" x="210.79" y="303.92" width="9.8" height="9.8"/><rect class="cls-2" x="210.79" y="294.11" width="9.8" height="9.81"/><rect class="cls-2" x="210.79" y="284.31" width="9.8" height="9.8"/><rect class="cls-2" x="210.79" y="274.51" width="9.8" height="9.8"/><rect class="cls-2" x="210.79" y="264.7" width="9.8" height="9.81"/><rect class="cls-2" x="210.79" y="254.9" width="9.8" height="9.8"/><rect class="cls-2" x="210.79" y="245.09" width="9.8" height="9.81"/><rect class="cls-2" x="210.79" y="235.29" width="9.8" height="9.8"/><rect class="cls-2" x="210.79" y="225.49" width="9.8" height="9.8"/><rect class="cls-4" x="210.79" y="215.68" width="9.8" height="9.81"/><rect class="cls-8" x="210.79" y="205.88" width="9.8" height="9.8"/><rect class="cls-8" x="210.79" y="196.07" width="9.8" height="9.81"/><rect class="cls-8" x="210.79" y="186.27" width="9.8" height="9.8"/><rect class="cls-7" x="210.79" y="176.47" width="9.8" height="9.8"/><rect class="cls-9" x="200.98" y="303.92" width="9.81" height="9.8"/><rect class="cls-2" x="200.98" y="294.11" width="9.81" height="9.81"/><rect class="cls-2" x="200.98" y="284.31" width="9.81" height="9.8"/><rect class="cls-2" x="200.98" y="274.51" width="9.81" height="9.8"/><rect class="cls-2" x="200.98" y="264.7" width="9.81" height="9.81"/><rect class="cls-2" x="200.98" y="254.9" width="9.81" height="9.8"/><rect class="cls-2" x="200.98" y="245.09" width="9.81" height="9.81"/><rect class="cls-2" x="200.98" y="235.29" width="9.81" height="9.8"/><rect class="cls-2" x="200.98" y="225.49" width="9.81" height="9.8"/><rect class="cls-4" x="200.98" y="215.68" width="9.81" height="9.81"/><rect class="cls-8" x="200.98" y="205.88" width="9.81" height="9.8"/><rect class="cls-8" x="200.98" y="196.07" width="9.81" height="9.81"/><rect class="cls-8" x="200.98" y="186.27" width="9.81" height="9.8"/><rect class="cls-7" x="200.98" y="176.47" width="9.81" height="9.8"/><rect class="cls-9" x="191.18" y="303.92" width="9.8" height="9.8"/><rect class="cls-9" x="191.18" y="294.11" width="9.8" height="9.81"/><rect class="cls-2" x="191.18" y="284.31" width="9.8" height="9.8"/><rect class="cls-2" x="191.18" y="274.51" width="9.8" height="9.8"/><rect class="cls-2" x="191.18" y="264.7" width="9.8" height="9.81"/><rect class="cls-2" x="191.18" y="254.9" width="9.8" height="9.8"/><rect class="cls-2" x="191.18" y="245.09" width="9.8" height="9.81"/><rect class="cls-2" x="191.18" y="235.29" width="9.8" height="9.8"/><rect class="cls-2" x="191.18" y="225.49" width="9.8" height="9.8"/><rect class="cls-4" x="191.18" y="215.68" width="9.8" height="9.81"/><rect class="cls-8" x="191.18" y="205.88" width="9.8" height="9.8"/><rect class="cls-8" x="191.18" y="196.07" width="9.8" height="9.81"/><rect class="cls-8" x="191.18" y="186.27" width="9.8" height="9.8"/><rect class="cls-7" x="191.18" y="176.47" width="9.8" height="9.8"/><rect class="cls-9" x="181.37" y="294.11" width="9.81" height="9.81"/><rect class="cls-9" x="181.37" y="284.31" width="9.81" height="9.8"/><rect class="cls-2" x="181.37" y="274.51" width="9.81" height="9.8"/><rect class="cls-2" x="181.37" y="264.7" width="9.81" height="9.81"/><rect class="cls-2" x="181.37" y="254.9" width="9.81" height="9.8"/><rect class="cls-2" x="181.37" y="245.09" width="9.81" height="9.81"/><rect class="cls-2" x="181.37" y="235.29" width="9.81" height="9.8"/><rect class="cls-2" x="181.37" y="225.49" width="9.81" height="9.8"/><rect class="cls-4" x="181.37" y="215.68" width="9.81" height="9.81"/><rect class="cls-8" x="181.37" y="205.88" width="9.81" height="9.8"/><rect class="cls-8" x="181.37" y="196.07" width="9.81" height="9.81"/><rect class="cls-8" x="181.37" y="186.27" width="9.81" height="9.8"/><rect class="cls-7" x="181.37" y="176.47" width="9.81" height="9.8"/><rect class="cls-9" x="171.57" y="294.11" width="9.8" height="9.81"/><rect class="cls-9" x="171.57" y="284.31" width="9.8" height="9.8"/><rect class="cls-2" x="171.57" y="274.51" width="9.8" height="9.8"/><rect class="cls-2" x="171.57" y="264.7" width="9.8" height="9.81"/><rect class="cls-2" x="171.57" y="254.9" width="9.8" height="9.8"/><rect class="cls-2" x="171.57" y="245.09" width="9.8" height="9.81"/><rect class="cls-2" x="171.57" y="235.29" width="9.8" height="9.8"/><rect class="cls-2" x="171.57" y="225.49" width="9.8" height="9.8"/><rect class="cls-4" x="171.57" y="215.68" width="9.8" height="9.81"/><rect class="cls-8" x="171.57" y="205.88" width="9.8" height="9.8"/><rect class="cls-8" x="171.57" y="196.07" width="9.8" height="9.81"/><rect class="cls-7" x="171.57" y="186.27" width="9.8" height="9.8"/><rect class="cls-9" x="161.77" y="284.31" width="9.8" height="9.8"/><rect class="cls-9" x="161.77" y="274.51" width="9.8" height="9.8"/><rect class="cls-2" x="161.77" y="264.7" width="9.8" height="9.81"/><rect class="cls-2" x="161.77" y="254.9" width="9.8" height="9.8"/><rect class="cls-2" x="161.77" y="245.09" width="9.8" height="9.81"/><rect class="cls-2" x="161.77" y="235.29" width="9.8" height="9.8"/><rect class="cls-2" x="161.77" y="225.49" width="9.8" height="9.8"/><rect class="cls-4" x="161.77" y="215.68" width="9.8" height="9.81"/><rect class="cls-8" x="161.77" y="205.88" width="9.8" height="9.8"/><rect class="cls-8" x="161.77" y="196.07" width="9.8" height="9.81"/><rect class="cls-7" x="161.77" y="186.27" width="9.8" height="9.8"/><rect class="cls-9" x="151.96" y="274.51" width="9.81" height="9.8"/><rect class="cls-9" x="151.96" y="264.7" width="9.81" height="9.81"/><rect class="cls-2" x="151.96" y="254.9" width="9.81" height="9.8"/><rect class="cls-2" x="151.96" y="245.09" width="9.81" height="9.81"/><rect class="cls-2" x="151.96" y="235.29" width="9.81" height="9.8"/><rect class="cls-2" x="151.96" y="225.49" width="9.81" height="9.8"/><rect class="cls-2" x="151.96" y="215.68" width="9.81" height="9.81"/><rect class="cls-4" x="151.96" y="205.88" width="9.81" height="9.8"/><rect class="cls-2" x="151.96" y="196.07" width="9.81" height="9.81"/><rect class="cls-1" x="151.96" y="186.27" width="9.81" height="9.8"/><rect class="cls-9" x="142.16" y="264.7" width="9.8" height="9.81"/><rect class="cls-9" x="142.16" y="254.9" width="9.8" height="9.8"/><rect class="cls-2" x="142.16" y="245.09" width="9.8" height="9.81"/><rect class="cls-2" x="142.16" y="235.29" width="9.8" height="9.8"/><rect class="cls-2" x="142.16" y="225.49" width="9.8" height="9.8"/><rect class="cls-2" x="142.16" y="215.68" width="9.8" height="9.81"/><rect class="cls-4" x="142.16" y="205.88" width="9.8" height="9.8"/><rect class="cls-4" x="142.16" y="196.07" width="9.8" height="9.81"/><rect class="cls-1" x="142.16" y="186.27" width="9.8" height="9.8"/><rect class="cls-9" x="132.35" y="254.9" width="9.81" height="9.8"/><rect class="cls-9" x="132.35" y="245.09" width="9.81" height="9.81"/><rect class="cls-9" x="132.35" y="235.29" width="9.81" height="9.8"/><rect class="cls-2" x="132.35" y="225.49" width="9.81" height="9.8"/><rect class="cls-2" x="132.35" y="215.68" width="9.81" height="9.81"/><rect class="cls-2" x="132.35" y="205.88" width="9.81" height="9.8"/><rect class="cls-1" x="132.35" y="196.07" width="9.81" height="9.81"/><rect class="cls-3" x="122.55" y="245.09" width="9.8" height="9.81"/><rect class="cls-9" x="122.55" y="235.29" width="9.8" height="9.8"/><rect class="cls-3" x="122.55" y="225.49" width="9.8" height="9.8"/><rect class="cls-3" x="122.55" y="215.68" width="9.8" height="9.81"/><rect class="cls-3" x="122.55" y="205.88" width="9.8" height="9.8"/></svg>