<svg id="Layer_1" data-name="Layer 1" xmlns="http://www.w3.org/2000/svg" viewBox="0 0 500 500"><defs><style>.cls-1{fill:#87cfe7;}.cls-2{fill:#cfecf2;}</style></defs><rect class="cls-1" x="431.37" y="205.88" width="9.81" height="9.8"/><rect class="cls-1" x="421.56" y="205.88" width="9.8" height="9.8"/><rect class="cls-2" x="441.18" y="176.47" width="9.8" height="9.8"/><rect class="cls-2" x="450.98" y="196.08" width="9.81" height="9.8"/><rect class="cls-1" x="411.76" y="186.27" width="9.8" height="9.81"/><rect class="cls-2" x="411.76" y="176.47" width="9.8" height="9.8"/><rect class="cls-1" x="401.95" y="186.27" width="9.81" height="9.81"/><rect class="cls-1" x="401.95" y="196.08" width="9.81" height="9.8"/><rect class="cls-1" x="411.76" y="196.08" width="9.8" height="9.8"/><rect class="cls-2" x="392.15" y="196.08" width="9.8" height="9.8"/><rect class="cls-1" x="431.37" y="186.27" width="9.81" height="9.81"/><rect class="cls-2" x="431.37" y="176.47" width="9.81" height="9.8"/><rect class="cls-1" x="421.56" y="186.27" width="9.8" height="9.81"/><rect class="cls-1" x="431.37" y="196.08" width="9.81" height="9.8"/><rect class="cls-2" x="441.18" y="186.27" width="9.8" height="9.81"/><rect class="cls-1" x="441.18" y="205.88" width="9.8" height="9.8"/><rect class="cls-1" x="441.18" y="196.08" width="9.8" height="9.8"/><rect class="cls-2" x="421.56" y="176.47" width="9.8" height="9.8"/><rect class="cls-1" x="421.56" y="196.08" width="9.8" height="9.8"/><rect class="cls-2" x="284.31" y="284.31" width="9.8" height="9.81"/><rect class="cls-2" x="294.12" y="284.31" width="9.8" height="9.81"/><rect class="cls-2" x="303.92" y="294.12" width="9.81" height="9.8"/><rect class="cls-1" x="284.31" y="294.12" width="9.8" height="9.8"/><rect class="cls-1" x="284.31" y="303.92" width="9.8" height="9.8"/><rect class="cls-2" x="294.12" y="294.12" width="9.8" height="9.8"/><rect class="cls-1" x="303.92" y="303.92" width="9.81" height="9.8"/><rect class="cls-1" x="294.12" y="303.92" width="9.8" height="9.8"/><rect class="cls-1" x="303.92" y="313.72" width="9.81" height="9.81"/><rect class="cls-1" x="274.5" y="303.92" width="9.81" height="9.8"/><rect class="cls-1" x="274.5" y="313.72" width="9.81" height="9.81"/><rect class="cls-1" x="254.89" y="294.12" width="9.81" height="9.8"/><rect class="cls-1" x="254.89" y="303.92" width="9.81" height="9.8"/><rect class="cls-1" x="245.1" y="303.92" width="9.8" height="9.8"/><rect class="cls-1" x="245.1" y="294.12" width="9.8" height="9.8"/><rect class="cls-1" x="264.7" y="313.72" width="9.8" height="9.81"/><rect class="cls-1" x="264.7" y="303.92" width="9.8" height="9.8"/><rect class="cls-2" x="274.5" y="284.31" width="9.81" height="9.81"/><rect class="cls-2" x="274.5" y="294.12" width="9.81" height="9.8"/><rect class="cls-2" x="254.89" y="284.31" width="9.81" height="9.81"/><rect class="cls-2" x="264.7" y="294.12" width="9.8" height="9.8"/><rect class="cls-2" x="264.7" y="284.31" width="9.8" height="9.81"/><rect class="cls-2" x="147.05" y="205.88" width="9.8" height="9.8"/><rect class="cls-1" x="137.25" y="215.68" width="9.8" height="9.81"/><rect class="cls-1" x="137.25" y="205.88" width="9.8" height="9.8"/><rect class="cls-2" x="137.25" y="196.08" width="9.8" height="9.8"/><rect class="cls-1" x="127.44" y="215.68" width="9.81" height="9.81"/><rect class="cls-1" x="127.44" y="205.88" width="9.81" height="9.8"/><rect class="cls-2" x="127.44" y="196.08" width="9.81" height="9.8"/><rect class="cls-2" x="127.44" y="186.27" width="9.81" height="9.81"/><rect class="cls-1" x="117.64" y="225.49" width="9.8" height="9.8"/><rect class="cls-1" x="117.64" y="215.68" width="9.8" height="9.81"/><rect class="cls-1" x="117.64" y="205.88" width="9.8" height="9.8"/><rect class="cls-1" x="117.64" y="196.08" width="9.8" height="9.8"/><rect class="cls-2" x="117.64" y="186.27" width="9.8" height="9.81"/><rect class="cls-1" x="107.83" y="225.49" width="9.81" height="9.8"/><rect class="cls-1" x="107.83" y="215.68" width="9.81" height="9.81"/><rect class="cls-1" x="107.83" y="205.88" width="9.81" height="9.8"/><rect class="cls-1" x="107.83" y="196.08" width="9.81" height="9.8"/><rect class="cls-1" x="98.04" y="225.49" width="9.8" height="9.8"/><rect class="cls-1" x="98.04" y="215.68" width="9.8" height="9.81"/><rect class="cls-1" x="98.04" y="205.88" width="9.8" height="9.8"/><rect class="cls-1" x="98.04" y="196.08" width="9.8" height="9.8"/><rect class="cls-1" x="88.24" y="215.68" width="9.8" height="9.81"/><rect class="cls-1" x="88.24" y="205.88" width="9.8" height="9.8"/><rect class="cls-1" x="88.24" y="196.08" width="9.8" height="9.8"/><rect class="cls-1" x="88.24" y="186.27" width="9.8" height="9.81"/><rect class="cls-1" x="78.43" y="225.49" width="9.81" height="9.8"/><rect class="cls-1" x="78.43" y="215.68" width="9.81" height="9.81"/><rect class="cls-1" x="78.43" y="205.88" width="9.81" height="9.8"/><rect class="cls-1" x="78.43" y="196.08" width="9.81" height="9.8"/><rect class="cls-1" x="78.43" y="186.27" width="9.81" height="9.81"/><rect class="cls-1" x="68.62" y="225.49" width="9.8" height="9.8"/><rect class="cls-1" x="68.62" y="215.68" width="9.8" height="9.81"/><rect class="cls-1" x="68.62" y="205.88" width="9.8" height="9.8"/><rect class="cls-1" x="68.62" y="196.08" width="9.8" height="9.8"/><rect class="cls-1" x="68.62" y="186.27" width="9.8" height="9.81"/><rect class="cls-1" x="58.82" y="215.68" width="9.8" height="9.81"/><rect class="cls-1" x="58.82" y="205.88" width="9.8" height="9.8"/><rect class="cls-1" x="58.82" y="196.08" width="9.8" height="9.8"/><rect class="cls-1" x="58.82" y="186.27" width="9.8" height="9.81"/><rect class="cls-1" x="49.01" y="215.68" width="9.81" height="9.81"/><rect class="cls-1" x="49.01" y="205.88" width="9.81" height="9.8"/><rect class="cls-1" x="49.01" y="196.08" width="9.81" height="9.8"/><rect class="cls-1" x="39.21" y="205.88" width="9.8" height="9.8"/></svg>