<svg id="Layer_1" data-name="Layer 1" xmlns="http://www.w3.org/2000/svg" viewBox="0 0 500 500"><defs><style>.cls-1{fill:#cccccb;}.cls-2{fill:#f4f4f5;}.cls-3{fill:#d8d8d8;}.cls-4{fill:#e8e8e8;}.cls-5{fill:#dbdddd;}</style></defs><rect class="cls-1" x="323.53" y="313.73" width="9.8" height="9.8"/><rect class="cls-1" x="313.73" y="323.52" width="9.8" height="9.81"/><rect class="cls-1" x="166.67" y="313.73" width="9.8" height="9.8"/><rect class="cls-1" x="176.47" y="323.52" width="9.8" height="9.81"/><rect class="cls-1" x="186.27" y="333.33" width="9.81" height="9.8"/><rect class="cls-1" x="303.92" y="333.33" width="9.81" height="9.8"/><rect class="cls-2" x="343.14" y="274.5" width="9.8" height="9.81"/><rect class="cls-2" x="147.06" y="274.5" width="9.8" height="9.81"/><rect class="cls-1" x="147.06" y="294.11" width="9.8" height="9.81"/><rect class="cls-1" x="343.14" y="294.11" width="9.8" height="9.81"/><rect class="cls-1" x="352.94" y="274.5" width="9.81" height="9.81"/><rect class="cls-1" x="137.25" y="274.5" width="9.81" height="9.81"/><rect class="cls-1" x="362.75" y="264.7" width="9.8" height="9.8"/><rect class="cls-1" x="362.75" y="254.91" width="9.8" height="9.8"/><rect class="cls-1" x="362.75" y="245.09" width="9.8" height="9.81"/><rect class="cls-1" x="362.75" y="235.3" width="9.8" height="9.8"/><rect class="cls-1" x="362.75" y="225.49" width="9.8" height="9.81"/><rect class="cls-1" x="362.75" y="215.68" width="9.8" height="9.8"/><rect class="cls-1" x="362.75" y="205.89" width="9.8" height="9.8"/><rect class="cls-1" x="352.94" y="264.7" width="9.81" height="9.8"/><rect class="cls-2" x="352.94" y="254.91" width="9.81" height="9.8"/><rect class="cls-2" x="352.94" y="245.09" width="9.81" height="9.81"/><rect class="cls-2" x="352.94" y="235.3" width="9.81" height="9.8"/><rect class="cls-2" x="352.94" y="225.49" width="9.81" height="9.81"/><rect class="cls-2" x="352.94" y="215.68" width="9.81" height="9.8"/><rect class="cls-2" x="352.94" y="205.89" width="9.81" height="9.8"/><rect class="cls-1" x="352.94" y="196.08" width="9.81" height="9.81"/><rect class="cls-1" x="352.94" y="186.27" width="9.81" height="9.8"/><rect class="cls-1" x="343.14" y="284.32" width="9.8" height="9.8"/><rect class="cls-2" x="343.14" y="264.7" width="9.8" height="9.8"/><rect class="cls-2" x="343.14" y="254.91" width="9.8" height="9.8"/><rect class="cls-2" x="343.14" y="245.09" width="9.8" height="9.81"/><rect class="cls-2" x="343.14" y="235.3" width="9.8" height="9.8"/><rect class="cls-2" x="343.14" y="225.49" width="9.8" height="9.81"/><rect class="cls-2" x="343.14" y="215.68" width="9.8" height="9.8"/><rect class="cls-2" x="343.14" y="205.89" width="9.8" height="9.8"/><rect class="cls-2" x="343.14" y="196.08" width="9.8" height="9.81"/><rect class="cls-2" x="343.14" y="186.27" width="9.8" height="9.8"/><rect class="cls-1" x="343.14" y="176.47" width="9.8" height="9.81"/><rect class="cls-1" x="333.33" y="294.11" width="9.81" height="9.81"/><rect class="cls-2" x="333.33" y="284.32" width="9.81" height="9.8"/><rect class="cls-3" x="333.33" y="274.5" width="9.81" height="9.81"/><rect class="cls-3" x="333.33" y="264.7" width="9.81" height="9.8"/><rect class="cls-3" x="333.33" y="254.91" width="9.81" height="9.8"/><rect class="cls-3" x="333.33" y="245.09" width="9.81" height="9.81"/><rect class="cls-3" x="333.33" y="235.3" width="9.81" height="9.8"/><rect class="cls-3" x="333.33" y="225.49" width="9.81" height="9.81"/><rect class="cls-3" x="333.33" y="215.68" width="9.81" height="9.8"/><rect class="cls-3" x="333.33" y="205.89" width="9.81" height="9.8"/><rect class="cls-2" x="333.33" y="196.08" width="9.81" height="9.81"/><rect class="cls-2" x="333.33" y="186.27" width="9.81" height="9.8"/><rect class="cls-2" x="333.33" y="176.47" width="9.81" height="9.81"/><rect class="cls-1" x="333.33" y="166.67" width="9.81" height="9.8"/><rect class="cls-1" x="323.53" y="303.92" width="9.8" height="9.8"/><rect class="cls-2" x="323.53" y="294.11" width="9.8" height="9.81"/><rect class="cls-2" x="323.53" y="284.32" width="9.8" height="9.8"/><rect class="cls-4" x="323.53" y="274.5" width="9.8" height="9.81"/><rect class="cls-4" x="323.53" y="264.7" width="9.8" height="9.8"/><rect class="cls-4" x="323.53" y="254.91" width="9.8" height="9.8"/><rect class="cls-4" x="323.53" y="245.09" width="9.8" height="9.81"/><rect class="cls-4" x="323.53" y="235.3" width="9.8" height="9.8"/><rect class="cls-4" x="323.53" y="225.49" width="9.8" height="9.81"/><rect class="cls-4" x="323.53" y="215.68" width="9.8" height="9.8"/><rect class="cls-4" x="323.53" y="205.89" width="9.8" height="9.8"/><rect class="cls-3" x="323.53" y="196.08" width="9.8" height="9.81"/><rect class="cls-2" x="323.53" y="186.27" width="9.8" height="9.8"/><rect class="cls-2" x="323.53" y="176.47" width="9.8" height="9.81"/><rect class="cls-2" x="323.53" y="166.67" width="9.8" height="9.8"/><rect class="cls-1" x="323.53" y="156.86" width="9.8" height="9.8"/><rect class="cls-2" x="313.73" y="313.73" width="9.8" height="9.8"/><rect class="cls-2" x="313.73" y="303.92" width="9.8" height="9.8"/><rect class="cls-4" x="313.73" y="294.11" width="9.8" height="9.81"/><rect class="cls-4" x="313.73" y="284.32" width="9.8" height="9.8"/><rect class="cls-4" x="313.73" y="274.5" width="9.8" height="9.81"/><rect class="cls-3" x="313.73" y="264.7" width="9.8" height="9.8"/><rect class="cls-3" x="313.73" y="254.91" width="9.8" height="9.8"/><rect class="cls-3" x="313.73" y="245.09" width="9.8" height="9.81"/><rect class="cls-4" x="313.73" y="235.3" width="9.8" height="9.8"/><rect class="cls-4" x="313.73" y="225.49" width="9.8" height="9.81"/><rect class="cls-4" x="313.73" y="215.68" width="9.8" height="9.8"/><rect class="cls-4" x="313.73" y="205.89" width="9.8" height="9.8"/><rect class="cls-4" x="313.73" y="196.08" width="9.8" height="9.81"/><rect class="cls-3" x="313.73" y="186.27" width="9.8" height="9.8"/><rect class="cls-2" x="313.73" y="176.47" width="9.8" height="9.81"/><rect class="cls-2" x="313.73" y="166.67" width="9.8" height="9.8"/><rect class="cls-2" x="313.73" y="156.86" width="9.8" height="9.8"/><rect class="cls-1" x="313.73" y="147.06" width="9.8" height="9.81"/><rect class="cls-2" x="303.92" y="323.52" width="9.81" height="9.81"/><rect class="cls-2" x="303.92" y="313.73" width="9.81" height="9.8"/><rect class="cls-4" x="303.92" y="303.92" width="9.81" height="9.8"/><rect class="cls-3" x="303.92" y="294.11" width="9.81" height="9.81"/><rect class="cls-3" x="303.92" y="284.32" width="9.81" height="9.8"/><rect class="cls-3" x="303.92" y="274.5" width="9.81" height="9.81"/><rect class="cls-5" x="303.92" y="264.7" width="9.81" height="9.8"/><rect class="cls-5" x="303.92" y="254.91" width="9.81" height="9.8"/><rect class="cls-5" x="303.92" y="245.09" width="9.81" height="9.81"/><rect class="cls-3" x="303.92" y="235.3" width="9.81" height="9.8"/><rect class="cls-3" x="303.92" y="225.49" width="9.81" height="9.81"/><rect class="cls-4" x="303.92" y="215.68" width="9.81" height="9.8"/><rect class="cls-4" x="303.92" y="205.89" width="9.81" height="9.8"/><rect class="cls-4" x="303.92" y="196.08" width="9.81" height="9.81"/><rect class="cls-4" x="303.92" y="186.27" width="9.81" height="9.8"/><rect class="cls-3" x="303.92" y="176.47" width="9.81" height="9.81"/><rect class="cls-3" x="303.92" y="166.67" width="9.81" height="9.8"/><rect class="cls-2" x="303.92" y="156.86" width="9.81" height="9.8"/><rect class="cls-1" x="303.92" y="147.06" width="9.81" height="9.81"/><rect class="cls-1" x="303.92" y="88.24" width="9.81" height="9.8"/><rect class="cls-1" x="294.12" y="333.33" width="9.8" height="9.8"/><rect class="cls-2" x="294.12" y="323.52" width="9.8" height="9.81"/><rect class="cls-2" x="294.12" y="313.73" width="9.8" height="9.8"/><rect class="cls-3" x="294.12" y="303.92" width="9.8" height="9.8"/><rect class="cls-5" x="294.12" y="294.11" width="9.8" height="9.81"/><rect class="cls-5" x="294.12" y="284.32" width="9.8" height="9.8"/><rect class="cls-5" x="294.12" y="274.5" width="9.8" height="9.81"/><rect class="cls-5" x="294.12" y="264.7" width="9.8" height="9.8"/><rect class="cls-5" x="294.12" y="254.91" width="9.8" height="9.8"/><rect class="cls-5" x="294.12" y="245.09" width="9.8" height="9.81"/><rect class="cls-5" x="294.12" y="235.3" width="9.8" height="9.8"/><rect class="cls-3" x="294.12" y="225.49" width="9.8" height="9.81"/><rect class="cls-3" x="294.12" y="215.68" width="9.8" height="9.8"/><rect class="cls-4" x="294.12" y="205.89" width="9.8" height="9.8"/><rect class="cls-4" x="294.12" y="196.08" width="9.8" height="9.81"/><rect class="cls-4" x="294.12" y="186.27" width="9.8" height="9.8"/><rect class="cls-4" x="294.12" y="176.47" width="9.8" height="9.81"/><rect class="cls-4" x="294.12" y="166.67" width="9.8" height="9.8"/><rect class="cls-3" x="294.12" y="156.86" width="9.8" height="9.8"/><rect class="cls-3" x="294.12" y="147.06" width="9.8" height="9.81"/><rect class="cls-1" x="294.12" y="137.26" width="9.8" height="9.8"/><rect class="cls-1" x="294.12" y="88.24" width="9.8" height="9.8"/><rect class="cls-1" x="294.12" y="78.43" width="9.8" height="9.8"/><rect class="cls-1" x="284.31" y="421.57" width="9.81" height="9.81"/><rect class="cls-1" x="284.31" y="411.76" width="9.81" height="9.8"/><rect class="cls-1" x="284.31" y="401.95" width="9.81" height="9.81"/><rect class="cls-1" x="284.31" y="392.16" width="9.81" height="9.8"/><rect class="cls-1" x="284.31" y="382.35" width="9.81" height="9.8"/><rect class="cls-1" x="284.31" y="372.55" width="9.81" height="9.81"/><rect class="cls-1" x="284.31" y="362.74" width="9.81" height="9.8"/><rect class="cls-1" x="284.31" y="352.94" width="9.81" height="9.8"/><rect class="cls-1" x="284.31" y="343.14" width="9.81" height="9.81"/><rect class="cls-1" x="284.31" y="333.33" width="9.81" height="9.8"/><rect class="cls-1" x="284.31" y="323.52" width="9.81" height="9.81"/><rect class="cls-1" x="284.31" y="313.73" width="9.81" height="9.8"/><rect class="cls-1" x="284.31" y="303.92" width="9.81" height="9.8"/><rect class="cls-1" x="284.31" y="294.11" width="9.81" height="9.81"/><rect class="cls-1" x="284.31" y="284.32" width="9.81" height="9.8"/><rect class="cls-1" x="284.31" y="274.5" width="9.81" height="9.81"/><rect class="cls-1" x="284.31" y="264.7" width="9.81" height="9.8"/><rect class="cls-1" x="284.31" y="254.91" width="9.81" height="9.8"/><rect class="cls-5" x="284.31" y="245.09" width="9.81" height="9.81"/><rect class="cls-5" x="284.31" y="235.3" width="9.81" height="9.8"/><rect class="cls-5" x="284.31" y="225.49" width="9.81" height="9.81"/><rect class="cls-3" x="284.31" y="215.68" width="9.81" height="9.8"/><rect class="cls-4" x="284.31" y="205.89" width="9.81" height="9.8"/><rect class="cls-4" x="284.31" y="196.08" width="9.81" height="9.81"/><rect class="cls-4" x="284.31" y="186.27" width="9.81" height="9.8"/><rect class="cls-4" x="284.31" y="176.47" width="9.81" height="9.81"/><rect class="cls-4" x="284.31" y="166.67" width="9.81" height="9.8"/><rect class="cls-4" x="284.31" y="156.86" width="9.81" height="9.8"/><rect class="cls-4" x="284.31" y="147.06" width="9.81" height="9.81"/><rect class="cls-1" x="284.31" y="137.26" width="9.81" height="9.8"/><rect class="cls-1" x="284.31" y="127.44" width="9.81" height="9.81"/><rect class="cls-1" x="284.31" y="88.24" width="9.81" height="9.8"/><rect class="cls-1" x="284.31" y="78.43" width="9.81" height="9.8"/><rect class="cls-1" x="274.51" y="431.38" width="9.8" height="9.8"/><rect class="cls-1" x="274.51" y="421.57" width="9.8" height="9.81"/><rect class="cls-5" x="274.51" y="411.76" width="9.8" height="9.8"/><rect class="cls-5" x="274.51" y="401.95" width="9.8" height="9.81"/><rect class="cls-5" x="274.51" y="392.16" width="9.8" height="9.8"/><rect class="cls-5" x="274.51" y="382.35" width="9.8" height="9.8"/><rect class="cls-5" x="274.51" y="372.55" width="9.8" height="9.81"/><rect class="cls-5" x="274.51" y="362.74" width="9.8" height="9.8"/><rect class="cls-5" x="274.51" y="352.94" width="9.8" height="9.8"/><rect class="cls-5" x="274.51" y="343.14" width="9.8" height="9.81"/><rect class="cls-5" x="274.51" y="333.33" width="9.8" height="9.8"/><rect class="cls-5" x="274.51" y="323.52" width="9.8" height="9.81"/><rect class="cls-5" x="274.51" y="313.73" width="9.8" height="9.8"/><rect class="cls-5" x="274.51" y="303.92" width="9.8" height="9.8"/><rect class="cls-5" x="274.51" y="294.11" width="9.8" height="9.81"/><rect class="cls-5" x="274.51" y="284.32" width="9.8" height="9.8"/><rect class="cls-5" x="274.51" y="274.5" width="9.8" height="9.81"/><rect class="cls-5" x="274.51" y="264.7" width="9.8" height="9.8"/><rect class="cls-1" x="274.51" y="254.91" width="9.8" height="9.8"/><rect class="cls-1" x="274.51" y="245.09" width="9.8" height="9.81"/><rect class="cls-1" x="274.51" y="235.3" width="9.8" height="9.8"/><rect class="cls-5" x="274.51" y="225.49" width="9.8" height="9.81"/><rect class="cls-5" x="274.51" y="215.68" width="9.8" height="9.8"/><rect class="cls-3" x="274.51" y="205.89" width="9.8" height="9.8"/><rect class="cls-4" x="274.51" y="196.08" width="9.8" height="9.81"/><rect class="cls-4" x="274.51" y="186.27" width="9.8" height="9.8"/><rect class="cls-4" x="274.51" y="176.47" width="9.8" height="9.81"/><rect class="cls-4" x="274.51" y="166.67" width="9.8" height="9.8"/><rect class="cls-4" x="274.51" y="156.86" width="9.8" height="9.8"/><rect class="cls-4" x="274.51" y="147.06" width="9.8" height="9.81"/><rect class="cls-3" x="274.51" y="137.26" width="9.8" height="9.8"/><rect class="cls-1" x="274.51" y="127.44" width="9.8" height="9.81"/><rect class="cls-4" x="274.51" y="88.24" width="9.8" height="9.8"/><rect class="cls-4" x="274.51" y="78.43" width="9.8" height="9.8"/><rect class="cls-4" x="274.51" y="68.63" width="9.8" height="9.81"/><rect class="cls-1" x="264.71" y="431.38" width="9.8" height="9.8"/><rect class="cls-5" x="264.71" y="421.57" width="9.8" height="9.81"/><rect class="cls-5" x="264.71" y="411.76" width="9.8" height="9.8"/><rect class="cls-5" x="264.71" y="401.95" width="9.8" height="9.81"/><rect class="cls-5" x="264.71" y="392.16" width="9.8" height="9.8"/><rect class="cls-5" x="264.71" y="382.35" width="9.8" height="9.8"/><rect class="cls-5" x="264.71" y="372.55" width="9.8" height="9.81"/><rect class="cls-5" x="264.71" y="362.74" width="9.8" height="9.8"/><rect class="cls-5" x="264.71" y="352.94" width="9.8" height="9.8"/><rect class="cls-5" x="264.71" y="343.14" width="9.8" height="9.81"/><rect class="cls-5" x="264.71" y="333.33" width="9.8" height="9.8"/><rect class="cls-5" x="264.71" y="323.52" width="9.8" height="9.81"/><rect class="cls-5" x="264.71" y="313.73" width="9.8" height="9.8"/><rect class="cls-5" x="264.71" y="303.92" width="9.8" height="9.8"/><rect class="cls-5" x="264.71" y="294.11" width="9.8" height="9.81"/><rect class="cls-5" x="264.71" y="284.32" width="9.8" height="9.8"/><rect class="cls-5" x="264.71" y="274.5" width="9.8" height="9.81"/><rect class="cls-5" x="264.71" y="264.7" width="9.8" height="9.8"/><rect class="cls-5" x="264.71" y="254.91" width="9.8" height="9.8"/><rect class="cls-5" x="264.71" y="245.09" width="9.8" height="9.81"/><rect class="cls-1" x="264.71" y="235.3" width="9.8" height="9.8"/><rect class="cls-5" x="264.71" y="225.49" width="9.8" height="9.81"/><rect class="cls-5" x="264.71" y="215.68" width="9.8" height="9.8"/><rect class="cls-3" x="264.71" y="205.89" width="9.8" height="9.8"/><rect class="cls-4" x="264.71" y="196.08" width="9.8" height="9.81"/><rect class="cls-4" x="264.71" y="186.27" width="9.8" height="9.8"/><rect class="cls-4" x="264.71" y="176.47" width="9.8" height="9.81"/><rect class="cls-4" x="264.71" y="166.67" width="9.8" height="9.8"/><rect class="cls-4" x="264.71" y="156.86" width="9.8" height="9.8"/><rect class="cls-4" x="264.71" y="147.06" width="9.8" height="9.81"/><rect class="cls-3" x="264.71" y="137.26" width="9.8" height="9.8"/><rect class="cls-1" x="264.71" y="127.44" width="9.8" height="9.81"/><rect class="cls-3" x="264.71" y="117.65" width="9.8" height="9.8"/><rect class="cls-3" x="264.71" y="107.85" width="9.8" height="9.8"/><rect class="cls-3" x="264.71" y="98.03" width="9.8" height="9.81"/><rect class="cls-4" x="264.71" y="88.24" width="9.8" height="9.8"/><rect class="cls-4" x="264.71" y="78.43" width="9.8" height="9.8"/><rect class="cls-4" x="264.71" y="68.63" width="9.8" height="9.81"/><rect class="cls-4" x="254.9" y="421.57" width="9.81" height="9.81"/><rect class="cls-4" x="254.9" y="411.76" width="9.81" height="9.8"/><rect class="cls-4" x="254.9" y="401.95" width="9.81" height="9.81"/><rect class="cls-4" x="254.9" y="392.16" width="9.81" height="9.8"/><rect class="cls-3" x="254.9" y="382.35" width="9.81" height="9.8"/><rect class="cls-3" x="254.9" y="372.55" width="9.81" height="9.81"/><rect class="cls-3" x="254.9" y="362.74" width="9.81" height="9.8"/><rect class="cls-3" x="254.9" y="352.94" width="9.81" height="9.8"/><rect class="cls-3" x="254.9" y="343.14" width="9.81" height="9.81"/><rect class="cls-3" x="254.9" y="333.33" width="9.81" height="9.8"/><rect class="cls-3" x="254.9" y="323.52" width="9.81" height="9.81"/><rect class="cls-5" x="254.9" y="313.73" width="9.81" height="9.8"/><rect class="cls-5" x="254.9" y="303.92" width="9.81" height="9.8"/><rect class="cls-5" x="254.9" y="294.11" width="9.81" height="9.81"/><rect class="cls-5" x="254.9" y="284.32" width="9.81" height="9.8"/><rect class="cls-5" x="254.9" y="274.5" width="9.81" height="9.81"/><rect class="cls-5" x="254.9" y="264.7" width="9.81" height="9.8"/><rect class="cls-5" x="254.9" y="254.91" width="9.81" height="9.8"/><rect class="cls-5" x="254.9" y="245.09" width="9.81" height="9.81"/><rect class="cls-1" x="254.9" y="235.3" width="9.81" height="9.8"/><rect class="cls-5" x="254.9" y="225.49" width="9.81" height="9.81"/><rect class="cls-5" x="254.9" y="215.68" width="9.81" height="9.8"/><rect class="cls-1" x="254.9" y="205.89" width="9.81" height="9.8"/><rect class="cls-1" x="254.9" y="196.08" width="9.81" height="9.81"/><rect class="cls-1" x="254.9" y="186.27" width="9.81" height="9.8"/><rect class="cls-1" x="254.9" y="176.47" width="9.81" height="9.81"/><rect class="cls-1" x="254.9" y="166.67" width="9.81" height="9.8"/><rect class="cls-1" x="254.9" y="156.86" width="9.81" height="9.8"/><rect class="cls-1" x="254.9" y="147.06" width="9.81" height="9.81"/><rect class="cls-1" x="254.9" y="137.26" width="9.81" height="9.8"/><rect class="cls-4" x="254.9" y="127.44" width="9.81" height="9.81"/><rect class="cls-4" x="254.9" y="117.65" width="9.81" height="9.8"/><rect class="cls-4" x="254.9" y="107.85" width="9.81" height="9.8"/><rect class="cls-4" x="254.9" y="98.03" width="9.81" height="9.81"/><rect class="cls-1" x="254.9" y="88.24" width="9.81" height="9.8"/><rect class="cls-1" x="254.9" y="78.43" width="9.81" height="9.8"/><rect class="cls-1" x="254.9" y="68.63" width="9.81" height="9.81"/><rect class="cls-1" x="254.9" y="58.83" width="9.81" height="9.8"/><rect class="cls-4" x="245.1" y="421.57" width="9.8" height="9.81"/><rect class="cls-4" x="245.1" y="411.76" width="9.8" height="9.8"/><rect class="cls-4" x="245.1" y="401.95" width="9.8" height="9.81"/><rect class="cls-3" x="245.1" y="392.16" width="9.8" height="9.8"/><rect class="cls-3" x="245.1" y="382.35" width="9.8" height="9.8"/><rect class="cls-3" x="245.1" y="372.55" width="9.8" height="9.81"/><rect class="cls-3" x="245.1" y="362.74" width="9.8" height="9.8"/><rect class="cls-3" x="245.1" y="352.94" width="9.8" height="9.8"/><rect class="cls-3" x="245.1" y="343.14" width="9.8" height="9.81"/><rect class="cls-3" x="245.1" y="333.33" width="9.8" height="9.8"/><rect class="cls-3" x="245.1" y="323.52" width="9.8" height="9.81"/><rect class="cls-5" x="245.1" y="313.73" width="9.8" height="9.8"/><rect class="cls-5" x="245.1" y="303.92" width="9.8" height="9.8"/><rect class="cls-5" x="245.1" y="294.11" width="9.8" height="9.81"/><rect class="cls-5" x="245.1" y="284.32" width="9.8" height="9.8"/><rect class="cls-5" x="245.1" y="274.5" width="9.8" height="9.81"/><rect class="cls-5" x="245.1" y="264.7" width="9.8" height="9.8"/><rect class="cls-5" x="245.1" y="254.91" width="9.8" height="9.8"/><rect class="cls-5" x="245.1" y="245.09" width="9.8" height="9.81"/><rect class="cls-1" x="245.1" y="235.3" width="9.8" height="9.8"/><rect class="cls-5" x="245.1" y="225.49" width="9.8" height="9.81"/><rect class="cls-5" x="245.1" y="215.68" width="9.8" height="9.8"/><rect class="cls-1" x="245.1" y="205.89" width="9.8" height="9.8"/><rect class="cls-1" x="245.1" y="196.08" width="9.8" height="9.81"/><rect class="cls-1" x="245.1" y="186.27" width="9.8" height="9.8"/><rect class="cls-1" x="245.1" y="176.47" width="9.8" height="9.81"/><rect class="cls-1" x="245.1" y="166.67" width="9.8" height="9.8"/><rect class="cls-1" x="245.1" y="156.86" width="9.8" height="9.8"/><rect class="cls-1" x="245.1" y="147.06" width="9.8" height="9.81"/><rect class="cls-1" x="245.1" y="137.26" width="9.8" height="9.8"/><rect class="cls-1" x="245.1" y="127.44" width="9.8" height="9.81"/><rect class="cls-1" x="245.1" y="117.65" width="9.8" height="9.8"/><rect class="cls-1" x="245.1" y="107.85" width="9.8" height="9.8"/><rect class="cls-1" x="245.1" y="98.03" width="9.8" height="9.81"/><rect class="cls-1" x="245.1" y="88.24" width="9.8" height="9.8"/><rect class="cls-1" x="245.1" y="78.43" width="9.8" height="9.8"/><rect class="cls-1" x="245.1" y="68.63" width="9.8" height="9.81"/><rect class="cls-1" x="245.1" y="58.83" width="9.8" height="9.8"/><rect class="cls-4" x="235.29" y="421.57" width="9.81" height="9.81"/><rect class="cls-4" x="235.29" y="411.76" width="9.81" height="9.8"/><rect class="cls-4" x="235.29" y="401.95" width="9.81" height="9.81"/><rect class="cls-4" x="235.29" y="392.16" width="9.81" height="9.8"/><rect class="cls-3" x="235.29" y="382.35" width="9.81" height="9.8"/><rect class="cls-3" x="235.29" y="372.55" width="9.81" height="9.81"/><rect class="cls-3" x="235.29" y="362.74" width="9.81" height="9.8"/><rect class="cls-3" x="235.29" y="352.94" width="9.81" height="9.8"/><rect class="cls-3" x="235.29" y="343.14" width="9.81" height="9.81"/><rect class="cls-3" x="235.29" y="333.33" width="9.81" height="9.8"/><rect class="cls-3" x="235.29" y="323.52" width="9.81" height="9.81"/><rect class="cls-5" x="235.29" y="313.73" width="9.81" height="9.8"/><rect class="cls-5" x="235.29" y="303.92" width="9.81" height="9.8"/><rect class="cls-5" x="235.29" y="294.11" width="9.81" height="9.81"/><rect class="cls-5" x="235.29" y="284.32" width="9.81" height="9.8"/><rect class="cls-5" x="235.29" y="274.5" width="9.81" height="9.81"/><rect class="cls-5" x="235.29" y="264.7" width="9.81" height="9.8"/><rect class="cls-5" x="235.29" y="254.91" width="9.81" height="9.8"/><rect class="cls-5" x="235.29" y="245.09" width="9.81" height="9.81"/><rect class="cls-1" x="235.29" y="235.3" width="9.81" height="9.8"/><rect class="cls-5" x="235.29" y="225.49" width="9.81" height="9.81"/><rect class="cls-5" x="235.29" y="215.68" width="9.81" height="9.8"/><rect class="cls-1" x="235.29" y="205.89" width="9.81" height="9.8"/><rect class="cls-1" x="235.29" y="196.08" width="9.81" height="9.81"/><rect class="cls-1" x="235.29" y="186.27" width="9.81" height="9.8"/><rect class="cls-1" x="235.29" y="176.47" width="9.81" height="9.81"/><rect class="cls-1" x="235.29" y="166.67" width="9.81" height="9.8"/><rect class="cls-1" x="235.29" y="156.86" width="9.81" height="9.8"/><rect class="cls-1" x="235.29" y="147.06" width="9.81" height="9.81"/><rect class="cls-1" x="235.29" y="137.26" width="9.81" height="9.8"/><rect class="cls-4" x="235.29" y="127.44" width="9.81" height="9.81"/><rect class="cls-4" x="235.29" y="117.65" width="9.81" height="9.8"/><rect class="cls-4" x="235.29" y="107.85" width="9.81" height="9.8"/><rect class="cls-4" x="235.29" y="98.03" width="9.81" height="9.81"/><rect class="cls-1" x="235.29" y="88.24" width="9.81" height="9.8"/><rect class="cls-1" x="235.29" y="78.43" width="9.81" height="9.8"/><rect class="cls-1" x="235.29" y="68.63" width="9.81" height="9.81"/><rect class="cls-1" x="235.29" y="58.83" width="9.81" height="9.8"/><rect class="cls-1" x="225.49" y="431.38" width="9.8" height="9.8"/><rect class="cls-5" x="225.49" y="421.57" width="9.8" height="9.81"/><rect class="cls-5" x="225.49" y="411.76" width="9.8" height="9.8"/><rect class="cls-5" x="225.49" y="401.95" width="9.8" height="9.81"/><rect class="cls-5" x="225.49" y="392.16" width="9.8" height="9.8"/><rect class="cls-5" x="225.49" y="382.35" width="9.8" height="9.8"/><rect class="cls-5" x="225.49" y="372.55" width="9.8" height="9.81"/><rect class="cls-5" x="225.49" y="362.74" width="9.8" height="9.8"/><rect class="cls-5" x="225.49" y="352.94" width="9.8" height="9.8"/><rect class="cls-5" x="225.49" y="343.14" width="9.8" height="9.81"/><rect class="cls-5" x="225.49" y="333.33" width="9.8" height="9.8"/><rect class="cls-5" x="225.49" y="323.52" width="9.8" height="9.81"/><rect class="cls-5" x="225.49" y="313.73" width="9.8" height="9.8"/><rect class="cls-5" x="225.49" y="303.92" width="9.8" height="9.8"/><rect class="cls-5" x="225.49" y="294.11" width="9.8" height="9.81"/><rect class="cls-5" x="225.49" y="284.32" width="9.8" height="9.8"/><rect class="cls-5" x="225.49" y="274.5" width="9.8" height="9.81"/><rect class="cls-5" x="225.49" y="264.7" width="9.8" height="9.8"/><rect class="cls-5" x="225.49" y="254.91" width="9.8" height="9.8"/><rect class="cls-5" x="225.49" y="245.09" width="9.8" height="9.81"/><rect class="cls-1" x="225.49" y="235.3" width="9.8" height="9.8"/><rect class="cls-5" x="225.49" y="225.49" width="9.8" height="9.81"/><rect class="cls-5" x="225.49" y="215.68" width="9.8" height="9.8"/><rect class="cls-3" x="225.49" y="205.89" width="9.8" height="9.8"/><rect class="cls-4" x="225.49" y="196.08" width="9.8" height="9.81"/><rect class="cls-4" x="225.49" y="186.27" width="9.8" height="9.8"/><rect class="cls-4" x="225.49" y="176.47" width="9.8" height="9.81"/><rect class="cls-4" x="225.49" y="166.67" width="9.8" height="9.8"/><rect class="cls-4" x="225.49" y="156.86" width="9.8" height="9.8"/><rect class="cls-4" x="225.49" y="147.06" width="9.8" height="9.81"/><rect class="cls-3" x="225.49" y="137.26" width="9.8" height="9.8"/><rect class="cls-1" x="225.49" y="127.44" width="9.8" height="9.81"/><rect class="cls-3" x="225.49" y="117.65" width="9.8" height="9.8"/><rect class="cls-3" x="225.49" y="107.85" width="9.8" height="9.8"/><rect class="cls-3" x="225.49" y="98.03" width="9.8" height="9.81"/><rect class="cls-4" x="225.49" y="88.24" width="9.8" height="9.8"/><rect class="cls-4" x="225.49" y="78.43" width="9.8" height="9.8"/><rect class="cls-4" x="225.49" y="68.63" width="9.8" height="9.81"/><rect class="cls-1" x="215.69" y="431.38" width="9.8" height="9.8"/><rect class="cls-1" x="215.69" y="421.57" width="9.8" height="9.81"/><rect class="cls-5" x="215.69" y="411.76" width="9.8" height="9.8"/><rect class="cls-5" x="215.69" y="401.95" width="9.8" height="9.81"/><rect class="cls-5" x="215.69" y="392.16" width="9.8" height="9.8"/><rect class="cls-5" x="215.69" y="382.35" width="9.8" height="9.8"/><rect class="cls-5" x="215.69" y="372.55" width="9.8" height="9.81"/><rect class="cls-5" x="215.69" y="362.74" width="9.8" height="9.8"/><rect class="cls-5" x="215.69" y="352.94" width="9.8" height="9.8"/><rect class="cls-5" x="215.69" y="343.14" width="9.8" height="9.81"/><rect class="cls-5" x="215.69" y="333.33" width="9.8" height="9.8"/><rect class="cls-5" x="215.69" y="323.52" width="9.8" height="9.81"/><rect class="cls-5" x="215.69" y="313.73" width="9.8" height="9.8"/><rect class="cls-5" x="215.69" y="303.92" width="9.8" height="9.8"/><rect class="cls-5" x="215.69" y="294.11" width="9.8" height="9.81"/><rect class="cls-5" x="215.69" y="284.32" width="9.8" height="9.8"/><rect class="cls-5" x="215.69" y="274.5" width="9.8" height="9.81"/><rect class="cls-5" x="215.69" y="264.7" width="9.8" height="9.8"/><rect class="cls-1" x="215.69" y="254.91" width="9.8" height="9.8"/><rect class="cls-1" x="215.69" y="245.09" width="9.8" height="9.81"/><rect class="cls-1" x="215.69" y="235.3" width="9.8" height="9.8"/><rect class="cls-5" x="215.69" y="225.49" width="9.8" height="9.81"/><rect class="cls-5" x="215.69" y="215.68" width="9.8" height="9.8"/><rect class="cls-3" x="215.69" y="205.89" width="9.8" height="9.8"/><rect class="cls-4" x="215.69" y="196.08" width="9.8" height="9.81"/><rect class="cls-4" x="215.69" y="186.27" width="9.8" height="9.8"/><rect class="cls-4" x="215.69" y="176.47" width="9.8" height="9.81"/><rect class="cls-4" x="215.69" y="166.67" width="9.8" height="9.8"/><rect class="cls-4" x="215.69" y="156.86" width="9.8" height="9.8"/><rect class="cls-4" x="215.69" y="147.06" width="9.8" height="9.81"/><rect class="cls-3" x="215.69" y="137.26" width="9.8" height="9.8"/><rect class="cls-1" x="215.69" y="127.44" width="9.8" height="9.81"/><rect class="cls-4" x="215.69" y="88.24" width="9.8" height="9.8"/><rect class="cls-4" x="215.69" y="78.43" width="9.8" height="9.8"/><rect class="cls-4" x="215.69" y="68.63" width="9.8" height="9.81"/><rect class="cls-1" x="205.88" y="421.57" width="9.81" height="9.81"/><rect class="cls-1" x="205.88" y="411.76" width="9.81" height="9.8"/><rect class="cls-1" x="205.88" y="401.95" width="9.81" height="9.81"/><rect class="cls-1" x="205.88" y="392.16" width="9.81" height="9.8"/><rect class="cls-1" x="205.88" y="382.35" width="9.81" height="9.8"/><rect class="cls-1" x="205.88" y="372.55" width="9.81" height="9.81"/><rect class="cls-1" x="205.88" y="362.74" width="9.81" height="9.8"/><rect class="cls-1" x="205.88" y="352.94" width="9.81" height="9.8"/><rect class="cls-1" x="205.88" y="343.14" width="9.81" height="9.81"/><rect class="cls-1" x="205.88" y="333.33" width="9.81" height="9.8"/><rect class="cls-1" x="205.88" y="323.52" width="9.81" height="9.81"/><rect class="cls-1" x="205.88" y="313.73" width="9.81" height="9.8"/><rect class="cls-1" x="205.88" y="303.92" width="9.81" height="9.8"/><rect class="cls-1" x="205.88" y="294.11" width="9.81" height="9.81"/><rect class="cls-1" x="205.88" y="284.32" width="9.81" height="9.8"/><rect class="cls-1" x="205.88" y="274.5" width="9.81" height="9.81"/><rect class="cls-1" x="205.88" y="264.7" width="9.81" height="9.8"/><rect class="cls-1" x="205.88" y="254.91" width="9.81" height="9.8"/><rect class="cls-5" x="205.88" y="245.09" width="9.81" height="9.81"/><rect class="cls-5" x="205.88" y="235.3" width="9.81" height="9.8"/><rect class="cls-5" x="205.88" y="225.49" width="9.81" height="9.81"/><rect class="cls-3" x="205.88" y="215.68" width="9.81" height="9.8"/><rect class="cls-4" x="205.88" y="205.89" width="9.81" height="9.8"/><rect class="cls-4" x="205.88" y="196.08" width="9.81" height="9.81"/><rect class="cls-4" x="205.88" y="186.27" width="9.81" height="9.8"/><rect class="cls-4" x="205.88" y="176.47" width="9.81" height="9.81"/><rect class="cls-4" x="205.88" y="166.67" width="9.81" height="9.8"/><rect class="cls-4" x="205.88" y="156.86" width="9.81" height="9.8"/><rect class="cls-4" x="205.88" y="147.06" width="9.81" height="9.81"/><rect class="cls-1" x="205.88" y="137.26" width="9.81" height="9.8"/><rect class="cls-1" x="205.88" y="127.44" width="9.81" height="9.81"/><rect class="cls-1" x="205.88" y="88.24" width="9.81" height="9.8"/><rect class="cls-1" x="205.88" y="78.43" width="9.81" height="9.8"/><rect class="cls-1" x="196.08" y="333.33" width="9.8" height="9.8"/><rect class="cls-2" x="196.08" y="323.52" width="9.8" height="9.81"/><rect class="cls-2" x="196.08" y="313.73" width="9.8" height="9.8"/><rect class="cls-3" x="196.08" y="303.92" width="9.8" height="9.8"/><rect class="cls-5" x="196.08" y="294.11" width="9.8" height="9.81"/><rect class="cls-5" x="196.08" y="284.32" width="9.8" height="9.8"/><rect class="cls-5" x="196.08" y="274.5" width="9.8" height="9.81"/><rect class="cls-5" x="196.08" y="264.7" width="9.8" height="9.8"/><rect class="cls-5" x="196.08" y="254.91" width="9.8" height="9.8"/><rect class="cls-5" x="196.08" y="245.09" width="9.8" height="9.81"/><rect class="cls-5" x="196.08" y="235.3" width="9.8" height="9.8"/><rect class="cls-3" x="196.08" y="225.49" width="9.8" height="9.81"/><rect class="cls-3" x="196.08" y="215.68" width="9.8" height="9.8"/><rect class="cls-4" x="196.08" y="205.89" width="9.8" height="9.8"/><rect class="cls-4" x="196.08" y="196.08" width="9.8" height="9.81"/><rect class="cls-4" x="196.08" y="186.27" width="9.8" height="9.8"/><rect class="cls-4" x="196.08" y="176.47" width="9.8" height="9.81"/><rect class="cls-4" x="196.08" y="166.67" width="9.8" height="9.8"/><rect class="cls-3" x="196.08" y="156.86" width="9.8" height="9.8"/><rect class="cls-3" x="196.08" y="147.06" width="9.8" height="9.81"/><rect class="cls-1" x="196.08" y="137.26" width="9.8" height="9.8"/><rect class="cls-1" x="196.08" y="88.24" width="9.8" height="9.8"/><rect class="cls-1" x="196.08" y="78.43" width="9.8" height="9.8"/><rect class="cls-2" x="186.27" y="323.52" width="9.81" height="9.81"/><rect class="cls-2" x="186.27" y="313.73" width="9.81" height="9.8"/><rect class="cls-4" x="186.27" y="303.92" width="9.81" height="9.8"/><rect class="cls-3" x="186.27" y="294.11" width="9.81" height="9.81"/><rect class="cls-3" x="186.27" y="284.32" width="9.81" height="9.8"/><rect class="cls-3" x="186.27" y="274.5" width="9.81" height="9.81"/><rect class="cls-5" x="186.27" y="264.7" width="9.81" height="9.8"/><rect class="cls-5" x="186.27" y="254.91" width="9.81" height="9.8"/><rect class="cls-5" x="186.27" y="245.09" width="9.81" height="9.81"/><rect class="cls-3" x="186.27" y="235.3" width="9.81" height="9.8"/><rect class="cls-3" x="186.27" y="225.49" width="9.81" height="9.81"/><rect class="cls-4" x="186.27" y="215.68" width="9.81" height="9.8"/><rect class="cls-4" x="186.27" y="205.89" width="9.81" height="9.8"/><rect class="cls-4" x="186.27" y="196.08" width="9.81" height="9.81"/><rect class="cls-4" x="186.27" y="186.27" width="9.81" height="9.8"/><rect class="cls-3" x="186.27" y="176.47" width="9.81" height="9.81"/><rect class="cls-3" x="186.27" y="166.67" width="9.81" height="9.8"/><rect class="cls-2" x="186.27" y="156.86" width="9.81" height="9.8"/><rect class="cls-1" x="186.27" y="147.06" width="9.81" height="9.81"/><rect class="cls-1" x="186.27" y="88.24" width="9.81" height="9.8"/><rect class="cls-2" x="176.47" y="313.73" width="9.8" height="9.8"/><rect class="cls-2" x="176.47" y="303.92" width="9.8" height="9.8"/><rect class="cls-4" x="176.47" y="294.11" width="9.8" height="9.81"/><rect class="cls-4" x="176.47" y="284.32" width="9.8" height="9.8"/><rect class="cls-4" x="176.47" y="274.5" width="9.8" height="9.81"/><rect class="cls-3" x="176.47" y="264.7" width="9.8" height="9.8"/><rect class="cls-3" x="176.47" y="254.91" width="9.8" height="9.8"/><rect class="cls-3" x="176.47" y="245.09" width="9.8" height="9.81"/><rect class="cls-4" x="176.47" y="235.3" width="9.8" height="9.8"/><rect class="cls-4" x="176.47" y="225.49" width="9.8" height="9.81"/><rect class="cls-4" x="176.47" y="215.68" width="9.8" height="9.8"/><rect class="cls-4" x="176.47" y="205.89" width="9.8" height="9.8"/><rect class="cls-4" x="176.47" y="196.08" width="9.8" height="9.81"/><rect class="cls-3" x="176.47" y="186.27" width="9.8" height="9.8"/><rect class="cls-2" x="176.47" y="176.47" width="9.8" height="9.81"/><rect class="cls-2" x="176.47" y="166.67" width="9.8" height="9.8"/><rect class="cls-2" x="176.47" y="156.86" width="9.8" height="9.8"/><rect class="cls-1" x="176.47" y="147.06" width="9.8" height="9.81"/><rect class="cls-1" x="166.67" y="303.92" width="9.8" height="9.8"/><rect class="cls-2" x="166.67" y="294.11" width="9.8" height="9.81"/><rect class="cls-2" x="166.67" y="284.32" width="9.8" height="9.8"/><rect class="cls-4" x="166.67" y="274.5" width="9.8" height="9.81"/><rect class="cls-4" x="166.67" y="264.7" width="9.8" height="9.8"/><rect class="cls-4" x="166.67" y="254.91" width="9.8" height="9.8"/><rect class="cls-4" x="166.67" y="245.09" width="9.8" height="9.81"/><rect class="cls-4" x="166.67" y="235.3" width="9.8" height="9.8"/><rect class="cls-4" x="166.67" y="225.49" width="9.8" height="9.81"/><rect class="cls-4" x="166.67" y="215.68" width="9.8" height="9.8"/><rect class="cls-4" x="166.67" y="205.89" width="9.8" height="9.8"/><rect class="cls-3" x="166.67" y="196.08" width="9.8" height="9.81"/><rect class="cls-2" x="166.67" y="186.27" width="9.8" height="9.8"/><rect class="cls-2" x="166.67" y="176.47" width="9.8" height="9.81"/><rect class="cls-2" x="166.67" y="166.67" width="9.8" height="9.8"/><rect class="cls-1" x="166.67" y="156.86" width="9.8" height="9.8"/><rect class="cls-1" x="156.86" y="294.11" width="9.81" height="9.81"/><rect class="cls-2" x="156.86" y="284.32" width="9.81" height="9.8"/><rect class="cls-3" x="156.86" y="274.5" width="9.81" height="9.81"/><rect class="cls-3" x="156.86" y="264.7" width="9.81" height="9.8"/><rect class="cls-3" x="156.86" y="254.91" width="9.81" height="9.8"/><rect class="cls-3" x="156.86" y="245.09" width="9.81" height="9.81"/><rect class="cls-3" x="156.86" y="235.3" width="9.81" height="9.8"/><rect class="cls-3" x="156.86" y="225.49" width="9.81" height="9.81"/><rect class="cls-3" x="156.86" y="215.68" width="9.81" height="9.8"/><rect class="cls-3" x="156.86" y="205.89" width="9.81" height="9.8"/><rect class="cls-2" x="156.86" y="196.08" width="9.81" height="9.81"/><rect class="cls-2" x="156.86" y="186.27" width="9.81" height="9.8"/><rect class="cls-2" x="156.86" y="176.47" width="9.81" height="9.81"/><rect class="cls-1" x="156.86" y="166.67" width="9.81" height="9.8"/><rect class="cls-1" x="147.06" y="284.32" width="9.8" height="9.8"/><rect class="cls-2" x="147.06" y="264.7" width="9.8" height="9.8"/><rect class="cls-2" x="147.06" y="254.91" width="9.8" height="9.8"/><rect class="cls-2" x="147.06" y="245.09" width="9.8" height="9.81"/><rect class="cls-2" x="147.06" y="235.3" width="9.8" height="9.8"/><rect class="cls-2" x="147.06" y="225.49" width="9.8" height="9.81"/><rect class="cls-2" x="147.06" y="215.68" width="9.8" height="9.8"/><rect class="cls-2" x="147.06" y="205.89" width="9.8" height="9.8"/><rect class="cls-2" x="147.06" y="196.08" width="9.8" height="9.81"/><rect class="cls-2" x="147.06" y="186.27" width="9.8" height="9.8"/><rect class="cls-1" x="147.06" y="176.47" width="9.8" height="9.81"/><rect class="cls-1" x="137.25" y="264.7" width="9.81" height="9.8"/><rect class="cls-2" x="137.25" y="254.91" width="9.81" height="9.8"/><rect class="cls-2" x="137.25" y="245.09" width="9.81" height="9.81"/><rect class="cls-2" x="137.25" y="235.3" width="9.81" height="9.8"/><rect class="cls-2" x="137.25" y="225.49" width="9.81" height="9.81"/><rect class="cls-2" x="137.25" y="215.68" width="9.81" height="9.8"/><rect class="cls-2" x="137.25" y="205.89" width="9.81" height="9.8"/><rect class="cls-1" x="137.25" y="196.08" width="9.81" height="9.81"/><rect class="cls-1" x="137.25" y="186.27" width="9.81" height="9.8"/><rect class="cls-1" x="127.45" y="264.7" width="9.8" height="9.8"/><rect class="cls-1" x="127.45" y="254.91" width="9.8" height="9.8"/><rect class="cls-1" x="127.45" y="245.09" width="9.8" height="9.81"/><rect class="cls-1" x="127.45" y="235.3" width="9.8" height="9.8"/><rect class="cls-1" x="127.45" y="225.49" width="9.8" height="9.81"/><rect class="cls-1" x="127.45" y="215.68" width="9.8" height="9.8"/><rect class="cls-1" x="127.45" y="205.89" width="9.8" height="9.8"/></svg>