<svg id="Layer_1" data-name="Layer 1" xmlns="http://www.w3.org/2000/svg" viewBox="0 0 500 500"><defs><style>.cls-1{fill:#87cfe7;}.cls-2{fill:#cfecf2;}</style></defs><rect class="cls-1" x="432.08" y="216.88" width="7.49" height="7.48"/><rect class="cls-1" x="424.6" y="216.88" width="7.48" height="7.48"/><rect class="cls-2" x="439.57" y="194.42" width="7.48" height="7.48"/><rect class="cls-2" x="447.06" y="209.39" width="7.49" height="7.48"/><rect class="cls-1" x="417.12" y="201.9" width="7.48" height="7.49"/><rect class="cls-2" x="417.12" y="194.42" width="7.48" height="7.48"/><rect class="cls-1" x="409.62" y="201.9" width="7.49" height="7.49"/><rect class="cls-1" x="409.62" y="209.39" width="7.49" height="7.48"/><rect class="cls-1" x="417.12" y="209.39" width="7.48" height="7.48"/><rect class="cls-2" x="402.14" y="209.39" width="7.48" height="7.48"/><rect class="cls-1" x="432.08" y="201.9" width="7.49" height="7.49"/><rect class="cls-2" x="432.08" y="194.42" width="7.49" height="7.48"/><rect class="cls-1" x="424.6" y="201.9" width="7.48" height="7.49"/><rect class="cls-1" x="432.08" y="209.39" width="7.49" height="7.48"/><rect class="cls-2" x="439.57" y="201.9" width="7.48" height="7.49"/><rect class="cls-1" x="439.57" y="216.88" width="7.48" height="7.48"/><rect class="cls-1" x="439.57" y="209.39" width="7.48" height="7.48"/><rect class="cls-2" x="424.6" y="194.42" width="7.48" height="7.48"/><rect class="cls-1" x="424.6" y="209.39" width="7.48" height="7.48"/><rect class="cls-2" x="187.92" y="258.94" width="7.48" height="7.49"/><rect class="cls-2" x="195.4" y="258.94" width="7.48" height="7.49"/><rect class="cls-2" x="202.88" y="266.43" width="7.49" height="7.48"/><rect class="cls-1" x="187.92" y="266.43" width="7.48" height="7.48"/><rect class="cls-1" x="187.92" y="273.92" width="7.48" height="7.48"/><rect class="cls-2" x="195.4" y="266.43" width="7.48" height="7.48"/><rect class="cls-1" x="202.88" y="273.92" width="7.49" height="7.48"/><rect class="cls-1" x="195.4" y="273.92" width="7.48" height="7.48"/><rect class="cls-1" x="202.88" y="281.4" width="7.49" height="7.49"/><rect class="cls-1" x="180.43" y="273.92" width="7.49" height="7.48"/><rect class="cls-1" x="180.43" y="281.4" width="7.49" height="7.49"/><rect class="cls-1" x="165.45" y="266.43" width="7.49" height="7.48"/><rect class="cls-1" x="165.45" y="273.92" width="7.49" height="7.48"/><rect class="cls-1" x="157.97" y="273.92" width="7.48" height="7.48"/><rect class="cls-1" x="157.97" y="266.43" width="7.48" height="7.48"/><rect class="cls-1" x="172.94" y="281.4" width="7.48" height="7.49"/><rect class="cls-1" x="172.94" y="273.92" width="7.48" height="7.48"/><rect class="cls-2" x="180.43" y="258.94" width="7.49" height="7.49"/><rect class="cls-2" x="180.43" y="266.43" width="7.49" height="7.48"/><rect class="cls-2" x="165.45" y="258.94" width="7.49" height="7.49"/><rect class="cls-2" x="172.94" y="266.43" width="7.48" height="7.48"/><rect class="cls-2" x="172.94" y="258.94" width="7.48" height="7.49"/><rect class="cls-2" x="135.51" y="210.84" width="7.48" height="7.48"/><rect class="cls-1" x="128.03" y="218.33" width="7.48" height="7.49"/><rect class="cls-1" x="128.03" y="210.84" width="7.48" height="7.48"/><rect class="cls-2" x="128.03" y="203.36" width="7.48" height="7.48"/><rect class="cls-1" x="120.53" y="218.33" width="7.49" height="7.49"/><rect class="cls-1" x="120.53" y="210.84" width="7.49" height="7.48"/><rect class="cls-2" x="120.53" y="203.36" width="7.49" height="7.48"/><rect class="cls-2" x="120.53" y="195.87" width="7.49" height="7.49"/><rect class="cls-1" x="113.05" y="225.82" width="7.48" height="7.48"/><rect class="cls-1" x="113.05" y="218.33" width="7.48" height="7.49"/><rect class="cls-1" x="113.05" y="210.84" width="7.48" height="7.48"/><rect class="cls-1" x="113.05" y="203.36" width="7.48" height="7.48"/><rect class="cls-2" x="113.05" y="195.87" width="7.48" height="7.49"/><rect class="cls-1" x="105.56" y="225.82" width="7.49" height="7.48"/><rect class="cls-1" x="105.56" y="218.33" width="7.49" height="7.49"/><rect class="cls-1" x="105.56" y="210.84" width="7.49" height="7.48"/><rect class="cls-1" x="105.56" y="203.36" width="7.49" height="7.48"/><rect class="cls-1" x="98.08" y="225.82" width="7.48" height="7.48"/><rect class="cls-1" x="98.08" y="218.33" width="7.48" height="7.49"/><rect class="cls-1" x="98.08" y="210.84" width="7.48" height="7.48"/><rect class="cls-1" x="98.08" y="203.36" width="7.48" height="7.48"/><rect class="cls-1" x="90.59" y="218.33" width="7.48" height="7.49"/><rect class="cls-1" x="90.59" y="210.84" width="7.48" height="7.48"/><rect class="cls-1" x="90.59" y="203.36" width="7.48" height="7.48"/><rect class="cls-1" x="90.59" y="195.87" width="7.48" height="7.49"/><rect class="cls-1" x="83.1" y="225.82" width="7.49" height="7.48"/><rect class="cls-1" x="83.1" y="218.33" width="7.49" height="7.49"/><rect class="cls-1" x="83.1" y="210.84" width="7.49" height="7.48"/><rect class="cls-1" x="83.1" y="203.36" width="7.49" height="7.48"/><rect class="cls-1" x="83.1" y="195.87" width="7.49" height="7.49"/><rect class="cls-1" x="75.62" y="225.82" width="7.48" height="7.48"/><rect class="cls-1" x="75.62" y="218.33" width="7.48" height="7.49"/><rect class="cls-1" x="75.62" y="210.84" width="7.48" height="7.48"/><rect class="cls-1" x="75.62" y="203.36" width="7.48" height="7.48"/><rect class="cls-1" x="75.62" y="195.87" width="7.48" height="7.49"/><rect class="cls-1" x="68.13" y="218.33" width="7.48" height="7.49"/><rect class="cls-1" x="68.13" y="210.84" width="7.48" height="7.48"/><rect class="cls-1" x="68.13" y="203.36" width="7.48" height="7.48"/><rect class="cls-1" x="68.13" y="195.87" width="7.48" height="7.49"/><rect class="cls-1" x="60.64" y="218.33" width="7.49" height="7.49"/><rect class="cls-1" x="60.64" y="210.84" width="7.49" height="7.48"/><rect class="cls-1" x="60.64" y="203.36" width="7.49" height="7.48"/><rect class="cls-1" x="53.16" y="210.84" width="7.48" height="7.48"/><rect class="cls-2" x="378.83" y="258.94" width="7.48" height="7.48"/><rect class="cls-1" x="371.34" y="266.42" width="7.48" height="7.49"/><rect class="cls-1" x="371.34" y="258.94" width="7.48" height="7.48"/><rect class="cls-2" x="371.34" y="251.46" width="7.48" height="7.48"/><rect class="cls-1" x="363.85" y="266.42" width="7.49" height="7.49"/><rect class="cls-1" x="363.85" y="258.94" width="7.49" height="7.48"/><rect class="cls-2" x="363.85" y="251.46" width="7.49" height="7.48"/><rect class="cls-2" x="363.85" y="243.97" width="7.49" height="7.49"/><rect class="cls-1" x="356.37" y="273.92" width="7.48" height="7.48"/><rect class="cls-1" x="356.37" y="266.42" width="7.48" height="7.49"/><rect class="cls-1" x="356.37" y="258.94" width="7.48" height="7.48"/><rect class="cls-1" x="356.37" y="251.46" width="7.48" height="7.48"/><rect class="cls-2" x="356.37" y="243.97" width="7.48" height="7.49"/><rect class="cls-1" x="348.88" y="273.92" width="7.49" height="7.48"/><rect class="cls-1" x="348.88" y="266.42" width="7.49" height="7.49"/><rect class="cls-1" x="348.88" y="258.94" width="7.49" height="7.48"/><rect class="cls-1" x="348.88" y="251.46" width="7.49" height="7.48"/><rect class="cls-1" x="341.39" y="273.92" width="7.48" height="7.48"/><rect class="cls-1" x="341.39" y="266.42" width="7.48" height="7.49"/><rect class="cls-1" x="341.39" y="258.94" width="7.48" height="7.48"/><rect class="cls-1" x="341.39" y="251.46" width="7.48" height="7.48"/><rect class="cls-1" x="333.91" y="266.42" width="7.48" height="7.49"/><rect class="cls-1" x="333.91" y="258.94" width="7.48" height="7.48"/><rect class="cls-1" x="333.91" y="251.46" width="7.48" height="7.48"/><rect class="cls-1" x="333.91" y="243.97" width="7.48" height="7.49"/><rect class="cls-1" x="326.42" y="273.92" width="7.49" height="7.48"/><rect class="cls-1" x="326.42" y="266.42" width="7.49" height="7.49"/><rect class="cls-1" x="326.42" y="258.94" width="7.49" height="7.48"/><rect class="cls-1" x="326.42" y="251.46" width="7.49" height="7.48"/><rect class="cls-1" x="326.42" y="243.97" width="7.49" height="7.49"/><rect class="cls-1" x="318.94" y="273.92" width="7.48" height="7.48"/><rect class="cls-1" x="318.94" y="266.42" width="7.48" height="7.49"/><rect class="cls-1" x="318.94" y="258.94" width="7.48" height="7.48"/><rect class="cls-1" x="318.94" y="251.46" width="7.48" height="7.48"/><rect class="cls-1" x="318.94" y="243.97" width="7.48" height="7.49"/><rect class="cls-1" x="311.45" y="266.42" width="7.48" height="7.49"/><rect class="cls-1" x="311.45" y="258.94" width="7.48" height="7.48"/><rect class="cls-1" x="311.45" y="251.46" width="7.48" height="7.48"/><rect class="cls-1" x="311.45" y="243.97" width="7.48" height="7.49"/><rect class="cls-1" x="303.96" y="266.42" width="7.49" height="7.49"/><rect class="cls-1" x="303.96" y="258.94" width="7.49" height="7.48"/><rect class="cls-1" x="303.96" y="251.46" width="7.49" height="7.48"/><rect class="cls-1" x="296.48" y="258.94" width="7.48" height="7.48"/></svg>