<svg id="Layer_1" data-name="Layer 1" xmlns="http://www.w3.org/2000/svg" viewBox="0 0 262.98 61.9"><defs><style>.cls-1{fill:#87cfe7;}.cls-2{fill:#cfecf2;}</style></defs><rect class="cls-1" x="248.26" y="14.71" width="4.91" height="4.9"/><rect class="cls-1" x="243.36" y="14.71" width="4.9" height="4.9"/><rect class="cls-2" x="253.17" width="4.9" height="4.9"/><rect class="cls-2" x="258.08" y="9.81" width="4.91" height="4.9"/><rect class="cls-1" x="238.46" y="4.9" width="4.9" height="4.91"/><rect class="cls-2" x="238.46" width="4.9" height="4.9"/><rect class="cls-1" x="233.55" y="4.9" width="4.91" height="4.91"/><rect class="cls-1" x="233.55" y="9.81" width="4.91" height="4.9"/><rect class="cls-1" x="238.46" y="9.81" width="4.9" height="4.9"/><rect class="cls-2" x="228.65" y="9.81" width="4.9" height="4.9"/><rect class="cls-1" x="248.26" y="4.9" width="4.91" height="4.91"/><rect class="cls-2" x="248.26" width="4.91" height="4.9"/><rect class="cls-1" x="243.36" y="4.9" width="4.9" height="4.91"/><rect class="cls-1" x="248.26" y="9.81" width="4.91" height="4.9"/><rect class="cls-2" x="253.17" y="4.9" width="4.9" height="4.91"/><rect class="cls-1" x="253.17" y="14.71" width="4.9" height="4.9"/><rect class="cls-1" x="253.17" y="9.81" width="4.9" height="4.9"/><rect class="cls-2" x="243.36" width="4.9" height="4.9"/><rect class="cls-1" x="243.36" y="9.81" width="4.9" height="4.9"/><rect class="cls-2" x="88.29" y="42.27" width="4.9" height="4.91"/><rect class="cls-2" x="93.19" y="42.27" width="4.9" height="4.91"/><rect class="cls-2" x="98.1" y="47.18" width="4.91" height="4.9"/><rect class="cls-1" x="88.29" y="47.18" width="4.9" height="4.9"/><rect class="cls-1" x="88.29" y="52.08" width="4.9" height="4.9"/><rect class="cls-2" x="93.19" y="47.18" width="4.9" height="4.9"/><rect class="cls-1" x="98.1" y="52.08" width="4.91" height="4.9"/><rect class="cls-1" x="93.19" y="52.08" width="4.9" height="4.9"/><rect class="cls-1" x="98.1" y="56.99" width="4.91" height="4.91"/><rect class="cls-1" x="83.38" y="52.08" width="4.91" height="4.9"/><rect class="cls-1" x="83.38" y="56.99" width="4.91" height="4.91"/><rect class="cls-1" x="73.57" y="47.18" width="4.91" height="4.9"/><rect class="cls-1" x="73.57" y="52.08" width="4.91" height="4.9"/><rect class="cls-1" x="68.67" y="52.08" width="4.9" height="4.9"/><rect class="cls-1" x="68.67" y="47.18" width="4.9" height="4.9"/><rect class="cls-1" x="78.48" y="56.99" width="4.9" height="4.91"/><rect class="cls-1" x="78.48" y="52.08" width="4.9" height="4.9"/><rect class="cls-2" x="83.38" y="42.27" width="4.91" height="4.91"/><rect class="cls-2" x="83.38" y="47.18" width="4.91" height="4.9"/><rect class="cls-2" x="73.57" y="42.27" width="4.91" height="4.91"/><rect class="cls-2" x="78.48" y="47.18" width="4.9" height="4.9"/><rect class="cls-2" x="78.48" y="42.27" width="4.9" height="4.91"/><rect class="cls-2" x="53.95" y="10.76" width="4.9" height="4.9"/><rect class="cls-1" x="49.05" y="15.66" width="4.9" height="4.91"/><rect class="cls-1" x="49.05" y="10.76" width="4.9" height="4.9"/><rect class="cls-2" x="49.05" y="5.86" width="4.9" height="4.9"/><rect class="cls-1" x="44.14" y="15.66" width="4.91" height="4.91"/><rect class="cls-1" x="44.14" y="10.76" width="4.91" height="4.9"/><rect class="cls-2" x="44.14" y="5.86" width="4.91" height="4.9"/><rect class="cls-2" x="44.14" y="0.95" width="4.91" height="4.91"/><rect class="cls-1" x="39.24" y="20.57" width="4.9" height="4.9"/><rect class="cls-1" x="39.24" y="15.66" width="4.9" height="4.91"/><rect class="cls-1" x="39.24" y="10.76" width="4.9" height="4.9"/><rect class="cls-1" x="39.24" y="5.86" width="4.9" height="4.9"/><rect class="cls-2" x="39.24" y="0.95" width="4.9" height="4.91"/><rect class="cls-1" x="34.33" y="20.57" width="4.91" height="4.9"/><rect class="cls-1" x="34.33" y="15.66" width="4.91" height="4.91"/><rect class="cls-1" x="34.33" y="10.76" width="4.91" height="4.9"/><rect class="cls-1" x="34.33" y="5.86" width="4.91" height="4.9"/><rect class="cls-1" x="29.43" y="20.57" width="4.9" height="4.9"/><rect class="cls-1" x="29.43" y="15.66" width="4.9" height="4.91"/><rect class="cls-1" x="29.43" y="10.76" width="4.9" height="4.9"/><rect class="cls-1" x="29.43" y="5.86" width="4.9" height="4.9"/><rect class="cls-1" x="24.53" y="15.66" width="4.9" height="4.91"/><rect class="cls-1" x="24.53" y="10.76" width="4.9" height="4.9"/><rect class="cls-1" x="24.53" y="5.86" width="4.9" height="4.9"/><rect class="cls-1" x="24.53" y="0.95" width="4.9" height="4.91"/><rect class="cls-1" x="19.62" y="20.57" width="4.91" height="4.9"/><rect class="cls-1" x="19.62" y="15.66" width="4.91" height="4.91"/><rect class="cls-1" x="19.62" y="10.76" width="4.91" height="4.9"/><rect class="cls-1" x="19.62" y="5.86" width="4.91" height="4.9"/><rect class="cls-1" x="19.62" y="0.95" width="4.91" height="4.91"/><rect class="cls-1" x="14.71" y="20.57" width="4.9" height="4.9"/><rect class="cls-1" x="14.71" y="15.66" width="4.9" height="4.91"/><rect class="cls-1" x="14.71" y="10.76" width="4.9" height="4.9"/><rect class="cls-1" x="14.71" y="5.86" width="4.9" height="4.9"/><rect class="cls-1" x="14.71" y="0.95" width="4.9" height="4.91"/><rect class="cls-1" x="9.81" y="15.66" width="4.9" height="4.91"/><rect class="cls-1" x="9.81" y="10.76" width="4.9" height="4.9"/><rect class="cls-1" x="9.81" y="5.86" width="4.9" height="4.9"/><rect class="cls-1" x="9.81" y="0.95" width="4.9" height="4.91"/><rect class="cls-1" x="4.9" y="15.66" width="4.91" height="4.91"/><rect class="cls-1" x="4.9" y="10.76" width="4.91" height="4.9"/><rect class="cls-1" x="4.9" y="5.86" width="4.91" height="4.9"/><rect class="cls-1" y="10.76" width="4.9" height="4.9"/><rect class="cls-2" x="213.37" y="42.27" width="4.9" height="4.9"/><rect class="cls-1" x="208.47" y="47.18" width="4.9" height="4.91"/><rect class="cls-1" x="208.47" y="42.27" width="4.9" height="4.9"/><rect class="cls-2" x="208.47" y="37.37" width="4.9" height="4.9"/><rect class="cls-1" x="203.56" y="47.18" width="4.91" height="4.91"/><rect class="cls-1" x="203.56" y="42.27" width="4.91" height="4.9"/><rect class="cls-2" x="203.56" y="37.37" width="4.91" height="4.9"/><rect class="cls-2" x="203.56" y="32.46" width="4.91" height="4.91"/><rect class="cls-1" x="198.66" y="52.08" width="4.9" height="4.9"/><rect class="cls-1" x="198.66" y="47.18" width="4.9" height="4.91"/><rect class="cls-1" x="198.66" y="42.27" width="4.9" height="4.9"/><rect class="cls-1" x="198.66" y="37.37" width="4.9" height="4.9"/><rect class="cls-2" x="198.66" y="32.46" width="4.9" height="4.91"/><rect class="cls-1" x="193.75" y="52.08" width="4.91" height="4.9"/><rect class="cls-1" x="193.75" y="47.18" width="4.91" height="4.91"/><rect class="cls-1" x="193.75" y="42.27" width="4.91" height="4.9"/><rect class="cls-1" x="193.75" y="37.37" width="4.91" height="4.9"/><rect class="cls-1" x="188.85" y="52.08" width="4.9" height="4.9"/><rect class="cls-1" x="188.85" y="47.18" width="4.9" height="4.91"/><rect class="cls-1" x="188.85" y="42.27" width="4.9" height="4.9"/><rect class="cls-1" x="188.85" y="37.37" width="4.9" height="4.9"/><rect class="cls-1" x="183.94" y="47.18" width="4.9" height="4.91"/><rect class="cls-1" x="183.94" y="42.27" width="4.9" height="4.9"/><rect class="cls-1" x="183.94" y="37.37" width="4.9" height="4.9"/><rect class="cls-1" x="183.94" y="32.46" width="4.9" height="4.91"/><rect class="cls-1" x="179.03" y="52.08" width="4.91" height="4.9"/><rect class="cls-1" x="179.03" y="47.18" width="4.91" height="4.91"/><rect class="cls-1" x="179.03" y="42.27" width="4.91" height="4.9"/><rect class="cls-1" x="179.03" y="37.37" width="4.91" height="4.9"/><rect class="cls-1" x="179.03" y="32.46" width="4.91" height="4.91"/><rect class="cls-1" x="174.13" y="52.08" width="4.9" height="4.9"/><rect class="cls-1" x="174.13" y="47.18" width="4.9" height="4.91"/><rect class="cls-1" x="174.13" y="42.27" width="4.9" height="4.9"/><rect class="cls-1" x="174.13" y="37.37" width="4.9" height="4.9"/><rect class="cls-1" x="174.13" y="32.46" width="4.9" height="4.91"/><rect class="cls-1" x="169.23" y="47.18" width="4.9" height="4.91"/><rect class="cls-1" x="169.23" y="42.27" width="4.9" height="4.9"/><rect class="cls-1" x="169.23" y="37.37" width="4.9" height="4.9"/><rect class="cls-1" x="169.23" y="32.46" width="4.9" height="4.91"/><rect class="cls-1" x="164.32" y="47.18" width="4.91" height="4.91"/><rect class="cls-1" x="164.32" y="42.27" width="4.91" height="4.9"/><rect class="cls-1" x="164.32" y="37.37" width="4.91" height="4.9"/><rect class="cls-1" x="159.42" y="42.27" width="4.9" height="4.9"/></svg>