<svg id="Layer_1" data-name="Layer 1" xmlns="http://www.w3.org/2000/svg" viewBox="0 0 500 500"><defs><style>.cls-1{fill:#f2f2f3;}.cls-2{fill:#e1f0f2;}.cls-3{fill:#b4d9e2;}.cls-4{fill:#9fb7ba;}.cls-5{fill:#f4f4f5;}</style></defs><rect class="cls-1" x="281.8" y="278.06" width="3.74" height="3.74"/><rect class="cls-1" x="281.8" y="274.32" width="3.74" height="3.74"/><rect class="cls-1" x="281.8" y="270.58" width="3.74" height="3.74"/><rect class="cls-1" x="281.8" y="266.84" width="3.74" height="3.74"/><rect class="cls-2" x="281.8" y="263.09" width="3.74" height="3.74"/><rect class="cls-2" x="281.8" y="259.35" width="3.74" height="3.74"/><rect class="cls-2" x="281.8" y="255.61" width="3.74" height="3.74"/><rect class="cls-2" x="281.8" y="251.87" width="3.74" height="3.74"/><rect class="cls-1" x="278.06" y="281.8" width="3.74" height="3.74"/><rect class="cls-1" x="278.06" y="278.06" width="3.74" height="3.74"/><rect class="cls-1" x="278.06" y="274.32" width="3.74" height="3.74"/><rect class="cls-1" x="278.06" y="270.58" width="3.74" height="3.74"/><rect class="cls-1" x="278.06" y="266.84" width="3.74" height="3.74"/><rect class="cls-2" x="278.06" y="263.09" width="3.74" height="3.74"/><rect class="cls-2" x="278.06" y="259.35" width="3.74" height="3.74"/><rect class="cls-2" x="278.06" y="255.61" width="3.74" height="3.74"/><rect class="cls-2" x="278.06" y="251.87" width="3.74" height="3.74"/><rect class="cls-2" x="278.06" y="248.13" width="3.74" height="3.74"/><rect class="cls-3" x="278.06" y="244.39" width="3.74" height="3.74"/><rect class="cls-1" x="274.32" y="285.55" width="3.74" height="3.74"/><rect class="cls-1" x="274.32" y="281.8" width="3.74" height="3.74"/><rect class="cls-1" x="274.32" y="278.06" width="3.74" height="3.74"/><rect class="cls-1" x="274.32" y="274.32" width="3.74" height="3.74"/><rect class="cls-1" x="274.32" y="270.58" width="3.74" height="3.74"/><rect class="cls-1" x="274.32" y="266.84" width="3.74" height="3.74"/><rect class="cls-2" x="274.32" y="263.09" width="3.74" height="3.74"/><rect class="cls-2" x="274.32" y="259.35" width="3.74" height="3.74"/><rect class="cls-2" x="274.32" y="255.61" width="3.74" height="3.74"/><rect class="cls-2" x="274.32" y="251.87" width="3.74" height="3.74"/><rect class="cls-2" x="274.32" y="248.13" width="3.74" height="3.74"/><rect class="cls-3" x="274.32" y="244.39" width="3.74" height="3.74"/><rect class="cls-3" x="274.32" y="240.65" width="3.74" height="3.74"/><rect class="cls-1" x="270.58" y="289.29" width="3.74" height="3.74"/><rect class="cls-1" x="270.58" y="285.55" width="3.74" height="3.74"/><rect class="cls-1" x="270.58" y="281.8" width="3.74" height="3.74"/><rect class="cls-1" x="270.58" y="278.06" width="3.74" height="3.74"/><rect class="cls-1" x="270.58" y="274.32" width="3.74" height="3.74"/><rect class="cls-1" x="270.58" y="270.58" width="3.74" height="3.74"/><rect class="cls-2" x="270.58" y="266.84" width="3.74" height="3.74"/><rect class="cls-2" x="270.58" y="263.09" width="3.74" height="3.74"/><rect class="cls-2" x="270.58" y="259.35" width="3.74" height="3.74"/><rect class="cls-2" x="270.58" y="255.61" width="3.74" height="3.74"/><rect class="cls-2" x="270.58" y="251.87" width="3.74" height="3.74"/><rect class="cls-2" x="270.58" y="248.13" width="3.74" height="3.74"/><rect class="cls-3" x="270.58" y="244.39" width="3.74" height="3.74"/><rect class="cls-3" x="270.58" y="240.65" width="3.74" height="3.74"/><rect class="cls-3" x="270.58" y="236.91" width="3.74" height="3.74"/><rect class="cls-3" x="270.58" y="233.16" width="3.74" height="3.74"/><rect class="cls-1" x="266.84" y="293.03" width="3.74" height="3.74"/><rect class="cls-1" x="266.84" y="289.29" width="3.74" height="3.74"/><rect class="cls-1" x="266.84" y="285.55" width="3.74" height="3.74"/><rect class="cls-1" x="266.84" y="281.8" width="3.74" height="3.74"/><rect class="cls-1" x="266.84" y="278.06" width="3.74" height="3.74"/><rect class="cls-1" x="266.84" y="274.32" width="3.74" height="3.74"/><rect class="cls-2" x="266.84" y="270.58" width="3.74" height="3.74"/><rect class="cls-2" x="266.84" y="266.84" width="3.74" height="3.74"/><rect class="cls-2" x="266.84" y="263.09" width="3.74" height="3.74"/><rect class="cls-2" x="266.84" y="259.35" width="3.74" height="3.74"/><rect class="cls-2" x="266.84" y="255.61" width="3.74" height="3.74"/><rect class="cls-2" x="266.84" y="251.87" width="3.74" height="3.74"/><rect class="cls-2" x="266.84" y="248.13" width="3.74" height="3.74"/><rect class="cls-3" x="266.84" y="244.39" width="3.74" height="3.74"/><rect class="cls-3" x="266.84" y="240.65" width="3.74" height="3.74"/><rect class="cls-3" x="266.84" y="236.91" width="3.74" height="3.74"/><rect class="cls-3" x="266.84" y="233.16" width="3.74" height="3.74"/><rect class="cls-3" x="266.84" y="229.42" width="3.74" height="3.74"/><rect class="cls-3" x="266.84" y="225.68" width="3.74" height="3.74"/><rect class="cls-1" x="263.09" y="293.03" width="3.74" height="3.74"/><rect class="cls-1" x="263.09" y="289.29" width="3.74" height="3.74"/><rect class="cls-1" x="263.09" y="285.55" width="3.74" height="3.74"/><rect class="cls-1" x="263.09" y="281.8" width="3.74" height="3.74"/><rect class="cls-1" x="263.09" y="278.06" width="3.74" height="3.74"/><rect class="cls-1" x="263.09" y="274.32" width="3.74" height="3.74"/><rect class="cls-2" x="263.09" y="270.58" width="3.74" height="3.74"/><rect class="cls-2" x="263.09" y="266.84" width="3.74" height="3.74"/><rect class="cls-2" x="263.09" y="263.09" width="3.74" height="3.74"/><rect class="cls-2" x="263.09" y="259.35" width="3.74" height="3.74"/><rect class="cls-2" x="263.09" y="255.61" width="3.74" height="3.74"/><rect class="cls-2" x="263.09" y="251.87" width="3.74" height="3.74"/><rect class="cls-2" x="263.09" y="248.13" width="3.74" height="3.74"/><rect class="cls-3" x="263.09" y="244.39" width="3.74" height="3.74"/><rect class="cls-3" x="263.09" y="240.65" width="3.74" height="3.74"/><rect class="cls-3" x="263.09" y="236.91" width="3.74" height="3.74"/><rect class="cls-3" x="263.09" y="233.16" width="3.74" height="3.74"/><rect class="cls-3" x="263.09" y="229.42" width="3.74" height="3.74"/><rect class="cls-3" x="263.09" y="225.68" width="3.74" height="3.74"/><rect class="cls-3" x="263.09" y="221.94" width="3.74" height="3.74"/><rect class="cls-1" x="259.35" y="296.77" width="3.74" height="3.74"/><rect class="cls-1" x="259.35" y="293.03" width="3.74" height="3.74"/><rect class="cls-1" x="259.35" y="289.29" width="3.74" height="3.74"/><rect class="cls-1" x="259.35" y="285.55" width="3.74" height="3.74"/><rect class="cls-1" x="259.35" y="281.8" width="3.74" height="3.74"/><rect class="cls-1" x="259.35" y="278.06" width="3.74" height="3.74"/><rect class="cls-2" x="259.35" y="274.32" width="3.74" height="3.74"/><rect class="cls-2" x="259.35" y="270.58" width="3.74" height="3.74"/><rect class="cls-2" x="259.35" y="266.84" width="3.74" height="3.74"/><rect class="cls-2" x="259.35" y="263.09" width="3.74" height="3.74"/><rect class="cls-2" x="259.35" y="259.35" width="3.74" height="3.74"/><rect class="cls-2" x="259.35" y="255.61" width="3.74" height="3.74"/><rect class="cls-2" x="259.35" y="251.87" width="3.74" height="3.74"/><rect class="cls-3" x="259.35" y="248.13" width="3.74" height="3.74"/><rect class="cls-3" x="259.35" y="244.39" width="3.74" height="3.74"/><rect class="cls-3" x="259.35" y="240.65" width="3.74" height="3.74"/><rect class="cls-3" x="259.35" y="236.91" width="3.74" height="3.74"/><rect class="cls-3" x="259.35" y="233.16" width="3.74" height="3.74"/><rect class="cls-3" x="259.35" y="229.42" width="3.74" height="3.74"/><rect class="cls-3" x="259.35" y="225.68" width="3.74" height="3.74"/><rect class="cls-3" x="259.35" y="221.94" width="3.74" height="3.74"/><rect class="cls-3" x="259.35" y="218.2" width="3.74" height="3.74"/><rect class="cls-3" x="259.35" y="214.45" width="3.74" height="3.74"/><rect class="cls-1" x="255.61" y="296.77" width="3.74" height="3.74"/><rect class="cls-1" x="255.61" y="293.03" width="3.74" height="3.74"/><rect class="cls-1" x="255.61" y="289.29" width="3.74" height="3.74"/><rect class="cls-1" x="255.61" y="285.55" width="3.74" height="3.74"/><rect class="cls-1" x="255.61" y="281.8" width="3.74" height="3.74"/><rect class="cls-2" x="255.61" y="278.06" width="3.74" height="3.74"/><rect class="cls-2" x="255.61" y="274.32" width="3.74" height="3.74"/><rect class="cls-2" x="255.61" y="270.58" width="3.74" height="3.74"/><rect class="cls-2" x="255.61" y="266.84" width="3.74" height="3.74"/><rect class="cls-2" x="255.61" y="263.09" width="3.74" height="3.74"/><rect class="cls-2" x="255.61" y="259.35" width="3.74" height="3.74"/><rect class="cls-2" x="255.61" y="255.61" width="3.74" height="3.74"/><rect class="cls-3" x="255.61" y="251.87" width="3.74" height="3.74"/><rect class="cls-3" x="255.61" y="248.13" width="3.74" height="3.74"/><rect class="cls-3" x="255.61" y="244.39" width="3.74" height="3.74"/><rect class="cls-3" x="255.61" y="240.65" width="3.74" height="3.74"/><rect class="cls-3" x="255.61" y="236.91" width="3.74" height="3.74"/><rect class="cls-3" x="255.61" y="233.16" width="3.74" height="3.74"/><rect class="cls-3" x="255.61" y="229.42" width="3.74" height="3.74"/><rect class="cls-3" x="255.61" y="225.68" width="3.74" height="3.74"/><rect class="cls-3" x="255.61" y="221.94" width="3.74" height="3.74"/><rect class="cls-3" x="255.61" y="218.2" width="3.74" height="3.74"/><rect class="cls-3" x="255.61" y="214.45" width="3.74" height="3.74"/><rect class="cls-3" x="255.61" y="210.71" width="3.74" height="3.74"/><rect class="cls-3" x="255.61" y="206.97" width="3.74" height="3.74"/><rect class="cls-1" x="251.87" y="296.77" width="3.74" height="3.74"/><rect class="cls-1" x="251.87" y="293.03" width="3.74" height="3.74"/><rect class="cls-1" x="251.87" y="289.29" width="3.74" height="3.74"/><rect class="cls-1" x="251.87" y="285.55" width="3.74" height="3.74"/><rect class="cls-2" x="251.87" y="281.8" width="3.74" height="3.74"/><rect class="cls-2" x="251.87" y="278.06" width="3.74" height="3.74"/><rect class="cls-2" x="251.87" y="274.32" width="3.74" height="3.74"/><rect class="cls-2" x="251.87" y="270.58" width="3.74" height="3.74"/><rect class="cls-2" x="251.87" y="266.84" width="3.74" height="3.74"/><rect class="cls-2" x="251.87" y="263.09" width="3.74" height="3.74"/><rect class="cls-2" x="251.87" y="259.35" width="3.74" height="3.74"/><rect class="cls-2" x="251.87" y="255.61" width="3.74" height="3.74"/><rect class="cls-3" x="251.87" y="251.87" width="3.74" height="3.74"/><rect class="cls-3" x="251.87" y="248.13" width="3.74" height="3.74"/><rect class="cls-3" x="251.87" y="244.39" width="3.74" height="3.74"/><rect class="cls-3" x="251.87" y="240.65" width="3.74" height="3.74"/><rect class="cls-3" x="251.87" y="236.91" width="3.74" height="3.74"/><rect class="cls-3" x="251.87" y="233.16" width="3.74" height="3.74"/><rect class="cls-3" x="251.87" y="229.42" width="3.74" height="3.74"/><rect class="cls-3" x="251.87" y="225.68" width="3.74" height="3.74"/><rect class="cls-3" x="251.87" y="221.94" width="3.74" height="3.74"/><rect class="cls-3" x="251.87" y="218.2" width="3.74" height="3.74"/><rect class="cls-3" x="251.87" y="214.45" width="3.74" height="3.74"/><rect class="cls-3" x="251.87" y="210.71" width="3.74" height="3.74"/><rect class="cls-4" x="251.87" y="206.97" width="3.74" height="3.74"/><rect class="cls-4" x="251.87" y="203.23" width="3.74" height="3.74"/><rect class="cls-1" x="248.13" y="296.77" width="3.74" height="3.74"/><rect class="cls-1" x="248.13" y="293.03" width="3.74" height="3.74"/><rect class="cls-1" x="248.13" y="289.29" width="3.74" height="3.74"/><rect class="cls-2" x="248.13" y="285.55" width="3.74" height="3.74"/><rect class="cls-2" x="248.13" y="281.8" width="3.74" height="3.74"/><rect class="cls-2" x="248.13" y="278.06" width="3.74" height="3.74"/><rect class="cls-2" x="248.13" y="274.32" width="3.74" height="3.74"/><rect class="cls-2" x="248.13" y="270.58" width="3.74" height="3.74"/><rect class="cls-2" x="248.13" y="266.84" width="3.74" height="3.74"/><rect class="cls-2" x="248.13" y="263.09" width="3.74" height="3.74"/><rect class="cls-2" x="248.13" y="259.35" width="3.74" height="3.74"/><rect class="cls-3" x="248.13" y="255.61" width="3.74" height="3.74"/><rect class="cls-3" x="248.13" y="251.87" width="3.74" height="3.74"/><rect class="cls-3" x="248.13" y="248.13" width="3.74" height="3.74"/><rect class="cls-3" x="248.13" y="244.39" width="3.74" height="3.74"/><rect class="cls-3" x="248.13" y="240.65" width="3.74" height="3.74"/><rect class="cls-3" x="248.13" y="236.91" width="3.74" height="3.74"/><rect class="cls-3" x="248.13" y="233.16" width="3.74" height="3.74"/><rect class="cls-3" x="248.13" y="229.42" width="3.74" height="3.74"/><rect class="cls-3" x="248.13" y="225.68" width="3.74" height="3.74"/><rect class="cls-3" x="248.13" y="221.94" width="3.74" height="3.74"/><rect class="cls-3" x="248.13" y="218.2" width="3.74" height="3.74"/><rect class="cls-3" x="248.13" y="214.45" width="3.74" height="3.74"/><rect class="cls-4" x="248.13" y="210.71" width="3.74" height="3.74"/><rect class="cls-4" x="248.13" y="206.97" width="3.74" height="3.74"/><rect class="cls-4" x="248.13" y="203.23" width="3.74" height="3.74"/><rect class="cls-4" x="248.13" y="199.49" width="3.74" height="3.74"/><rect class="cls-1" x="244.39" y="296.77" width="3.74" height="3.74"/><rect class="cls-1" x="244.39" y="293.03" width="3.74" height="3.74"/><rect class="cls-2" x="244.39" y="289.29" width="3.74" height="3.74"/><rect class="cls-2" x="244.39" y="285.55" width="3.74" height="3.74"/><rect class="cls-2" x="244.39" y="281.8" width="3.74" height="3.74"/><rect class="cls-2" x="244.39" y="278.06" width="3.74" height="3.74"/><rect class="cls-2" x="244.39" y="274.32" width="3.74" height="3.74"/><rect class="cls-2" x="244.39" y="270.58" width="3.74" height="3.74"/><rect class="cls-2" x="244.39" y="266.84" width="3.74" height="3.74"/><rect class="cls-2" x="244.39" y="263.09" width="3.74" height="3.74"/><rect class="cls-3" x="244.39" y="259.35" width="3.74" height="3.74"/><rect class="cls-3" x="244.39" y="255.61" width="3.74" height="3.74"/><rect class="cls-3" x="244.39" y="251.87" width="3.74" height="3.74"/><rect class="cls-3" x="244.39" y="248.13" width="3.74" height="3.74"/><rect class="cls-3" x="244.39" y="244.39" width="3.74" height="3.74"/><rect class="cls-3" x="244.39" y="240.65" width="3.74" height="3.74"/><rect class="cls-3" x="244.39" y="236.91" width="3.74" height="3.74"/><rect class="cls-3" x="244.39" y="233.16" width="3.74" height="3.74"/><rect class="cls-3" x="244.39" y="229.42" width="3.74" height="3.74"/><rect class="cls-3" x="244.39" y="225.68" width="3.74" height="3.74"/><rect class="cls-3" x="244.39" y="221.94" width="3.74" height="3.74"/><rect class="cls-3" x="244.39" y="218.2" width="3.74" height="3.74"/><rect class="cls-3" x="244.39" y="214.45" width="3.74" height="3.74"/><rect class="cls-4" x="244.39" y="210.71" width="3.74" height="3.74"/><rect class="cls-4" x="244.39" y="206.97" width="3.74" height="3.74"/><rect class="cls-4" x="244.39" y="203.23" width="3.74" height="3.74"/><rect class="cls-1" x="240.65" y="296.77" width="3.74" height="3.74"/><rect class="cls-2" x="240.65" y="293.03" width="3.74" height="3.74"/><rect class="cls-2" x="240.65" y="289.29" width="3.74" height="3.74"/><rect class="cls-2" x="240.65" y="285.55" width="3.74" height="3.74"/><rect class="cls-2" x="240.65" y="281.8" width="3.74" height="3.74"/><rect class="cls-2" x="240.65" y="278.06" width="3.74" height="3.74"/><rect class="cls-2" x="240.65" y="274.32" width="3.74" height="3.74"/><rect class="cls-2" x="240.65" y="270.58" width="3.74" height="3.74"/><rect class="cls-2" x="240.65" y="266.84" width="3.74" height="3.74"/><rect class="cls-3" x="240.65" y="263.09" width="3.74" height="3.74"/><rect class="cls-3" x="240.65" y="259.35" width="3.74" height="3.74"/><rect class="cls-3" x="240.65" y="255.61" width="3.74" height="3.74"/><rect class="cls-3" x="240.65" y="251.87" width="3.74" height="3.74"/><rect class="cls-3" x="240.65" y="248.13" width="3.74" height="3.74"/><rect class="cls-3" x="240.65" y="244.39" width="3.74" height="3.74"/><rect class="cls-3" x="240.65" y="240.65" width="3.74" height="3.74"/><rect class="cls-3" x="240.65" y="236.91" width="3.74" height="3.74"/><rect class="cls-3" x="240.65" y="233.16" width="3.74" height="3.74"/><rect class="cls-3" x="240.65" y="229.42" width="3.74" height="3.74"/><rect class="cls-3" x="240.65" y="225.68" width="3.74" height="3.74"/><rect class="cls-3" x="240.65" y="221.94" width="3.74" height="3.74"/><rect class="cls-4" x="240.65" y="218.2" width="3.74" height="3.74"/><rect class="cls-4" x="240.65" y="214.45" width="3.74" height="3.74"/><rect class="cls-4" x="240.65" y="210.71" width="3.74" height="3.74"/><rect class="cls-4" x="240.65" y="206.97" width="3.74" height="3.74"/><rect class="cls-2" x="236.91" y="296.77" width="3.74" height="3.74"/><rect class="cls-2" x="236.91" y="293.03" width="3.74" height="3.74"/><rect class="cls-2" x="236.91" y="289.29" width="3.74" height="3.74"/><rect class="cls-2" x="236.91" y="285.55" width="3.74" height="3.74"/><rect class="cls-2" x="236.91" y="281.8" width="3.74" height="3.74"/><rect class="cls-2" x="236.91" y="278.06" width="3.74" height="3.74"/><rect class="cls-2" x="236.91" y="274.32" width="3.74" height="3.74"/><rect class="cls-2" x="236.91" y="270.58" width="3.74" height="3.74"/><rect class="cls-2" x="236.91" y="266.84" width="3.74" height="3.74"/><rect class="cls-3" x="236.91" y="263.09" width="3.74" height="3.74"/><rect class="cls-3" x="236.91" y="259.35" width="3.74" height="3.74"/><rect class="cls-3" x="236.91" y="255.61" width="3.74" height="3.74"/><rect class="cls-3" x="236.91" y="251.87" width="3.74" height="3.74"/><rect class="cls-3" x="236.91" y="248.13" width="3.74" height="3.74"/><rect class="cls-3" x="236.91" y="244.39" width="3.74" height="3.74"/><rect class="cls-3" x="236.91" y="240.65" width="3.74" height="3.74"/><rect class="cls-3" x="236.91" y="236.91" width="3.74" height="3.74"/><rect class="cls-3" x="236.91" y="233.16" width="3.74" height="3.74"/><rect class="cls-3" x="236.91" y="229.42" width="3.74" height="3.74"/><rect class="cls-3" x="236.91" y="225.68" width="3.74" height="3.74"/><rect class="cls-4" x="236.91" y="221.94" width="3.74" height="3.74"/><rect class="cls-4" x="236.91" y="218.2" width="3.74" height="3.74"/><rect class="cls-4" x="236.91" y="214.45" width="3.74" height="3.74"/><rect class="cls-2" x="233.16" y="296.77" width="3.74" height="3.74"/><rect class="cls-2" x="233.16" y="293.03" width="3.74" height="3.74"/><rect class="cls-2" x="233.16" y="289.29" width="3.74" height="3.74"/><rect class="cls-2" x="233.16" y="285.55" width="3.74" height="3.74"/><rect class="cls-2" x="233.16" y="281.8" width="3.74" height="3.74"/><rect class="cls-2" x="233.16" y="278.06" width="3.74" height="3.74"/><rect class="cls-2" x="233.16" y="274.32" width="3.74" height="3.74"/><rect class="cls-2" x="233.16" y="270.58" width="3.74" height="3.74"/><rect class="cls-3" x="233.16" y="266.84" width="3.74" height="3.74"/><rect class="cls-3" x="233.16" y="263.09" width="3.74" height="3.74"/><rect class="cls-3" x="233.16" y="259.35" width="3.74" height="3.74"/><rect class="cls-3" x="233.16" y="255.61" width="3.74" height="3.74"/><rect class="cls-3" x="233.16" y="251.87" width="3.74" height="3.74"/><rect class="cls-3" x="233.16" y="248.13" width="3.74" height="3.74"/><rect class="cls-3" x="233.16" y="244.39" width="3.74" height="3.74"/><rect class="cls-3" x="233.16" y="240.65" width="3.74" height="3.74"/><rect class="cls-3" x="233.16" y="236.91" width="3.74" height="3.74"/><rect class="cls-3" x="233.16" y="233.16" width="3.74" height="3.74"/><rect class="cls-3" x="233.16" y="229.42" width="3.74" height="3.74"/><rect class="cls-3" x="233.16" y="225.68" width="3.74" height="3.74"/><rect class="cls-4" x="233.16" y="221.94" width="3.74" height="3.74"/><rect class="cls-2" x="229.42" y="293.03" width="3.74" height="3.74"/><rect class="cls-2" x="229.42" y="289.29" width="3.74" height="3.74"/><rect class="cls-2" x="229.42" y="285.55" width="3.74" height="3.74"/><rect class="cls-2" x="229.42" y="281.8" width="3.74" height="3.74"/><rect class="cls-2" x="229.42" y="278.06" width="3.74" height="3.74"/><rect class="cls-2" x="229.42" y="274.32" width="3.74" height="3.74"/><rect class="cls-3" x="229.42" y="270.58" width="3.74" height="3.74"/><rect class="cls-3" x="229.42" y="266.84" width="3.74" height="3.74"/><rect class="cls-3" x="229.42" y="263.09" width="3.74" height="3.74"/><rect class="cls-3" x="229.42" y="259.35" width="3.74" height="3.74"/><rect class="cls-3" x="229.42" y="255.61" width="3.74" height="3.74"/><rect class="cls-3" x="229.42" y="251.87" width="3.74" height="3.74"/><rect class="cls-3" x="229.42" y="248.13" width="3.74" height="3.74"/><rect class="cls-3" x="229.42" y="244.39" width="3.74" height="3.74"/><rect class="cls-3" x="229.42" y="240.65" width="3.74" height="3.74"/><rect class="cls-5" x="229.42" y="236.91" width="3.74" height="3.74"/><rect class="cls-3" x="229.42" y="233.16" width="3.74" height="3.74"/><rect class="cls-3" x="229.42" y="229.42" width="3.74" height="3.74"/><rect class="cls-3" x="229.42" y="225.68" width="3.74" height="3.74"/><rect class="cls-2" x="225.68" y="289.29" width="3.74" height="3.74"/><rect class="cls-2" x="225.68" y="285.55" width="3.74" height="3.74"/><rect class="cls-2" x="225.68" y="281.8" width="3.74" height="3.74"/><rect class="cls-2" x="225.68" y="278.06" width="3.74" height="3.74"/><rect class="cls-3" x="225.68" y="274.32" width="3.74" height="3.74"/><rect class="cls-3" x="225.68" y="270.58" width="3.74" height="3.74"/><rect class="cls-3" x="225.68" y="266.84" width="3.74" height="3.74"/><rect class="cls-3" x="225.68" y="263.09" width="3.74" height="3.74"/><rect class="cls-3" x="225.68" y="259.35" width="3.74" height="3.74"/><rect class="cls-3" x="225.68" y="255.61" width="3.74" height="3.74"/><rect class="cls-3" x="225.68" y="251.87" width="3.74" height="3.74"/><rect class="cls-3" x="225.68" y="248.13" width="3.74" height="3.74"/><rect class="cls-3" x="225.68" y="244.39" width="3.74" height="3.74"/><rect class="cls-5" x="225.68" y="240.65" width="3.74" height="3.74"/><rect class="cls-3" x="225.68" y="236.91" width="3.74" height="3.74"/><rect class="cls-3" x="225.68" y="233.16" width="3.74" height="3.74"/><rect class="cls-2" x="221.94" y="285.55" width="3.74" height="3.74"/><rect class="cls-2" x="221.94" y="281.8" width="3.74" height="3.74"/><rect class="cls-3" x="221.94" y="278.06" width="3.74" height="3.74"/><rect class="cls-3" x="221.94" y="274.32" width="3.74" height="3.74"/><rect class="cls-3" x="221.94" y="270.58" width="3.74" height="3.74"/><rect class="cls-3" x="221.94" y="266.84" width="3.74" height="3.74"/><rect class="cls-3" x="221.94" y="263.09" width="3.74" height="3.74"/><rect class="cls-3" x="221.94" y="259.35" width="3.74" height="3.74"/><rect class="cls-3" x="221.94" y="255.61" width="3.74" height="3.74"/><rect class="cls-3" x="221.94" y="251.87" width="3.74" height="3.74"/><rect class="cls-3" x="221.94" y="248.13" width="3.74" height="3.74"/><rect class="cls-5" x="221.94" y="244.39" width="3.74" height="3.74"/><rect class="cls-3" x="221.94" y="240.65" width="3.74" height="3.74"/><rect class="cls-2" x="218.2" y="281.8" width="3.74" height="3.74"/><rect class="cls-3" x="218.2" y="278.06" width="3.74" height="3.74"/><rect class="cls-3" x="218.2" y="274.32" width="3.74" height="3.74"/><rect class="cls-3" x="218.2" y="270.58" width="3.74" height="3.74"/><rect class="cls-3" x="218.2" y="266.84" width="3.74" height="3.74"/><rect class="cls-3" x="218.2" y="263.09" width="3.74" height="3.74"/><rect class="cls-3" x="218.2" y="259.35" width="3.74" height="3.74"/><rect class="cls-3" x="218.2" y="255.61" width="3.74" height="3.74"/><rect class="cls-3" x="218.2" y="251.87" width="3.74" height="3.74"/><rect class="cls-3" x="218.2" y="248.13" width="3.74" height="3.74"/><rect class="cls-3" x="218.2" y="244.39" width="3.74" height="3.74"/><rect class="cls-3" x="214.45" y="274.32" width="3.74" height="3.74"/><rect class="cls-3" x="214.45" y="270.58" width="3.74" height="3.74"/><rect class="cls-3" x="214.45" y="266.84" width="3.74" height="3.74"/><rect class="cls-3" x="214.45" y="263.09" width="3.74" height="3.74"/><rect class="cls-3" x="214.45" y="259.35" width="3.74" height="3.74"/><rect class="cls-3" x="214.45" y="255.61" width="3.74" height="3.74"/><rect class="cls-3" x="214.45" y="251.87" width="3.74" height="3.74"/></svg>