<svg id="Layer_1" data-name="Layer 1" xmlns="http://www.w3.org/2000/svg" viewBox="0 0 500 500"><defs><style>.cls-1{fill:#e5d297;}.cls-2{fill:#3e7ec1;}.cls-3{fill:#1b5d8d;}.cls-4{fill:#f3df1c;}.cls-5{fill:#1b1a1c;}.cls-6{fill:#e2203e;}.cls-7{fill:#e2c570;}.cls-8{fill:#444545;}</style></defs><rect class="cls-1" x="395.75" y="195.43" width="9.81" height="9.81" transform="translate(122.66 551.58) rotate(-78.21)"/><rect class="cls-1" x="397.76" y="185.83" width="9.8" height="9.81" transform="translate(133.65 545.91) rotate(-78.21)"/><rect class="cls-2" x="384.15" y="203.02" width="9.8" height="9.8" transform="translate(106 546.27) rotate(-78.21)"/><rect class="cls-2" x="386.15" y="193.43" width="9.81" height="9.8" transform="translate(116.99 540.59) rotate(-78.21)"/><rect class="cls-1" x="388.16" y="183.83" width="9.8" height="9.8" transform="matrix(0.2, -0.98, 0.98, 0.2, 127.98, 534.92)"/><rect class="cls-2" x="374.55" y="201.02" width="9.8" height="9.81" transform="translate(100.32 535.28) rotate(-78.21)"/><rect class="cls-2" x="376.55" y="191.42" width="9.81" height="9.81" transform="translate(111.31 529.6) rotate(-78.21)"/><rect class="cls-2" x="362.95" y="208.61" width="9.81" height="9.8" transform="translate(83.66 529.96) rotate(-78.21)"/><rect class="cls-2" x="364.96" y="199.02" width="9.8" height="9.8" transform="translate(94.65 524.29) rotate(-78.21)"/><rect class="cls-2" x="351.35" y="216.21" width="9.8" height="9.8" transform="translate(67 524.65) rotate(-78.21)"/><rect class="cls-2" x="353.35" y="206.61" width="9.81" height="9.8" transform="translate(77.99 518.98) rotate(-78.21)"/><rect class="cls-2" x="355.36" y="197.01" width="9.8" height="9.8" transform="translate(88.98 513.3) rotate(-78.21)"/><rect class="cls-2" x="341.76" y="214.2" width="9.8" height="9.81" transform="translate(61.32 513.66) rotate(-78.21)"/><rect class="cls-2" x="343.75" y="204.6" width="9.81" height="9.81" transform="translate(72.31 507.99) rotate(-78.21)"/><rect class="cls-2" x="330.15" y="221.79" width="9.8" height="9.8" transform="matrix(0.2, -0.98, 0.98, 0.2, 44.67, 508.34)"/><rect class="cls-2" x="332.16" y="212.2" width="9.8" height="9.8" transform="translate(55.65 502.67) rotate(-78.21)"/><rect class="cls-2" x="334.16" y="202.6" width="9.81" height="9.8" transform="translate(66.64 497) rotate(-78.21)"/><rect class="cls-3" x="310.54" y="267.77" width="9.8" height="9.81" transform="matrix(0.2, -0.98, 0.98, 0.2, -15.95, 525.72)"/><rect class="cls-3" x="312.54" y="258.18" width="9.8" height="9.81" transform="matrix(0.2, -0.98, 0.98, 0.2, -4.97, 520.05)"/><rect class="cls-3" x="314.54" y="248.58" width="9.81" height="9.81" transform="translate(6.02 514.38) rotate(-78.21)"/><rect class="cls-3" x="316.55" y="238.98" width="9.8" height="9.81" transform="translate(17.01 508.7) rotate(-78.21)"/><rect class="cls-2" x="318.55" y="229.38" width="9.81" height="9.81" transform="translate(28 503.03) rotate(-78.21)"/><rect class="cls-2" x="320.56" y="219.79" width="9.8" height="9.81" transform="translate(38.99 497.35) rotate(-78.21)"/><rect class="cls-2" x="322.56" y="210.19" width="9.8" height="9.81" transform="translate(49.97 491.68) rotate(-78.21)"/><rect class="cls-4" x="294.92" y="294.57" width="9.81" height="9.8" transform="translate(-54.6 531.76) rotate(-78.21)"/><rect class="cls-3" x="296.93" y="284.97" width="9.8" height="9.8" transform="translate(-43.61 526.08) rotate(-78.21)"/><rect class="cls-3" x="298.93" y="275.37" width="9.81" height="9.8" transform="translate(-32.62 520.41) rotate(-78.21)"/><rect class="cls-3" x="300.94" y="265.77" width="9.8" height="9.8" transform="matrix(0.2, -0.98, 0.98, 0.2, -21.63, 514.73)"/><rect class="cls-4" x="302.94" y="256.18" width="9.8" height="9.8" transform="translate(-10.64 509.06) rotate(-78.21)"/><rect class="cls-4" x="304.94" y="246.58" width="9.81" height="9.8" transform="translate(0.35 503.39) rotate(-78.21)"/><rect class="cls-3" x="306.95" y="236.98" width="9.8" height="9.8" transform="matrix(0.2, -0.98, 0.98, 0.2, 11.34, 497.71)"/><rect class="cls-3" x="308.95" y="227.38" width="9.81" height="9.8" transform="translate(22.33 492.04) rotate(-78.21)"/><rect class="cls-3" x="310.96" y="217.79" width="9.8" height="9.8" transform="translate(33.32 486.36) rotate(-78.21)"/><rect class="cls-2" x="312.96" y="208.19" width="9.8" height="9.8" transform="matrix(0.2, -0.98, 0.98, 0.2, 44.3, 480.69)"/><rect class="cls-5" x="320.98" y="169.8" width="9.8" height="9.8" transform="translate(88.26 457.99) rotate(-78.21)"/><rect class="cls-6" x="281.33" y="311.75" width="9.8" height="9.8" transform="matrix(0.2, -0.98, 0.98, 0.2, -82.24, 532.12)"/><rect class="cls-6" x="283.33" y="302.16" width="9.8" height="9.8" transform="translate(-71.26 526.45) rotate(-78.21)"/><rect class="cls-4" x="285.33" y="292.56" width="9.81" height="9.8" transform="translate(-60.27 520.77) rotate(-78.21)"/><rect class="cls-3" x="287.34" y="282.97" width="9.8" height="9.8" transform="matrix(0.2, -0.98, 0.98, 0.2, -49.28, 515.1)"/><rect class="cls-4" x="289.34" y="273.37" width="9.81" height="9.8" transform="translate(-38.29 509.42) rotate(-78.21)"/><rect class="cls-6" x="291.35" y="263.77" width="9.8" height="9.8" transform="translate(-27.3 503.75) rotate(-78.21)"/><rect class="cls-6" x="293.35" y="254.18" width="9.8" height="9.8" transform="matrix(0.2, -0.98, 0.98, 0.2, -16.31, 498.08)"/><rect class="cls-6" x="295.35" y="244.58" width="9.81" height="9.8" transform="translate(-5.33 492.4) rotate(-78.21)"/><rect class="cls-4" x="297.36" y="234.98" width="9.8" height="9.8" transform="matrix(0.2, -0.98, 0.98, 0.2, 5.66, 486.73)"/><rect class="cls-3" x="299.36" y="225.38" width="9.81" height="9.8" transform="translate(16.65 481.05) rotate(-78.21)"/><rect class="cls-3" x="301.37" y="215.78" width="9.8" height="9.8" transform="matrix(0.2, -0.98, 0.98, 0.2, 27.64, 475.38)"/><rect class="cls-1" x="303.37" y="206.19" width="9.8" height="9.8" transform="matrix(0.2, -0.98, 0.98, 0.2, 38.63, 469.71)"/><rect class="cls-1" x="305.37" y="196.59" width="9.81" height="9.8" transform="translate(49.62 464.03) rotate(-78.21)"/><rect class="cls-1" x="307.38" y="186.99" width="9.8" height="9.8" transform="matrix(0.2, -0.98, 0.98, 0.2, 60.61, 458.36)"/><rect class="cls-5" x="309.38" y="177.4" width="9.81" height="9.8" transform="translate(71.6 452.68) rotate(-78.21)"/><rect class="cls-5" x="311.38" y="167.8" width="9.8" height="9.8" transform="translate(82.59 447.01) rotate(-78.21)"/><rect class="cls-6" x="269.72" y="319.34" width="9.81" height="9.81" transform="translate(-98.91 526.81) rotate(-78.21)"/><rect class="cls-6" x="271.73" y="309.75" width="9.8" height="9.81" transform="translate(-87.92 521.13) rotate(-78.21)"/><rect class="cls-6" x="273.73" y="300.15" width="9.8" height="9.81" transform="translate(-76.93 515.46) rotate(-78.21)"/><rect class="cls-4" x="275.73" y="290.55" width="9.81" height="9.81" transform="translate(-65.94 509.78) rotate(-78.21)"/><rect class="cls-3" x="277.74" y="280.96" width="9.8" height="9.81" transform="translate(-54.95 504.11) rotate(-78.21)"/><rect class="cls-4" x="279.74" y="271.36" width="9.81" height="9.81" transform="translate(-43.96 498.44) rotate(-78.21)"/><rect class="cls-6" x="281.75" y="261.76" width="9.8" height="9.81" transform="matrix(0.2, -0.98, 0.98, 0.2, -32.97, 492.76)"/><rect class="cls-4" x="283.75" y="252.17" width="9.8" height="9.81" transform="translate(-21.99 487.09) rotate(-78.21)"/><rect class="cls-6" x="285.75" y="242.57" width="9.81" height="9.81" transform="translate(-11 481.41) rotate(-78.21)"/><rect class="cls-3" x="287.76" y="232.97" width="9.8" height="9.81" transform="translate(-0.01 475.74) rotate(-78.21)"/><rect class="cls-7" x="289.76" y="223.37" width="9.81" height="9.81" transform="translate(10.98 470.06) rotate(-78.21)"/><rect class="cls-7" x="291.77" y="213.77" width="9.8" height="9.81" transform="translate(21.97 464.39) rotate(-78.21)"/><rect class="cls-1" x="293.77" y="204.18" width="9.8" height="9.81" transform="translate(32.95 458.72) rotate(-78.21)"/><rect class="cls-1" x="295.77" y="194.58" width="9.81" height="9.81" transform="translate(43.94 453.04) rotate(-78.21)"/><rect class="cls-1" x="297.78" y="184.99" width="9.8" height="9.81" transform="translate(54.93 447.37) rotate(-78.21)"/><rect class="cls-5" x="299.78" y="175.39" width="9.81" height="9.81" transform="translate(65.92 441.69) rotate(-78.21)"/><rect class="cls-5" x="301.79" y="165.79" width="9.8" height="9.81" transform="matrix(0.2, -0.98, 0.98, 0.2, 76.91, 436.02)"/><rect class="cls-3" x="258.12" y="326.94" width="9.8" height="9.8" transform="translate(-115.57 521.49) rotate(-78.21)"/><rect class="cls-6" x="260.12" y="317.34" width="9.81" height="9.8" transform="translate(-104.58 515.82) rotate(-78.21)"/><rect class="cls-6" x="262.13" y="307.75" width="9.8" height="9.8" transform="translate(-93.59 510.14) rotate(-78.21)"/><rect class="cls-6" x="264.13" y="298.15" width="9.8" height="9.8" transform="translate(-82.61 504.47) rotate(-78.21)"/><rect class="cls-4" x="266.13" y="288.56" width="9.81" height="9.8" transform="translate(-71.62 498.79) rotate(-78.21)"/><rect class="cls-3" x="268.14" y="278.96" width="9.8" height="9.8" transform="translate(-60.63 493.12) rotate(-78.21)"/><rect class="cls-3" x="270.14" y="269.36" width="9.81" height="9.8" transform="translate(-49.64 487.45) rotate(-78.21)"/><rect class="cls-4" x="272.15" y="259.76" width="9.8" height="9.8" transform="matrix(0.2, -0.98, 0.98, 0.2, -38.65, 481.77)"/><rect class="cls-4" x="274.15" y="250.17" width="9.8" height="9.8" transform="translate(-27.66 476.1) rotate(-78.21)"/><rect class="cls-6" x="276.15" y="240.57" width="9.81" height="9.8" transform="translate(-16.67 470.42) rotate(-78.21)"/><rect class="cls-3" x="278.16" y="230.97" width="9.8" height="9.8" transform="translate(-5.68 464.75) rotate(-78.21)"/><rect class="cls-7" x="280.16" y="221.37" width="9.81" height="9.8" transform="translate(5.31 459.08) rotate(-78.21)"/><rect class="cls-7" x="282.17" y="211.78" width="9.8" height="9.8" transform="translate(16.3 453.4) rotate(-78.21)"/><rect class="cls-1" x="284.17" y="202.18" width="9.8" height="9.8" transform="matrix(0.2, -0.98, 0.98, 0.2, 27.28, 447.73)"/><rect class="cls-1" x="286.17" y="192.58" width="9.81" height="9.8" transform="translate(38.27 442.05) rotate(-78.21)"/><rect class="cls-5" x="288.18" y="182.99" width="9.8" height="9.8" transform="translate(49.26 436.38) rotate(-78.21)"/><rect class="cls-5" x="290.18" y="173.39" width="9.81" height="9.8" transform="translate(60.25 430.7) rotate(-78.21)"/><rect class="cls-5" x="292.19" y="163.79" width="9.8" height="9.8" transform="translate(71.24 425.03) rotate(-78.21)"/><rect class="cls-3" x="248.53" y="324.93" width="9.8" height="9.81" transform="translate(-121.25 510.5) rotate(-78.21)"/><rect class="cls-6" x="250.52" y="315.34" width="9.81" height="9.81" transform="translate(-110.26 504.83) rotate(-78.21)"/><rect class="cls-6" x="252.53" y="305.74" width="9.8" height="9.81" transform="matrix(0.2, -0.98, 0.98, 0.2, -99.27, 499.15)"/><rect class="cls-6" x="254.54" y="296.14" width="9.8" height="9.81" transform="translate(-88.28 493.48) rotate(-78.21)"/><rect class="cls-4" x="256.54" y="286.55" width="9.81" height="9.81" transform="translate(-77.29 487.8) rotate(-78.21)"/><rect class="cls-3" x="258.54" y="276.95" width="9.8" height="9.81" transform="matrix(0.2, -0.98, 0.98, 0.2, -66.3, 482.13)"/><rect class="cls-3" x="260.54" y="267.35" width="9.81" height="9.81" transform="translate(-55.31 476.46) rotate(-78.21)"/><rect class="cls-3" x="262.55" y="257.75" width="9.8" height="9.81" transform="translate(-44.32 470.78) rotate(-78.21)"/><rect class="cls-4" x="264.56" y="248.16" width="9.8" height="9.81" transform="matrix(0.2, -0.98, 0.98, 0.2, -33.34, 465.11)"/><rect class="cls-4" x="266.55" y="238.56" width="9.81" height="9.81" transform="translate(-22.35 459.43) rotate(-78.21)"/><rect class="cls-2" x="268.56" y="228.96" width="9.8" height="9.81" transform="translate(-11.36 453.76) rotate(-78.21)"/><rect class="cls-6" x="270.56" y="219.36" width="9.81" height="9.81" transform="translate(-0.37 448.09) rotate(-78.21)"/><rect class="cls-6" x="272.57" y="209.77" width="9.8" height="9.81" transform="matrix(0.2, -0.98, 0.98, 0.2, 10.62, 442.41)"/><rect class="cls-6" x="274.57" y="200.17" width="9.8" height="9.81" transform="matrix(0.2, -0.98, 0.98, 0.2, 21.6, 436.74)"/><rect class="cls-5" x="276.57" y="190.58" width="9.81" height="9.81" transform="translate(32.59 431.06) rotate(-78.21)"/><rect class="cls-5" x="278.58" y="180.98" width="9.8" height="9.81" transform="matrix(0.2, -0.98, 0.98, 0.2, 43.58, 425.39)"/><rect class="cls-5" x="280.58" y="171.38" width="9.81" height="9.81" transform="translate(54.57 419.71) rotate(-78.21)"/><rect class="cls-3" x="236.92" y="332.53" width="9.81" height="9.8" transform="translate(-137.91 505.19) rotate(-78.21)"/><rect class="cls-3" x="238.93" y="322.93" width="9.8" height="9.8" transform="translate(-126.92 499.51) rotate(-78.21)"/><rect class="cls-6" x="240.93" y="313.34" width="9.81" height="9.8" transform="translate(-115.93 493.84) rotate(-78.21)"/><rect class="cls-6" x="242.94" y="303.74" width="9.8" height="9.8" transform="matrix(0.2, -0.98, 0.98, 0.2, -104.94, 488.16)"/><rect class="cls-6" x="244.94" y="294.15" width="9.8" height="9.8" transform="translate(-93.96 482.49) rotate(-78.21)"/><rect class="cls-4" x="246.94" y="284.55" width="9.81" height="9.8" transform="translate(-82.97 476.81) rotate(-78.21)"/><rect class="cls-3" x="248.95" y="274.95" width="9.8" height="9.8" transform="matrix(0.2, -0.98, 0.98, 0.2, -71.98, 471.14)"/><rect class="cls-3" x="250.95" y="265.35" width="9.81" height="9.8" transform="translate(-60.99 465.47) rotate(-78.21)"/><rect class="cls-3" x="252.95" y="255.75" width="9.8" height="9.8" transform="matrix(0.2, -0.98, 0.98, 0.2, -50, 459.79)"/><rect class="cls-3" x="254.96" y="246.16" width="9.8" height="9.8" transform="matrix(0.2, -0.98, 0.98, 0.2, -39.01, 454.12)"/><rect class="cls-3" x="256.96" y="236.56" width="9.81" height="9.8" transform="translate(-28.02 448.44) rotate(-78.21)"/><rect class="cls-2" x="258.97" y="226.96" width="9.8" height="9.8" transform="matrix(0.2, -0.98, 0.98, 0.2, -17.03, 442.77)"/><rect class="cls-6" x="260.96" y="217.37" width="9.81" height="9.8" transform="translate(-6.04 437.1) rotate(-78.21)"/><rect class="cls-6" x="262.97" y="207.77" width="9.8" height="9.8" transform="matrix(0.2, -0.98, 0.98, 0.2, 4.95, 431.42)"/><rect class="cls-6" x="264.98" y="198.17" width="9.8" height="9.8" transform="matrix(0.2, -0.98, 0.98, 0.2, 15.93, 425.75)"/><rect class="cls-3" x="225.33" y="340.13" width="9.8" height="9.8" transform="translate(-154.57 499.88) rotate(-78.21)"/><rect class="cls-3" x="227.33" y="330.53" width="9.81" height="9.8" transform="translate(-143.58 494.2) rotate(-78.21)"/><rect class="cls-3" x="229.33" y="320.93" width="9.8" height="9.8" transform="translate(-132.59 488.53) rotate(-78.21)"/><rect class="cls-6" x="231.33" y="311.33" width="9.81" height="9.8" transform="translate(-121.6 482.85) rotate(-78.21)"/><rect class="cls-6" x="233.34" y="301.74" width="9.8" height="9.8" transform="matrix(0.2, -0.98, 0.98, 0.2, -110.61, 477.18)"/><rect class="cls-6" x="235.35" y="292.14" width="9.8" height="9.8" transform="translate(-99.63 471.51) rotate(-78.21)"/><rect class="cls-4" x="237.34" y="282.54" width="9.81" height="9.8" transform="translate(-88.64 465.83) rotate(-78.21)"/><rect class="cls-3" x="239.35" y="272.95" width="9.8" height="9.8" transform="matrix(0.2, -0.98, 0.98, 0.2, -77.65, 460.16)"/><rect class="cls-3" x="241.35" y="263.35" width="9.81" height="9.8" transform="translate(-66.66 454.48) rotate(-78.21)"/><rect class="cls-3" x="243.36" y="253.75" width="9.8" height="9.8" transform="matrix(0.2, -0.98, 0.98, 0.2, -55.67, 448.81)"/><rect class="cls-3" x="245.36" y="244.16" width="9.8" height="9.8" transform="translate(-44.69 443.14) rotate(-78.21)"/><rect class="cls-3" x="247.36" y="234.56" width="9.81" height="9.8" transform="translate(-33.7 437.46) rotate(-78.21)"/><rect class="cls-2" x="249.37" y="224.96" width="9.8" height="9.8" transform="translate(-22.71 431.79) rotate(-78.21)"/><rect class="cls-2" x="251.37" y="215.36" width="9.81" height="9.8" transform="translate(-11.72 426.11) rotate(-78.21)"/><rect class="cls-6" x="253.38" y="205.76" width="9.8" height="9.8" transform="translate(-0.73 420.44) rotate(-78.21)"/><rect class="cls-6" x="255.38" y="196.17" width="9.8" height="9.8" transform="translate(10.26 414.76) rotate(-78.21)"/><rect class="cls-3" x="215.73" y="338.12" width="9.8" height="9.81" transform="translate(-160.25 488.89) rotate(-78.21)"/><rect class="cls-3" x="217.73" y="328.52" width="9.81" height="9.81" transform="translate(-149.26 483.21) rotate(-78.21)"/><rect class="cls-3" x="219.74" y="318.92" width="9.8" height="9.81" transform="translate(-138.27 477.54) rotate(-78.21)"/><rect class="cls-6" x="221.74" y="309.32" width="9.81" height="9.81" transform="translate(-127.28 471.86) rotate(-78.21)"/><rect class="cls-6" x="223.74" y="299.73" width="9.8" height="9.81" transform="translate(-116.29 466.19) rotate(-78.21)"/><rect class="cls-6" x="225.75" y="290.13" width="9.8" height="9.81" transform="translate(-105.3 460.52) rotate(-78.21)"/><rect class="cls-4" x="227.75" y="280.54" width="9.81" height="9.81" transform="translate(-94.31 454.84) rotate(-78.21)"/><rect class="cls-4" x="229.76" y="270.94" width="9.8" height="9.81" transform="translate(-83.32 449.17) rotate(-78.21)"/><rect class="cls-3" x="231.75" y="261.34" width="9.81" height="9.81" transform="translate(-72.33 443.49) rotate(-78.21)"/><rect class="cls-3" x="233.76" y="251.74" width="9.8" height="9.81" transform="translate(-61.34 437.82) rotate(-78.21)"/><rect class="cls-3" x="235.77" y="242.15" width="9.8" height="9.81" transform="matrix(0.2, -0.98, 0.98, 0.2, -50.36, 432.15)"/><rect class="cls-2" x="237.77" y="232.55" width="9.81" height="9.81" transform="translate(-39.37 426.47) rotate(-78.21)"/><rect class="cls-2" x="239.77" y="222.95" width="9.8" height="9.81" transform="matrix(0.2, -0.98, 0.98, 0.2, -28.38, 420.8)"/><rect class="cls-6" x="241.77" y="213.35" width="9.81" height="9.81" transform="translate(-17.39 415.12) rotate(-78.21)"/><rect class="cls-6" x="243.78" y="203.76" width="9.8" height="9.81" transform="matrix(0.2, -0.98, 0.98, 0.2, -6.4, 409.45)"/><rect class="cls-3" x="204.13" y="345.71" width="9.8" height="9.8" transform="translate(-176.91 483.57) rotate(-78.21)"/><rect class="cls-3" x="206.13" y="336.12" width="9.8" height="9.8" transform="translate(-165.92 477.9) rotate(-78.21)"/><rect class="cls-3" x="208.13" y="326.52" width="9.81" height="9.8" transform="translate(-154.93 472.22) rotate(-78.21)"/><rect class="cls-3" x="210.14" y="316.92" width="9.8" height="9.8" transform="translate(-143.94 466.55) rotate(-78.21)"/><rect class="cls-6" x="212.14" y="307.33" width="9.81" height="9.8" transform="translate(-132.95 460.87) rotate(-78.21)"/><rect class="cls-6" x="214.15" y="297.73" width="9.8" height="9.8" transform="translate(-121.96 455.2) rotate(-78.21)"/><rect class="cls-6" x="216.15" y="288.13" width="9.8" height="9.8" transform="translate(-110.98 449.53) rotate(-78.21)"/><rect class="cls-4" x="218.15" y="278.54" width="9.81" height="9.8" transform="translate(-99.99 443.85) rotate(-78.21)"/><rect class="cls-4" x="220.16" y="268.94" width="9.8" height="9.8" transform="translate(-89 438.18) rotate(-78.21)"/><rect class="cls-2" x="224.17" y="249.74" width="9.8" height="9.8" transform="matrix(0.2, -0.98, 0.98, 0.2, -67.02, 426.83)"/><rect class="cls-2" x="226.17" y="240.15" width="9.8" height="9.8" transform="translate(-56.03 421.16) rotate(-78.21)"/><rect class="cls-2" x="228.17" y="230.55" width="9.81" height="9.8" transform="translate(-45.04 415.48) rotate(-78.21)"/><rect class="cls-2" x="230.18" y="220.95" width="9.8" height="9.8" transform="matrix(0.2, -0.98, 0.98, 0.2, -34.05, 409.81)"/><rect class="cls-6" x="232.18" y="211.35" width="9.81" height="9.8" transform="translate(-23.07 404.13) rotate(-78.21)"/><rect class="cls-6" x="234.18" y="201.76" width="9.8" height="9.8" transform="translate(-12.08 398.46) rotate(-78.21)"/><rect class="cls-3" x="194.53" y="343.7" width="9.8" height="9.81" transform="translate(-182.58 472.58) rotate(-78.21)"/><rect class="cls-3" x="196.53" y="334.11" width="9.8" height="9.81" transform="matrix(0.2, -0.98, 0.98, 0.2, -171.6, 466.91)"/><rect class="cls-3" x="198.53" y="324.51" width="9.81" height="9.81" transform="translate(-160.61 461.23) rotate(-78.21)"/><rect class="cls-3" x="200.54" y="314.91" width="9.8" height="9.81" transform="translate(-149.62 455.56) rotate(-78.21)"/><rect class="cls-6" x="202.54" y="305.32" width="9.81" height="9.81" transform="translate(-138.63 449.88) rotate(-78.21)"/><rect class="cls-6" x="204.55" y="295.72" width="9.8" height="9.81" transform="matrix(0.2, -0.98, 0.98, 0.2, -127.64, 444.21)"/><rect class="cls-6" x="206.55" y="286.13" width="9.8" height="9.81" transform="translate(-116.65 438.54) rotate(-78.21)"/><rect class="cls-1" x="210.56" y="266.93" width="9.8" height="9.81" transform="matrix(0.2, -0.98, 0.98, 0.2, -94.67, 427.19)"/><rect class="cls-2" x="212.56" y="257.33" width="9.81" height="9.81" transform="translate(-83.68 421.51) rotate(-78.21)"/><rect class="cls-2" x="214.57" y="247.73" width="9.8" height="9.81" transform="translate(-72.69 415.84) rotate(-78.21)"/><rect class="cls-2" x="216.57" y="238.14" width="9.8" height="9.81" transform="matrix(0.2, -0.98, 0.98, 0.2, -61.71, 410.17)"/><rect class="cls-2" x="218.57" y="228.54" width="9.81" height="9.81" transform="translate(-50.72 404.49) rotate(-78.21)"/><rect class="cls-6" x="220.58" y="218.94" width="9.8" height="9.81" transform="translate(-39.73 398.82) rotate(-78.21)"/><rect class="cls-6" x="222.58" y="209.35" width="9.81" height="9.81" transform="translate(-28.74 393.14) rotate(-78.21)"/><rect class="cls-3" x="182.92" y="351.3" width="9.81" height="9.8" transform="translate(-199.24 467.26) rotate(-78.21)"/><rect class="cls-3" x="184.93" y="341.7" width="9.8" height="9.8" transform="translate(-188.26 461.59) rotate(-78.21)"/><rect class="cls-3" x="186.93" y="332.11" width="9.8" height="9.8" transform="translate(-177.27 455.92) rotate(-78.21)"/><rect class="cls-3" x="188.93" y="322.51" width="9.81" height="9.8" transform="translate(-166.28 450.24) rotate(-78.21)"/><rect class="cls-3" x="190.94" y="312.92" width="9.8" height="9.8" transform="translate(-155.29 444.57) rotate(-78.21)"/><rect class="cls-3" x="192.94" y="303.32" width="9.81" height="9.8" transform="translate(-144.3 438.89) rotate(-78.21)"/><rect class="cls-6" x="194.95" y="293.72" width="9.8" height="9.8" transform="matrix(0.2, -0.98, 0.98, 0.2, -133.31, 433.22)"/><rect class="cls-1" x="198.95" y="274.53" width="9.81" height="9.8" transform="translate(-111.34 421.87) rotate(-78.21)"/><rect class="cls-1" x="200.96" y="264.93" width="9.8" height="9.8" transform="matrix(0.2, -0.98, 0.98, 0.2, -100.35, 416.2)"/><rect class="cls-2" x="202.96" y="255.33" width="9.81" height="9.8" transform="translate(-89.36 410.52) rotate(-78.21)"/><rect class="cls-2" x="204.97" y="245.73" width="9.8" height="9.8" transform="translate(-78.37 404.85) rotate(-78.21)"/><rect class="cls-6" x="206.97" y="236.14" width="9.8" height="9.8" transform="matrix(0.2, -0.98, 0.98, 0.2, -67.38, 399.18)"/><rect class="cls-6" x="208.97" y="226.54" width="9.81" height="9.8" transform="translate(-56.39 393.5) rotate(-78.21)"/><rect class="cls-6" x="210.98" y="216.94" width="9.8" height="9.8" transform="translate(-45.4 387.83) rotate(-78.21)"/><rect class="cls-3" x="173.33" y="349.3" width="9.81" height="9.8" transform="translate(-204.92 456.28) rotate(-78.21)"/><rect class="cls-3" x="175.34" y="339.7" width="9.8" height="9.8" transform="translate(-193.93 450.6) rotate(-78.21)"/><rect class="cls-3" x="177.34" y="330.11" width="9.8" height="9.8" transform="matrix(0.2, -0.98, 0.98, 0.2, -182.94, 444.93)"/><rect class="cls-3" x="179.34" y="320.51" width="9.81" height="9.8" transform="translate(-171.95 439.26) rotate(-78.21)"/><rect class="cls-3" x="181.35" y="310.91" width="9.8" height="9.8" transform="translate(-160.96 433.58) rotate(-78.21)"/><rect class="cls-3" x="183.35" y="301.31" width="9.81" height="9.8" transform="translate(-149.97 427.91) rotate(-78.21)"/><rect class="cls-6" x="189.36" y="272.53" width="9.81" height="9.8" transform="translate(-117.01 410.89) rotate(-78.21)"/><rect class="cls-6" x="191.37" y="262.93" width="9.8" height="9.8" transform="translate(-106.02 405.21) rotate(-78.21)"/><rect class="cls-6" x="193.37" y="253.33" width="9.81" height="9.8" transform="translate(-95.03 399.54) rotate(-78.21)"/><rect class="cls-6" x="195.38" y="243.73" width="9.8" height="9.8" transform="matrix(0.2, -0.98, 0.98, 0.2, -84.04, 393.86)"/><rect class="cls-6" x="197.38" y="234.14" width="9.8" height="9.8" transform="translate(-73.06 388.19) rotate(-78.21)"/><rect class="cls-6" x="199.38" y="224.54" width="9.81" height="9.8" transform="translate(-62.07 382.52) rotate(-78.21)"/><rect class="cls-8" x="161.73" y="356.89" width="9.8" height="9.81" transform="translate(-221.58 450.96) rotate(-78.21)"/><rect class="cls-3" x="163.73" y="347.29" width="9.81" height="9.81" transform="translate(-210.59 445.29) rotate(-78.21)"/><rect class="cls-3" x="165.74" y="337.69" width="9.8" height="9.81" transform="translate(-199.6 439.61) rotate(-78.21)"/><rect class="cls-3" x="169.74" y="318.5" width="9.81" height="9.81" transform="translate(-177.63 428.27) rotate(-78.21)"/><rect class="cls-3" x="171.75" y="308.9" width="9.8" height="9.81" transform="translate(-166.64 422.59) rotate(-78.21)"/><rect class="cls-3" x="173.75" y="299.31" width="9.81" height="9.81" transform="translate(-155.65 416.92) rotate(-78.21)"/><rect class="cls-6" x="179.76" y="270.52" width="9.81" height="9.81" transform="translate(-122.68 399.9) rotate(-78.21)"/><rect class="cls-6" x="181.77" y="260.92" width="9.8" height="9.81" transform="matrix(0.2, -0.98, 0.98, 0.2, -111.69, 394.22)"/><rect class="cls-6" x="183.77" y="251.32" width="9.81" height="9.81" transform="translate(-100.7 388.55) rotate(-78.21)"/><rect class="cls-6" x="185.78" y="241.72" width="9.8" height="9.81" transform="translate(-89.71 382.87) rotate(-78.21)"/><rect class="cls-6" x="187.78" y="232.13" width="9.8" height="9.81" transform="matrix(0.2, -0.98, 0.98, 0.2, -78.73, 377.2)"/><rect class="cls-6" x="189.78" y="222.53" width="9.81" height="9.81" transform="translate(-67.74 371.53) rotate(-78.21)"/><rect class="cls-8" x="152.13" y="354.89" width="9.8" height="9.8" transform="translate(-227.26 439.97) rotate(-78.21)"/><rect class="cls-3" x="154.13" y="345.29" width="9.81" height="9.8" transform="translate(-216.27 434.3) rotate(-78.21)"/><rect class="cls-3" x="158.15" y="326.1" width="9.8" height="9.8" transform="translate(-194.29 422.95) rotate(-78.21)"/><rect class="cls-3" x="160.14" y="316.5" width="9.81" height="9.8" transform="translate(-183.3 417.28) rotate(-78.21)"/><rect class="cls-3" x="162.15" y="306.9" width="9.8" height="9.8" transform="translate(-172.31 411.6) rotate(-78.21)"/><rect class="cls-6" x="168.16" y="278.12" width="9.8" height="9.8" transform="translate(-139.35 394.58) rotate(-78.21)"/><rect class="cls-6" x="170.16" y="268.52" width="9.81" height="9.8" transform="translate(-128.36 388.91) rotate(-78.21)"/><rect class="cls-6" x="172.17" y="258.92" width="9.8" height="9.8" transform="matrix(0.2, -0.98, 0.98, 0.2, -117.37, 383.23)"/><rect class="cls-6" x="174.17" y="249.32" width="9.81" height="9.8" transform="translate(-106.38 377.56) rotate(-78.21)"/><rect class="cls-6" x="176.18" y="239.72" width="9.8" height="9.8" transform="translate(-95.39 371.88) rotate(-78.21)"/><rect class="cls-6" x="178.18" y="230.13" width="9.8" height="9.8" transform="matrix(0.2, -0.98, 0.98, 0.2, -84.4, 366.21)"/><rect class="cls-8" x="142.54" y="352.88" width="9.8" height="9.81" transform="translate(-232.93 428.98) rotate(-78.21)"/><rect class="cls-8" x="144.54" y="343.28" width="9.81" height="9.81" transform="translate(-221.94 423.31) rotate(-78.21)"/><rect class="cls-3" x="146.54" y="333.68" width="9.8" height="9.81" transform="translate(-210.95 417.63) rotate(-78.21)"/><rect class="cls-3" x="148.55" y="324.09" width="9.8" height="9.81" transform="matrix(0.2, -0.98, 0.98, 0.2, -199.97, 411.96)"/><rect class="cls-3" x="150.55" y="314.49" width="9.81" height="9.81" transform="translate(-188.98 406.29) rotate(-78.21)"/><rect class="cls-3" x="152.56" y="304.9" width="9.8" height="9.81" transform="translate(-177.99 400.61) rotate(-78.21)"/><rect class="cls-6" x="158.57" y="276.11" width="9.8" height="9.81" transform="translate(-145.02 383.59) rotate(-78.21)"/><rect class="cls-6" x="160.57" y="266.51" width="9.81" height="9.81" transform="translate(-134.03 377.92) rotate(-78.21)"/><rect class="cls-6" x="162.57" y="256.91" width="9.8" height="9.81" transform="translate(-123.04 372.24) rotate(-78.21)"/><rect class="cls-6" x="164.57" y="247.31" width="9.81" height="9.81" transform="translate(-112.05 366.57) rotate(-78.21)"/><rect class="cls-6" x="166.58" y="237.71" width="9.8" height="9.81" transform="matrix(0.2, -0.98, 0.98, 0.2, -101.06, 360.89)"/><rect class="cls-3" x="136.95" y="331.69" width="9.8" height="9.8" transform="translate(-216.63 406.64) rotate(-78.21)"/><rect class="cls-3" x="138.95" y="322.09" width="9.8" height="9.8" transform="matrix(0.2, -0.98, 0.98, 0.2, -205.64, 400.97)"/><rect class="cls-3" x="140.95" y="312.49" width="9.81" height="9.8" transform="translate(-194.65 395.3) rotate(-78.21)"/><rect class="cls-6" x="148.97" y="274.11" width="9.8" height="9.8" transform="translate(-150.7 372.6) rotate(-78.21)"/><rect class="cls-6" x="150.97" y="264.51" width="9.81" height="9.8" transform="translate(-139.71 366.93) rotate(-78.21)"/><rect class="cls-6" x="152.98" y="254.91" width="9.8" height="9.8" transform="translate(-128.72 361.25) rotate(-78.21)"/><rect class="cls-6" x="154.98" y="245.31" width="9.81" height="9.8" transform="translate(-117.73 355.58) rotate(-78.21)"/><rect class="cls-6" x="156.98" y="235.72" width="9.8" height="9.8" transform="translate(-106.74 349.9) rotate(-78.21)"/><rect class="cls-8" x="125.34" y="339.28" width="9.81" height="9.8" transform="translate(-233.29 401.34) rotate(-78.21)"/><rect class="cls-3" x="127.35" y="329.68" width="9.8" height="9.8" transform="translate(-222.3 395.66) rotate(-78.21)"/><rect class="cls-3" x="129.36" y="320.09" width="9.8" height="9.8" transform="translate(-211.31 389.99) rotate(-78.21)"/><rect class="cls-6" x="137.37" y="281.7" width="9.8" height="9.8" transform="translate(-167.35 367.29) rotate(-78.21)"/><rect class="cls-6" x="139.38" y="272.1" width="9.8" height="9.8" transform="translate(-156.37 361.62) rotate(-78.21)"/><rect class="cls-6" x="141.37" y="262.51" width="9.81" height="9.8" transform="translate(-145.38 355.94) rotate(-78.21)"/><rect class="cls-6" x="143.38" y="252.91" width="9.8" height="9.8" transform="translate(-134.39 350.27) rotate(-78.21)"/><rect class="cls-6" x="145.38" y="243.31" width="9.81" height="9.8" transform="translate(-123.4 344.59) rotate(-78.21)"/><rect class="cls-6" x="147.39" y="233.71" width="9.8" height="9.8" transform="translate(-112.41 338.92) rotate(-78.21)"/><rect class="cls-6" x="149.39" y="224.12" width="9.8" height="9.8" transform="matrix(0.2, -0.98, 0.98, 0.2, -101.43, 333.25)"/><rect class="cls-8" x="115.75" y="337.27" width="9.81" height="9.81" transform="translate(-238.96 390.35) rotate(-78.21)"/><rect class="cls-8" x="117.76" y="327.67" width="9.8" height="9.81" transform="translate(-227.97 384.67) rotate(-78.21)"/><rect class="cls-6" x="127.77" y="279.69" width="9.8" height="9.81" transform="translate(-173.03 356.3) rotate(-78.21)"/><rect class="cls-6" x="129.78" y="270.1" width="9.8" height="9.81" transform="translate(-162.04 350.63) rotate(-78.21)"/><rect class="cls-6" x="131.78" y="260.5" width="9.81" height="9.81" transform="translate(-151.05 344.95) rotate(-78.21)"/><rect class="cls-6" x="133.79" y="250.9" width="9.8" height="9.81" transform="translate(-140.06 339.28) rotate(-78.21)"/><rect class="cls-6" x="135.78" y="241.3" width="9.81" height="9.81" transform="translate(-129.07 333.6) rotate(-78.21)"/><rect class="cls-8" x="106.15" y="335.27" width="9.81" height="9.8" transform="translate(-244.64 379.36) rotate(-78.21)"/><rect class="cls-8" x="108.16" y="325.67" width="9.8" height="9.8" transform="translate(-233.65 373.68) rotate(-78.21)"/></svg>