<svg id="Layer_1" data-name="Layer 1" xmlns="http://www.w3.org/2000/svg" viewBox="0 0 500 500"><defs><style>.cls-1{fill:#e5d297;}.cls-2{fill:#3e7ec1;}.cls-3{fill:#1b5d8d;}.cls-4{fill:#f3df1c;}.cls-5{fill:#1b1a1c;}.cls-6{fill:#e2203e;}.cls-7{fill:#e2c570;}.cls-8{fill:#444545;}</style></defs><rect class="cls-1" x="378.4" y="167.31" width="9.81" height="9.81"/><rect class="cls-1" x="378.4" y="157.51" width="9.81" height="9.8"/><rect class="cls-2" x="368.6" y="177.12" width="9.8" height="9.8"/><rect class="cls-2" x="368.6" y="167.31" width="9.8" height="9.81"/><rect class="cls-1" x="368.6" y="157.51" width="9.8" height="9.8"/><rect class="cls-2" x="358.79" y="177.12" width="9.81" height="9.8"/><rect class="cls-2" x="358.79" y="167.31" width="9.81" height="9.81"/><rect class="cls-2" x="348.99" y="186.92" width="9.8" height="9.81"/><rect class="cls-2" x="348.99" y="177.12" width="9.8" height="9.8"/><rect class="cls-2" x="339.19" y="196.73" width="9.8" height="9.8"/><rect class="cls-2" x="339.19" y="186.92" width="9.8" height="9.81"/><rect class="cls-2" x="339.19" y="177.12" width="9.8" height="9.8"/><rect class="cls-2" x="329.38" y="196.73" width="9.81" height="9.8"/><rect class="cls-2" x="329.38" y="186.92" width="9.81" height="9.81"/><rect class="cls-2" x="319.58" y="206.53" width="9.8" height="9.8"/><rect class="cls-2" x="319.58" y="196.73" width="9.8" height="9.8"/><rect class="cls-2" x="319.58" y="186.92" width="9.8" height="9.81"/><rect class="cls-3" x="309.77" y="255.55" width="9.81" height="9.8"/><rect class="cls-3" x="309.77" y="245.75" width="9.81" height="9.8"/><rect class="cls-3" x="309.77" y="235.94" width="9.81" height="9.81"/><rect class="cls-3" x="309.77" y="226.14" width="9.81" height="9.8"/><rect class="cls-2" x="309.77" y="216.33" width="9.81" height="9.81"/><rect class="cls-2" x="309.77" y="206.53" width="9.81" height="9.8"/><rect class="cls-2" x="309.77" y="196.73" width="9.81" height="9.8"/><rect class="cls-4" x="299.97" y="284.96" width="9.8" height="9.81"/><rect class="cls-3" x="299.97" y="275.16" width="9.8" height="9.8"/><rect class="cls-3" x="299.97" y="265.35" width="9.8" height="9.81"/><rect class="cls-3" x="299.97" y="255.55" width="9.8" height="9.8"/><rect class="cls-4" x="299.97" y="245.75" width="9.8" height="9.8"/><rect class="cls-4" x="299.97" y="235.94" width="9.8" height="9.81"/><rect class="cls-3" x="299.97" y="226.14" width="9.8" height="9.8"/><rect class="cls-3" x="299.97" y="216.33" width="9.8" height="9.81"/><rect class="cls-3" x="299.97" y="206.53" width="9.8" height="9.8"/><rect class="cls-2" x="299.97" y="196.73" width="9.8" height="9.8"/><rect class="cls-5" x="299.97" y="157.51" width="9.8" height="9.8"/><rect class="cls-6" x="290.17" y="304.57" width="9.8" height="9.8"/><rect class="cls-6" x="290.17" y="294.77" width="9.8" height="9.8"/><rect class="cls-4" x="290.17" y="284.96" width="9.8" height="9.81"/><rect class="cls-3" x="290.17" y="275.16" width="9.8" height="9.8"/><rect class="cls-4" x="290.17" y="265.35" width="9.8" height="9.81"/><rect class="cls-6" x="290.17" y="255.55" width="9.8" height="9.8"/><rect class="cls-6" x="290.17" y="245.75" width="9.8" height="9.8"/><rect class="cls-6" x="290.17" y="235.94" width="9.8" height="9.81"/><rect class="cls-4" x="290.17" y="226.14" width="9.8" height="9.8"/><rect class="cls-3" x="290.17" y="216.33" width="9.8" height="9.81"/><rect class="cls-3" x="290.17" y="206.53" width="9.8" height="9.8"/><rect class="cls-1" x="290.17" y="196.73" width="9.8" height="9.8"/><rect class="cls-1" x="290.17" y="186.92" width="9.8" height="9.81"/><rect class="cls-1" x="290.17" y="177.12" width="9.8" height="9.8"/><rect class="cls-5" x="290.17" y="167.31" width="9.8" height="9.81"/><rect class="cls-5" x="290.17" y="157.51" width="9.8" height="9.8"/><rect class="cls-6" x="280.36" y="314.37" width="9.81" height="9.81"/><rect class="cls-6" x="280.36" y="304.57" width="9.81" height="9.8"/><rect class="cls-6" x="280.36" y="294.77" width="9.81" height="9.8"/><rect class="cls-4" x="280.36" y="284.96" width="9.81" height="9.81"/><rect class="cls-3" x="280.36" y="275.16" width="9.81" height="9.8"/><rect class="cls-4" x="280.36" y="265.35" width="9.81" height="9.81"/><rect class="cls-6" x="280.36" y="255.55" width="9.81" height="9.8"/><rect class="cls-4" x="280.36" y="245.75" width="9.81" height="9.8"/><rect class="cls-6" x="280.36" y="235.94" width="9.81" height="9.81"/><rect class="cls-3" x="280.36" y="226.14" width="9.81" height="9.8"/><rect class="cls-7" x="280.36" y="216.33" width="9.81" height="9.81"/><rect class="cls-7" x="280.36" y="206.53" width="9.81" height="9.8"/><rect class="cls-1" x="280.36" y="196.73" width="9.81" height="9.8"/><rect class="cls-1" x="280.36" y="186.92" width="9.81" height="9.81"/><rect class="cls-1" x="280.36" y="177.12" width="9.81" height="9.8"/><rect class="cls-5" x="280.36" y="167.31" width="9.81" height="9.81"/><rect class="cls-5" x="280.36" y="157.51" width="9.81" height="9.8"/><rect class="cls-3" x="270.56" y="324.18" width="9.8" height="9.8"/><rect class="cls-6" x="270.56" y="314.37" width="9.8" height="9.81"/><rect class="cls-6" x="270.56" y="304.57" width="9.8" height="9.8"/><rect class="cls-6" x="270.56" y="294.77" width="9.8" height="9.8"/><rect class="cls-4" x="270.56" y="284.96" width="9.8" height="9.81"/><rect class="cls-3" x="270.56" y="275.16" width="9.8" height="9.8"/><rect class="cls-3" x="270.56" y="265.35" width="9.8" height="9.81"/><rect class="cls-4" x="270.56" y="255.55" width="9.8" height="9.8"/><rect class="cls-4" x="270.56" y="245.75" width="9.8" height="9.8"/><rect class="cls-6" x="270.56" y="235.94" width="9.8" height="9.81"/><rect class="cls-3" x="270.56" y="226.14" width="9.8" height="9.8"/><rect class="cls-7" x="270.56" y="216.33" width="9.8" height="9.81"/><rect class="cls-7" x="270.56" y="206.53" width="9.8" height="9.8"/><rect class="cls-1" x="270.56" y="196.73" width="9.8" height="9.8"/><rect class="cls-1" x="270.56" y="186.92" width="9.8" height="9.81"/><rect class="cls-5" x="270.56" y="177.12" width="9.8" height="9.8"/><rect class="cls-5" x="270.56" y="167.31" width="9.8" height="9.81"/><rect class="cls-5" x="270.56" y="157.51" width="9.8" height="9.8"/><rect class="cls-3" x="260.75" y="324.18" width="9.81" height="9.8"/><rect class="cls-6" x="260.75" y="314.37" width="9.81" height="9.81"/><rect class="cls-6" x="260.75" y="304.57" width="9.81" height="9.8"/><rect class="cls-6" x="260.75" y="294.77" width="9.81" height="9.8"/><rect class="cls-4" x="260.75" y="284.96" width="9.81" height="9.81"/><rect class="cls-3" x="260.75" y="275.16" width="9.81" height="9.8"/><rect class="cls-3" x="260.75" y="265.35" width="9.81" height="9.81"/><rect class="cls-3" x="260.75" y="255.55" width="9.81" height="9.8"/><rect class="cls-4" x="260.75" y="245.75" width="9.81" height="9.8"/><rect class="cls-4" x="260.75" y="235.94" width="9.81" height="9.81"/><rect class="cls-2" x="260.75" y="226.14" width="9.81" height="9.8"/><rect class="cls-6" x="260.75" y="216.33" width="9.81" height="9.81"/><rect class="cls-6" x="260.75" y="206.53" width="9.81" height="9.8"/><rect class="cls-6" x="260.75" y="196.73" width="9.81" height="9.8"/><rect class="cls-5" x="260.75" y="186.92" width="9.81" height="9.81"/><rect class="cls-5" x="260.75" y="177.12" width="9.81" height="9.8"/><rect class="cls-5" x="260.75" y="167.31" width="9.81" height="9.81"/><rect class="cls-3" x="250.95" y="333.98" width="9.8" height="9.81"/><rect class="cls-3" x="250.95" y="324.18" width="9.8" height="9.8"/><rect class="cls-6" x="250.95" y="314.37" width="9.8" height="9.81"/><rect class="cls-6" x="250.95" y="304.57" width="9.8" height="9.8"/><rect class="cls-6" x="250.95" y="294.77" width="9.8" height="9.8"/><rect class="cls-4" x="250.95" y="284.96" width="9.8" height="9.81"/><rect class="cls-3" x="250.95" y="275.16" width="9.8" height="9.8"/><rect class="cls-3" x="250.95" y="265.35" width="9.8" height="9.81"/><rect class="cls-3" x="250.95" y="255.55" width="9.8" height="9.8"/><rect class="cls-3" x="250.95" y="245.75" width="9.8" height="9.8"/><rect class="cls-3" x="250.95" y="235.94" width="9.8" height="9.81"/><rect class="cls-2" x="250.95" y="226.14" width="9.8" height="9.8"/><rect class="cls-6" x="250.95" y="216.33" width="9.8" height="9.81"/><rect class="cls-6" x="250.95" y="206.53" width="9.8" height="9.8"/><rect class="cls-6" x="250.95" y="196.73" width="9.8" height="9.8"/><rect class="cls-3" x="241.15" y="343.79" width="9.8" height="9.8"/><rect class="cls-3" x="241.15" y="333.98" width="9.8" height="9.81"/><rect class="cls-3" x="241.15" y="324.18" width="9.8" height="9.8"/><rect class="cls-6" x="241.15" y="314.37" width="9.8" height="9.81"/><rect class="cls-6" x="241.15" y="304.57" width="9.8" height="9.8"/><rect class="cls-6" x="241.15" y="294.77" width="9.8" height="9.8"/><rect class="cls-4" x="241.15" y="284.96" width="9.8" height="9.81"/><rect class="cls-3" x="241.15" y="275.16" width="9.8" height="9.8"/><rect class="cls-3" x="241.15" y="265.35" width="9.8" height="9.81"/><rect class="cls-3" x="241.15" y="255.55" width="9.8" height="9.8"/><rect class="cls-3" x="241.15" y="245.75" width="9.8" height="9.8"/><rect class="cls-3" x="241.15" y="235.94" width="9.8" height="9.81"/><rect class="cls-2" x="241.15" y="226.14" width="9.8" height="9.8"/><rect class="cls-2" x="241.15" y="216.33" width="9.8" height="9.81"/><rect class="cls-6" x="241.15" y="206.53" width="9.8" height="9.8"/><rect class="cls-6" x="241.15" y="196.73" width="9.8" height="9.8"/><rect class="cls-3" x="231.34" y="343.79" width="9.81" height="9.8"/><rect class="cls-3" x="231.34" y="333.98" width="9.81" height="9.81"/><rect class="cls-3" x="231.34" y="324.18" width="9.81" height="9.8"/><rect class="cls-6" x="231.34" y="314.37" width="9.81" height="9.81"/><rect class="cls-6" x="231.34" y="304.57" width="9.81" height="9.8"/><rect class="cls-6" x="231.34" y="294.77" width="9.81" height="9.8"/><rect class="cls-4" x="231.34" y="284.96" width="9.81" height="9.81"/><rect class="cls-4" x="231.34" y="275.16" width="9.81" height="9.8"/><rect class="cls-3" x="231.34" y="265.35" width="9.81" height="9.81"/><rect class="cls-3" x="231.34" y="255.55" width="9.81" height="9.8"/><rect class="cls-3" x="231.34" y="245.75" width="9.81" height="9.8"/><rect class="cls-2" x="231.34" y="235.94" width="9.81" height="9.81"/><rect class="cls-2" x="231.34" y="226.14" width="9.81" height="9.8"/><rect class="cls-6" x="231.34" y="216.33" width="9.81" height="9.81"/><rect class="cls-6" x="231.34" y="206.53" width="9.81" height="9.8"/><rect class="cls-3" x="221.54" y="353.59" width="9.8" height="9.8"/><rect class="cls-3" x="221.54" y="343.79" width="9.8" height="9.8"/><rect class="cls-3" x="221.54" y="333.98" width="9.8" height="9.81"/><rect class="cls-3" x="221.54" y="324.18" width="9.8" height="9.8"/><rect class="cls-6" x="221.54" y="314.37" width="9.8" height="9.81"/><rect class="cls-6" x="221.54" y="304.57" width="9.8" height="9.8"/><rect class="cls-6" x="221.54" y="294.77" width="9.8" height="9.8"/><rect class="cls-4" x="221.54" y="284.96" width="9.8" height="9.81"/><rect class="cls-4" x="221.54" y="275.16" width="9.8" height="9.8"/><rect class="cls-2" x="221.54" y="255.55" width="9.8" height="9.8"/><rect class="cls-2" x="221.54" y="245.75" width="9.8" height="9.8"/><rect class="cls-2" x="221.54" y="235.94" width="9.8" height="9.81"/><rect class="cls-2" x="221.54" y="226.14" width="9.8" height="9.8"/><rect class="cls-6" x="221.54" y="216.33" width="9.8" height="9.81"/><rect class="cls-6" x="221.54" y="206.53" width="9.8" height="9.8"/><rect class="cls-3" x="211.73" y="353.59" width="9.81" height="9.8"/><rect class="cls-3" x="211.73" y="343.79" width="9.81" height="9.8"/><rect class="cls-3" x="211.73" y="333.98" width="9.81" height="9.81"/><rect class="cls-3" x="211.73" y="324.18" width="9.81" height="9.8"/><rect class="cls-6" x="211.73" y="314.37" width="9.81" height="9.81"/><rect class="cls-6" x="211.73" y="304.57" width="9.81" height="9.8"/><rect class="cls-6" x="211.73" y="294.77" width="9.81" height="9.8"/><rect class="cls-1" x="211.73" y="275.16" width="9.81" height="9.8"/><rect class="cls-2" x="211.73" y="265.35" width="9.81" height="9.81"/><rect class="cls-2" x="211.73" y="255.55" width="9.81" height="9.8"/><rect class="cls-2" x="211.73" y="245.75" width="9.81" height="9.8"/><rect class="cls-2" x="211.73" y="235.94" width="9.81" height="9.81"/><rect class="cls-6" x="211.73" y="226.14" width="9.81" height="9.8"/><rect class="cls-6" x="211.73" y="216.33" width="9.81" height="9.81"/><rect class="cls-3" x="201.93" y="363.39" width="9.8" height="9.81"/><rect class="cls-3" x="201.93" y="353.59" width="9.8" height="9.8"/><rect class="cls-3" x="201.93" y="343.79" width="9.8" height="9.8"/><rect class="cls-3" x="201.93" y="333.98" width="9.8" height="9.81"/><rect class="cls-3" x="201.93" y="324.18" width="9.8" height="9.8"/><rect class="cls-3" x="201.93" y="314.37" width="9.8" height="9.81"/><rect class="cls-6" x="201.93" y="304.57" width="9.8" height="9.8"/><rect class="cls-1" x="201.93" y="284.96" width="9.8" height="9.81"/><rect class="cls-1" x="201.93" y="275.16" width="9.8" height="9.8"/><rect class="cls-2" x="201.93" y="265.35" width="9.8" height="9.81"/><rect class="cls-2" x="201.93" y="255.55" width="9.8" height="9.8"/><rect class="cls-6" x="201.93" y="245.75" width="9.8" height="9.8"/><rect class="cls-6" x="201.93" y="235.94" width="9.8" height="9.81"/><rect class="cls-6" x="201.93" y="226.14" width="9.8" height="9.8"/><rect class="cls-3" x="192.13" y="363.39" width="9.8" height="9.81"/><rect class="cls-3" x="192.13" y="353.59" width="9.8" height="9.8"/><rect class="cls-3" x="192.13" y="343.79" width="9.8" height="9.8"/><rect class="cls-3" x="192.13" y="333.98" width="9.8" height="9.81"/><rect class="cls-3" x="192.13" y="324.18" width="9.8" height="9.8"/><rect class="cls-3" x="192.13" y="314.37" width="9.8" height="9.81"/><rect class="cls-6" x="192.13" y="284.96" width="9.8" height="9.81"/><rect class="cls-6" x="192.13" y="275.16" width="9.8" height="9.8"/><rect class="cls-6" x="192.13" y="265.35" width="9.8" height="9.81"/><rect class="cls-6" x="192.13" y="255.55" width="9.8" height="9.8"/><rect class="cls-6" x="192.13" y="245.75" width="9.8" height="9.8"/><rect class="cls-6" x="192.13" y="235.94" width="9.8" height="9.81"/><rect class="cls-8" x="182.32" y="373.2" width="9.81" height="9.8"/><rect class="cls-3" x="182.32" y="363.39" width="9.81" height="9.81"/><rect class="cls-3" x="182.32" y="353.59" width="9.81" height="9.8"/><rect class="cls-3" x="182.32" y="333.98" width="9.81" height="9.81"/><rect class="cls-3" x="182.32" y="324.18" width="9.81" height="9.8"/><rect class="cls-3" x="182.32" y="314.37" width="9.81" height="9.81"/><rect class="cls-6" x="182.32" y="284.96" width="9.81" height="9.81"/><rect class="cls-6" x="182.32" y="275.16" width="9.81" height="9.8"/><rect class="cls-6" x="182.32" y="265.35" width="9.81" height="9.81"/><rect class="cls-6" x="182.32" y="255.55" width="9.81" height="9.8"/><rect class="cls-6" x="182.32" y="245.75" width="9.81" height="9.8"/><rect class="cls-6" x="182.32" y="235.94" width="9.81" height="9.81"/><rect class="cls-8" x="172.52" y="373.2" width="9.8" height="9.8"/><rect class="cls-3" x="172.52" y="363.39" width="9.8" height="9.81"/><rect class="cls-3" x="172.52" y="343.79" width="9.8" height="9.8"/><rect class="cls-3" x="172.52" y="333.98" width="9.8" height="9.81"/><rect class="cls-3" x="172.52" y="324.18" width="9.8" height="9.8"/><rect class="cls-6" x="172.52" y="294.77" width="9.8" height="9.8"/><rect class="cls-6" x="172.52" y="284.96" width="9.8" height="9.81"/><rect class="cls-6" x="172.52" y="275.16" width="9.8" height="9.8"/><rect class="cls-6" x="172.52" y="265.35" width="9.8" height="9.81"/><rect class="cls-6" x="172.52" y="255.55" width="9.8" height="9.8"/><rect class="cls-6" x="172.52" y="245.75" width="9.8" height="9.8"/><rect class="cls-8" x="162.71" y="373.2" width="9.81" height="9.8"/><rect class="cls-8" x="162.71" y="363.39" width="9.81" height="9.81"/><rect class="cls-3" x="162.71" y="353.59" width="9.81" height="9.8"/><rect class="cls-3" x="162.71" y="343.79" width="9.81" height="9.8"/><rect class="cls-3" x="162.71" y="333.98" width="9.81" height="9.81"/><rect class="cls-3" x="162.71" y="324.18" width="9.81" height="9.8"/><rect class="cls-6" x="162.71" y="294.77" width="9.81" height="9.8"/><rect class="cls-6" x="162.71" y="284.96" width="9.81" height="9.81"/><rect class="cls-6" x="162.71" y="275.16" width="9.81" height="9.8"/><rect class="cls-6" x="162.71" y="265.35" width="9.81" height="9.81"/><rect class="cls-6" x="162.71" y="255.55" width="9.81" height="9.8"/><rect class="cls-3" x="152.91" y="353.59" width="9.8" height="9.8"/><rect class="cls-3" x="152.91" y="343.79" width="9.8" height="9.8"/><rect class="cls-3" x="152.91" y="333.98" width="9.8" height="9.81"/><rect class="cls-6" x="152.91" y="294.77" width="9.8" height="9.8"/><rect class="cls-6" x="152.91" y="284.96" width="9.8" height="9.81"/><rect class="cls-6" x="152.91" y="275.16" width="9.8" height="9.8"/><rect class="cls-6" x="152.91" y="265.35" width="9.8" height="9.81"/><rect class="cls-6" x="152.91" y="255.55" width="9.8" height="9.8"/><rect class="cls-8" x="143.11" y="363.39" width="9.8" height="9.81"/><rect class="cls-3" x="143.11" y="353.59" width="9.8" height="9.8"/><rect class="cls-3" x="143.11" y="343.79" width="9.8" height="9.8"/><rect class="cls-6" x="143.11" y="304.57" width="9.8" height="9.8"/><rect class="cls-6" x="143.11" y="294.77" width="9.8" height="9.8"/><rect class="cls-6" x="143.11" y="284.96" width="9.8" height="9.81"/><rect class="cls-6" x="143.11" y="275.16" width="9.8" height="9.8"/><rect class="cls-6" x="143.11" y="265.35" width="9.8" height="9.81"/><rect class="cls-6" x="143.11" y="255.55" width="9.8" height="9.8"/><rect class="cls-6" x="143.11" y="245.75" width="9.8" height="9.8"/><rect class="cls-8" x="133.3" y="363.39" width="9.81" height="9.81"/><rect class="cls-8" x="133.3" y="353.59" width="9.81" height="9.8"/><rect class="cls-6" x="133.3" y="304.57" width="9.81" height="9.8"/><rect class="cls-6" x="133.3" y="294.77" width="9.81" height="9.8"/><rect class="cls-6" x="133.3" y="284.96" width="9.81" height="9.81"/><rect class="cls-6" x="133.3" y="275.16" width="9.81" height="9.8"/><rect class="cls-6" x="133.3" y="265.35" width="9.81" height="9.81"/><rect class="cls-8" x="123.5" y="363.39" width="9.8" height="9.81"/><rect class="cls-8" x="123.5" y="353.59" width="9.8" height="9.8"/></svg>