<svg id="Layer_1" data-name="Layer 1" xmlns="http://www.w3.org/2000/svg" viewBox="0 0 500 500"><defs><style>.cls-1{fill:#7fae81;}.cls-2{fill:#fff;}.cls-3{fill:#75c37f;}.cls-4{fill:#bfe0b8;}.cls-5{fill:#aa8b4d;}.cls-6{fill:#8ac652;}.cls-7{fill:#8cc866;}.cls-8{fill:#97ce84;}.cls-9{fill:#9bd197;}</style></defs><rect class="cls-1" x="490.48" y="490.19" width="9.8" height="9.81"/><rect class="cls-1" x="490.48" y="480.39" width="9.8" height="9.8"/><rect class="cls-1" x="490.48" y="470.58" width="9.8" height="9.81"/><rect class="cls-1" x="490.48" y="460.78" width="9.8" height="9.8"/><rect class="cls-1" x="490.48" y="450.98" width="9.8" height="9.8"/><rect class="cls-1" x="490.48" y="441.17" width="9.8" height="9.81"/><rect class="cls-1" x="490.48" y="431.37" width="9.8" height="9.8"/><rect class="cls-1" x="490.48" y="421.57" width="9.8" height="9.8"/><rect class="cls-1" x="490.48" y="411.76" width="9.8" height="9.81"/><rect class="cls-1" x="480.67" y="490.19" width="9.81" height="9.81"/><rect class="cls-1" x="480.67" y="480.39" width="9.81" height="9.8"/><rect class="cls-2" x="480.67" y="470.58" width="9.81" height="9.81"/><rect class="cls-1" x="480.67" y="460.78" width="9.81" height="9.8"/><rect class="cls-1" x="480.67" y="450.98" width="9.81" height="9.8"/><rect class="cls-2" x="480.67" y="441.17" width="9.81" height="9.81"/><rect class="cls-2" x="480.67" y="431.37" width="9.81" height="9.8"/><rect class="cls-3" x="480.67" y="421.57" width="9.81" height="9.8"/><rect class="cls-3" x="480.67" y="411.76" width="9.81" height="9.81"/><rect class="cls-4" x="480.67" y="401.96" width="9.81" height="9.8"/><rect class="cls-1" x="470.87" y="490.19" width="9.8" height="9.81"/><rect class="cls-1" x="470.87" y="480.39" width="9.8" height="9.8"/><rect class="cls-1" x="470.87" y="470.58" width="9.8" height="9.81"/><rect class="cls-1" x="470.87" y="460.78" width="9.8" height="9.8"/><rect class="cls-2" x="470.87" y="450.98" width="9.8" height="9.8"/><rect class="cls-2" x="470.87" y="441.17" width="9.8" height="9.81"/><rect class="cls-3" x="470.87" y="431.37" width="9.8" height="9.8"/><rect class="cls-3" x="470.87" y="421.57" width="9.8" height="9.8"/><rect class="cls-3" x="470.87" y="411.76" width="9.8" height="9.81"/><rect class="cls-3" x="470.87" y="401.96" width="9.8" height="9.8"/><rect class="cls-3" x="470.87" y="392.15" width="9.8" height="9.81"/><rect class="cls-1" x="461.06" y="490.19" width="9.81" height="9.81"/><rect class="cls-1" x="461.06" y="480.39" width="9.81" height="9.8"/><rect class="cls-1" x="461.06" y="470.58" width="9.81" height="9.81"/><rect class="cls-2" x="461.06" y="460.78" width="9.81" height="9.8"/><rect class="cls-2" x="461.06" y="450.98" width="9.81" height="9.8"/><rect class="cls-2" x="461.06" y="441.17" width="9.81" height="9.81"/><rect class="cls-3" x="461.06" y="431.37" width="9.81" height="9.8"/><rect class="cls-3" x="461.06" y="421.57" width="9.81" height="9.8"/><rect class="cls-3" x="461.06" y="411.76" width="9.81" height="9.81"/><rect class="cls-3" x="461.06" y="401.96" width="9.81" height="9.8"/><rect class="cls-3" x="461.06" y="392.15" width="9.81" height="9.81"/><rect class="cls-4" x="461.06" y="382.35" width="9.81" height="9.8"/><rect class="cls-1" x="451.26" y="490.19" width="9.8" height="9.81"/><rect class="cls-1" x="451.26" y="480.39" width="9.8" height="9.8"/><rect class="cls-1" x="451.26" y="470.58" width="9.8" height="9.81"/><rect class="cls-2" x="451.26" y="460.78" width="9.8" height="9.8"/><rect class="cls-5" x="451.26" y="450.98" width="9.8" height="9.8"/><rect class="cls-5" x="451.26" y="441.17" width="9.8" height="9.81"/><rect class="cls-3" x="451.26" y="431.37" width="9.8" height="9.8"/><rect class="cls-3" x="451.26" y="421.57" width="9.8" height="9.8"/><rect class="cls-3" x="451.26" y="411.76" width="9.8" height="9.81"/><rect class="cls-3" x="451.26" y="401.96" width="9.8" height="9.8"/><rect class="cls-3" x="451.26" y="392.15" width="9.8" height="9.81"/><rect class="cls-3" x="451.26" y="382.35" width="9.8" height="9.8"/><rect class="cls-4" x="451.26" y="372.55" width="9.8" height="9.8"/><rect class="cls-1" x="441.46" y="490.19" width="9.8" height="9.81"/><rect class="cls-1" x="441.46" y="480.39" width="9.8" height="9.8"/><rect class="cls-1" x="441.46" y="470.58" width="9.8" height="9.81"/><rect class="cls-1" x="441.46" y="460.78" width="9.8" height="9.8"/><rect class="cls-5" x="441.46" y="450.98" width="9.8" height="9.8"/><rect class="cls-5" x="441.46" y="441.17" width="9.8" height="9.81"/><rect class="cls-3" x="441.46" y="431.37" width="9.8" height="9.8"/><rect class="cls-3" x="441.46" y="421.57" width="9.8" height="9.8"/><rect class="cls-3" x="441.46" y="411.76" width="9.8" height="9.81"/><rect class="cls-3" x="441.46" y="401.96" width="9.8" height="9.8"/><rect class="cls-3" x="441.46" y="392.15" width="9.8" height="9.81"/><rect class="cls-3" x="441.46" y="382.35" width="9.8" height="9.8"/><rect class="cls-3" x="441.46" y="372.55" width="9.8" height="9.8"/><rect class="cls-1" x="431.65" y="490.19" width="9.81" height="9.81"/><rect class="cls-1" x="431.65" y="480.39" width="9.81" height="9.8"/><rect class="cls-1" x="431.65" y="470.58" width="9.81" height="9.81"/><rect class="cls-1" x="431.65" y="460.78" width="9.81" height="9.8"/><rect class="cls-2" x="431.65" y="450.98" width="9.81" height="9.8"/><rect class="cls-2" x="431.65" y="441.17" width="9.81" height="9.81"/><rect class="cls-3" x="431.65" y="431.37" width="9.81" height="9.8"/><rect class="cls-3" x="431.65" y="421.57" width="9.81" height="9.8"/><rect class="cls-3" x="431.65" y="411.76" width="9.81" height="9.81"/><rect class="cls-3" x="431.65" y="401.96" width="9.81" height="9.8"/><rect class="cls-3" x="431.65" y="392.15" width="9.81" height="9.81"/><rect class="cls-3" x="431.65" y="382.35" width="9.81" height="9.8"/><rect class="cls-1" x="421.85" y="490.19" width="9.8" height="9.81"/><rect class="cls-1" x="421.85" y="480.39" width="9.8" height="9.8"/><rect class="cls-2" x="421.85" y="470.58" width="9.8" height="9.81"/><rect class="cls-1" x="421.85" y="460.78" width="9.8" height="9.8"/><rect class="cls-1" x="421.85" y="450.98" width="9.8" height="9.8"/><rect class="cls-2" x="421.85" y="441.17" width="9.8" height="9.81"/><rect class="cls-3" x="421.85" y="431.37" width="9.8" height="9.8"/><rect class="cls-3" x="421.85" y="421.57" width="9.8" height="9.8"/><rect class="cls-3" x="421.85" y="411.76" width="9.8" height="9.81"/><rect class="cls-3" x="421.85" y="401.96" width="9.8" height="9.8"/><rect class="cls-3" x="421.85" y="392.15" width="9.8" height="9.81"/><rect class="cls-1" x="412.04" y="490.19" width="9.81" height="9.81"/><rect class="cls-1" x="412.04" y="480.39" width="9.81" height="9.8"/><rect class="cls-2" x="412.04" y="470.58" width="9.81" height="9.81"/><rect class="cls-1" x="412.04" y="460.78" width="9.81" height="9.8"/><rect class="cls-1" x="412.04" y="450.98" width="9.81" height="9.8"/><rect class="cls-1" x="412.04" y="441.17" width="9.81" height="9.81"/><rect class="cls-1" x="412.04" y="431.37" width="9.81" height="9.8"/><rect class="cls-3" x="412.04" y="421.57" width="9.81" height="9.8"/><rect class="cls-3" x="412.04" y="411.76" width="9.81" height="9.81"/><rect class="cls-3" x="412.04" y="401.96" width="9.81" height="9.8"/><rect class="cls-3" x="412.04" y="352.94" width="9.81" height="9.8"/><rect class="cls-4" x="412.04" y="343.13" width="9.81" height="9.81"/><rect class="cls-1" x="402.24" y="490.19" width="9.8" height="9.81"/><rect class="cls-1" x="402.24" y="480.39" width="9.8" height="9.8"/><rect class="cls-2" x="402.24" y="470.58" width="9.8" height="9.81"/><rect class="cls-1" x="402.24" y="460.78" width="9.8" height="9.8"/><rect class="cls-2" x="402.24" y="450.98" width="9.8" height="9.8"/><rect class="cls-6" x="402.24" y="441.17" width="9.8" height="9.81"/><rect class="cls-1" x="402.24" y="431.37" width="9.8" height="9.8"/><rect class="cls-1" x="402.24" y="421.57" width="9.8" height="9.8"/><rect class="cls-1" x="402.24" y="411.76" width="9.8" height="9.81"/><rect class="cls-3" x="402.24" y="362.74" width="9.8" height="9.81"/><rect class="cls-3" x="402.24" y="352.94" width="9.8" height="9.8"/><rect class="cls-3" x="402.24" y="343.13" width="9.8" height="9.81"/><rect class="cls-7" x="402.24" y="333.33" width="9.8" height="9.8"/><rect class="cls-1" x="392.44" y="490.19" width="9.8" height="9.81"/><rect class="cls-1" x="392.44" y="480.39" width="9.8" height="9.8"/><rect class="cls-2" x="392.44" y="470.58" width="9.8" height="9.81"/><rect class="cls-1" x="392.44" y="460.78" width="9.8" height="9.8"/><rect class="cls-2" x="392.44" y="450.98" width="9.8" height="9.8"/><rect class="cls-1" x="392.44" y="441.17" width="9.8" height="9.81"/><rect class="cls-1" x="392.44" y="431.37" width="9.8" height="9.8"/><rect class="cls-1" x="392.44" y="421.57" width="9.8" height="9.8"/><rect class="cls-1" x="392.44" y="411.76" width="9.8" height="9.81"/><rect class="cls-5" x="392.44" y="401.96" width="9.8" height="9.8"/><rect class="cls-5" x="392.44" y="392.15" width="9.8" height="9.81"/><rect class="cls-5" x="392.44" y="382.35" width="9.8" height="9.8"/><rect class="cls-5" x="392.44" y="372.55" width="9.8" height="9.8"/><rect class="cls-3" x="392.44" y="362.74" width="9.8" height="9.81"/><rect class="cls-3" x="392.44" y="352.94" width="9.8" height="9.8"/><rect class="cls-3" x="392.44" y="343.13" width="9.8" height="9.81"/><rect class="cls-3" x="392.44" y="333.33" width="9.8" height="9.8"/><rect class="cls-4" x="392.44" y="323.53" width="9.8" height="9.8"/><rect class="cls-1" x="382.63" y="490.19" width="9.81" height="9.81"/><rect class="cls-2" x="382.63" y="480.39" width="9.81" height="9.8"/><rect class="cls-1" x="382.63" y="470.58" width="9.81" height="9.81"/><rect class="cls-1" x="382.63" y="460.78" width="9.81" height="9.8"/><rect class="cls-1" x="382.63" y="450.98" width="9.81" height="9.8"/><rect class="cls-1" x="382.63" y="441.17" width="9.81" height="9.81"/><rect class="cls-1" x="382.63" y="431.37" width="9.81" height="9.8"/><rect class="cls-1" x="382.63" y="421.57" width="9.81" height="9.8"/><rect class="cls-1" x="382.63" y="411.76" width="9.81" height="9.81"/><rect class="cls-5" x="382.63" y="401.96" width="9.81" height="9.8"/><rect class="cls-5" x="382.63" y="392.15" width="9.81" height="9.81"/><rect class="cls-5" x="382.63" y="382.35" width="9.81" height="9.8"/><rect class="cls-5" x="382.63" y="372.55" width="9.81" height="9.8"/><rect class="cls-3" x="382.63" y="362.74" width="9.81" height="9.81"/><rect class="cls-3" x="382.63" y="352.94" width="9.81" height="9.8"/><rect class="cls-3" x="382.63" y="343.13" width="9.81" height="9.81"/><rect class="cls-3" x="382.63" y="333.33" width="9.81" height="9.8"/><rect class="cls-3" x="382.63" y="323.53" width="9.81" height="9.8"/><rect class="cls-1" x="372.83" y="490.19" width="9.8" height="9.81"/><rect class="cls-1" x="372.83" y="480.39" width="9.8" height="9.8"/><rect class="cls-1" x="372.83" y="470.58" width="9.8" height="9.81"/><rect class="cls-1" x="372.83" y="460.78" width="9.8" height="9.8"/><rect class="cls-1" x="372.83" y="450.98" width="9.8" height="9.8"/><rect class="cls-1" x="372.83" y="441.17" width="9.8" height="9.81"/><rect class="cls-2" x="372.83" y="431.37" width="9.8" height="9.8"/><rect class="cls-1" x="372.83" y="421.57" width="9.8" height="9.8"/><rect class="cls-1" x="372.83" y="411.76" width="9.8" height="9.81"/><rect class="cls-4" x="372.83" y="401.96" width="9.8" height="9.8"/><rect class="cls-3" x="372.83" y="362.74" width="9.8" height="9.81"/><rect class="cls-3" x="372.83" y="352.94" width="9.8" height="9.8"/><rect class="cls-3" x="372.83" y="343.13" width="9.8" height="9.81"/><rect class="cls-3" x="372.83" y="333.33" width="9.8" height="9.8"/><rect class="cls-1" x="363.03" y="490.19" width="9.8" height="9.81"/><rect class="cls-1" x="363.03" y="480.39" width="9.8" height="9.8"/><rect class="cls-1" x="363.03" y="470.58" width="9.8" height="9.81"/><rect class="cls-1" x="363.03" y="460.78" width="9.8" height="9.8"/><rect class="cls-1" x="363.03" y="450.98" width="9.8" height="9.8"/><rect class="cls-1" x="363.03" y="441.17" width="9.8" height="9.81"/><rect class="cls-1" x="363.03" y="431.37" width="9.8" height="9.8"/><rect class="cls-3" x="363.03" y="421.57" width="9.8" height="9.8"/><rect class="cls-3" x="363.03" y="411.76" width="9.8" height="9.81"/><rect class="cls-4" x="363.03" y="401.96" width="9.8" height="9.8"/><rect class="cls-4" x="363.03" y="392.15" width="9.8" height="9.81"/><rect class="cls-3" x="363.03" y="352.94" width="9.8" height="9.8"/><rect class="cls-3" x="363.03" y="343.13" width="9.8" height="9.81"/><rect class="cls-1" x="353.22" y="490.19" width="9.81" height="9.81"/><rect class="cls-1" x="353.22" y="480.39" width="9.81" height="9.8"/><rect class="cls-1" x="353.22" y="470.58" width="9.81" height="9.81"/><rect class="cls-1" x="353.22" y="460.78" width="9.81" height="9.8"/><rect class="cls-1" x="353.22" y="450.98" width="9.81" height="9.8"/><rect class="cls-2" x="353.22" y="441.17" width="9.81" height="9.81"/><rect class="cls-1" x="353.22" y="431.37" width="9.81" height="9.8"/><rect class="cls-3" x="353.22" y="421.57" width="9.81" height="9.8"/><rect class="cls-3" x="353.22" y="411.76" width="9.81" height="9.81"/><rect class="cls-3" x="353.22" y="401.96" width="9.81" height="9.8"/><rect class="cls-3" x="353.22" y="392.15" width="9.81" height="9.81"/><rect class="cls-4" x="353.22" y="382.35" width="9.81" height="9.8"/><rect class="cls-1" x="343.42" y="490.19" width="9.8" height="9.81"/><rect class="cls-1" x="343.42" y="480.39" width="9.8" height="9.8"/><rect class="cls-1" x="343.42" y="470.58" width="9.8" height="9.81"/><rect class="cls-2" x="343.42" y="460.78" width="9.8" height="9.8"/><rect class="cls-5" x="343.42" y="450.98" width="9.8" height="9.8"/><rect class="cls-5" x="343.42" y="441.17" width="9.8" height="9.81"/><rect class="cls-5" x="343.42" y="431.37" width="9.8" height="9.8"/><rect class="cls-3" x="343.42" y="421.57" width="9.8" height="9.8"/><rect class="cls-3" x="343.42" y="411.76" width="9.8" height="9.81"/><rect class="cls-3" x="343.42" y="401.96" width="9.8" height="9.8"/><rect class="cls-3" x="343.42" y="392.15" width="9.8" height="9.81"/><rect class="cls-4" x="343.42" y="382.35" width="9.8" height="9.8"/><rect class="cls-4" x="343.42" y="372.55" width="9.8" height="9.8"/><rect class="cls-1" x="333.61" y="490.19" width="9.81" height="9.81"/><rect class="cls-1" x="333.61" y="480.39" width="9.81" height="9.8"/><rect class="cls-1" x="333.61" y="470.58" width="9.81" height="9.81"/><rect class="cls-2" x="333.61" y="460.78" width="9.81" height="9.8"/><rect class="cls-5" x="333.61" y="450.98" width="9.81" height="9.8"/><rect class="cls-5" x="333.61" y="441.17" width="9.81" height="9.81"/><rect class="cls-5" x="333.61" y="431.37" width="9.81" height="9.8"/><rect class="cls-3" x="333.61" y="421.57" width="9.81" height="9.8"/><rect class="cls-3" x="333.61" y="411.76" width="9.81" height="9.81"/><rect class="cls-3" x="333.61" y="401.96" width="9.81" height="9.8"/><rect class="cls-3" x="333.61" y="392.15" width="9.81" height="9.81"/><rect class="cls-3" x="333.61" y="382.35" width="9.81" height="9.8"/><rect class="cls-3" x="333.61" y="372.55" width="9.81" height="9.8"/><rect class="cls-1" x="323.81" y="490.19" width="9.8" height="9.81"/><rect class="cls-2" x="323.81" y="480.39" width="9.8" height="9.8"/><rect class="cls-1" x="323.81" y="470.58" width="9.8" height="9.81"/><rect class="cls-2" x="323.81" y="460.78" width="9.8" height="9.8"/><rect class="cls-2" x="323.81" y="450.98" width="9.8" height="9.8"/><rect class="cls-1" x="323.81" y="441.17" width="9.8" height="9.81"/><rect class="cls-1" x="323.81" y="431.37" width="9.8" height="9.8"/><rect class="cls-3" x="323.81" y="421.57" width="9.8" height="9.8"/><rect class="cls-3" x="323.81" y="411.76" width="9.8" height="9.81"/><rect class="cls-3" x="323.81" y="401.96" width="9.8" height="9.8"/><rect class="cls-3" x="323.81" y="392.15" width="9.8" height="9.81"/><rect class="cls-3" x="323.81" y="382.35" width="9.8" height="9.8"/><rect class="cls-1" x="314.01" y="490.19" width="9.8" height="9.81"/><rect class="cls-1" x="314.01" y="480.39" width="9.8" height="9.8"/><rect class="cls-1" x="314.01" y="470.58" width="9.8" height="9.81"/><rect class="cls-1" x="314.01" y="460.78" width="9.8" height="9.8"/><rect class="cls-1" x="314.01" y="450.98" width="9.8" height="9.8"/><rect class="cls-1" x="314.01" y="441.17" width="9.8" height="9.81"/><rect class="cls-2" x="314.01" y="431.37" width="9.8" height="9.8"/><rect class="cls-3" x="314.01" y="421.57" width="9.8" height="9.8"/><rect class="cls-3" x="314.01" y="411.76" width="9.8" height="9.81"/><rect class="cls-3" x="314.01" y="401.96" width="9.8" height="9.8"/><rect class="cls-3" x="314.01" y="392.15" width="9.8" height="9.81"/><rect class="cls-3" x="314.01" y="352.94" width="9.8" height="9.8"/><rect class="cls-3" x="314.01" y="343.13" width="9.8" height="9.81"/><rect class="cls-1" x="304.2" y="490.19" width="9.81" height="9.81"/><rect class="cls-1" x="304.2" y="480.39" width="9.81" height="9.8"/><rect class="cls-2" x="304.2" y="470.58" width="9.81" height="9.81"/><rect class="cls-6" x="304.2" y="460.78" width="9.81" height="9.8"/><rect class="cls-1" x="304.2" y="450.98" width="9.81" height="9.8"/><rect class="cls-1" x="304.2" y="441.17" width="9.81" height="9.81"/><rect class="cls-2" x="304.2" y="431.37" width="9.81" height="9.8"/><rect class="cls-1" x="304.2" y="421.57" width="9.81" height="9.8"/><rect class="cls-2" x="304.2" y="411.76" width="9.81" height="9.81"/><rect class="cls-3" x="304.2" y="401.96" width="9.81" height="9.8"/><rect class="cls-3" x="304.2" y="362.74" width="9.81" height="9.81"/><rect class="cls-3" x="304.2" y="352.94" width="9.81" height="9.8"/><rect class="cls-3" x="304.2" y="343.13" width="9.81" height="9.81"/><rect class="cls-3" x="304.2" y="333.33" width="9.81" height="9.8"/><rect class="cls-8" x="304.2" y="323.53" width="9.81" height="9.8"/><rect class="cls-1" x="294.4" y="490.19" width="9.8" height="9.81"/><rect class="cls-1" x="294.4" y="480.39" width="9.8" height="9.8"/><rect class="cls-2" x="294.4" y="470.58" width="9.8" height="9.81"/><rect class="cls-1" x="294.4" y="460.78" width="9.8" height="9.8"/><rect class="cls-1" x="294.4" y="450.98" width="9.8" height="9.8"/><rect class="cls-1" x="294.4" y="441.17" width="9.8" height="9.81"/><rect class="cls-2" x="294.4" y="431.37" width="9.8" height="9.8"/><rect class="cls-1" x="294.4" y="421.57" width="9.8" height="9.8"/><rect class="cls-1" x="294.4" y="411.76" width="9.8" height="9.81"/><rect class="cls-3" x="294.4" y="372.55" width="9.8" height="9.8"/><rect class="cls-3" x="294.4" y="362.74" width="9.8" height="9.81"/><rect class="cls-3" x="294.4" y="352.94" width="9.8" height="9.8"/><rect class="cls-3" x="294.4" y="343.13" width="9.8" height="9.81"/><rect class="cls-3" x="294.4" y="333.33" width="9.8" height="9.8"/><rect class="cls-3" x="294.4" y="323.53" width="9.8" height="9.8"/><rect class="cls-8" x="294.4" y="313.72" width="9.8" height="9.81"/><rect class="cls-1" x="284.59" y="490.19" width="9.81" height="9.81"/><rect class="cls-1" x="284.59" y="480.39" width="9.81" height="9.8"/><rect class="cls-2" x="284.59" y="470.58" width="9.81" height="9.81"/><rect class="cls-1" x="284.59" y="460.78" width="9.81" height="9.8"/><rect class="cls-1" x="284.59" y="450.98" width="9.81" height="9.8"/><rect class="cls-1" x="284.59" y="441.17" width="9.81" height="9.81"/><rect class="cls-1" x="284.59" y="431.37" width="9.81" height="9.8"/><rect class="cls-2" x="284.59" y="421.57" width="9.81" height="9.8"/><rect class="cls-1" x="284.59" y="411.76" width="9.81" height="9.81"/><rect class="cls-5" x="284.59" y="401.96" width="9.81" height="9.8"/><rect class="cls-5" x="284.59" y="392.15" width="9.81" height="9.81"/><rect class="cls-5" x="284.59" y="382.35" width="9.81" height="9.8"/><rect class="cls-3" x="284.59" y="372.55" width="9.81" height="9.8"/><rect class="cls-3" x="284.59" y="362.74" width="9.81" height="9.81"/><rect class="cls-3" x="284.59" y="352.94" width="9.81" height="9.8"/><rect class="cls-3" x="284.59" y="343.13" width="9.81" height="9.81"/><rect class="cls-3" x="284.59" y="333.33" width="9.81" height="9.8"/><rect class="cls-3" x="284.59" y="323.53" width="9.81" height="9.8"/><rect class="cls-3" x="284.59" y="313.72" width="9.81" height="9.81"/><rect class="cls-3" x="284.59" y="303.92" width="9.81" height="9.8"/><rect class="cls-4" x="284.59" y="294.11" width="9.81" height="9.81"/><rect class="cls-1" x="274.79" y="490.19" width="9.8" height="9.81"/><rect class="cls-1" x="274.79" y="480.39" width="9.8" height="9.8"/><rect class="cls-6" x="274.79" y="470.58" width="9.8" height="9.81"/><rect class="cls-1" x="274.79" y="460.78" width="9.8" height="9.8"/><rect class="cls-1" x="274.79" y="450.98" width="9.8" height="9.8"/><rect class="cls-1" x="274.79" y="441.17" width="9.8" height="9.81"/><rect class="cls-1" x="274.79" y="431.37" width="9.8" height="9.8"/><rect class="cls-1" x="274.79" y="421.57" width="9.8" height="9.8"/><rect class="cls-1" x="274.79" y="411.76" width="9.8" height="9.81"/><rect class="cls-3" x="274.79" y="372.55" width="9.8" height="9.8"/><rect class="cls-3" x="274.79" y="362.74" width="9.8" height="9.81"/><rect class="cls-3" x="274.79" y="352.94" width="9.8" height="9.8"/><rect class="cls-3" x="274.79" y="343.13" width="9.8" height="9.81"/><rect class="cls-3" x="274.79" y="333.33" width="9.8" height="9.8"/><rect class="cls-3" x="274.79" y="323.53" width="9.8" height="9.8"/><rect class="cls-3" x="274.79" y="313.72" width="9.8" height="9.81"/><rect class="cls-1" x="264.99" y="490.19" width="9.8" height="9.81"/><rect class="cls-1" x="264.99" y="480.39" width="9.8" height="9.8"/><rect class="cls-1" x="264.99" y="470.58" width="9.8" height="9.81"/><rect class="cls-1" x="264.99" y="460.78" width="9.8" height="9.8"/><rect class="cls-2" x="264.99" y="450.98" width="9.8" height="9.8"/><rect class="cls-1" x="264.99" y="441.17" width="9.8" height="9.81"/><rect class="cls-1" x="264.99" y="431.37" width="9.8" height="9.8"/><rect class="cls-1" x="264.99" y="421.57" width="9.8" height="9.8"/><rect class="cls-1" x="264.99" y="411.76" width="9.8" height="9.81"/><rect class="cls-3" x="264.99" y="362.74" width="9.8" height="9.81"/><rect class="cls-3" x="264.99" y="352.94" width="9.8" height="9.8"/><rect class="cls-3" x="264.99" y="343.13" width="9.8" height="9.81"/><rect class="cls-3" x="264.99" y="333.33" width="9.8" height="9.8"/><rect class="cls-3" x="264.99" y="323.53" width="9.8" height="9.8"/><rect class="cls-1" x="255.18" y="490.19" width="9.81" height="9.81"/><rect class="cls-1" x="255.18" y="480.39" width="9.81" height="9.8"/><rect class="cls-2" x="255.18" y="470.58" width="9.81" height="9.81"/><rect class="cls-1" x="255.18" y="460.78" width="9.81" height="9.8"/><rect class="cls-2" x="255.18" y="450.98" width="9.81" height="9.8"/><rect class="cls-1" x="255.18" y="441.17" width="9.81" height="9.81"/><rect class="cls-1" x="255.18" y="431.37" width="9.81" height="9.8"/><rect class="cls-1" x="255.18" y="421.57" width="9.81" height="9.8"/><rect class="cls-1" x="255.18" y="411.76" width="9.81" height="9.81"/><rect class="cls-3" x="255.18" y="401.96" width="9.81" height="9.8"/><rect class="cls-3" x="255.18" y="352.94" width="9.81" height="9.8"/><rect class="cls-3" x="255.18" y="343.13" width="9.81" height="9.81"/><rect class="cls-1" x="245.38" y="490.19" width="9.8" height="9.81"/><rect class="cls-1" x="245.38" y="480.39" width="9.8" height="9.8"/><rect class="cls-2" x="245.38" y="470.58" width="9.8" height="9.81"/><rect class="cls-1" x="245.38" y="460.78" width="9.8" height="9.8"/><rect class="cls-2" x="245.38" y="450.98" width="9.8" height="9.8"/><rect class="cls-1" x="245.38" y="441.17" width="9.8" height="9.81"/><rect class="cls-1" x="245.38" y="431.37" width="9.8" height="9.8"/><rect class="cls-3" x="245.38" y="421.57" width="9.8" height="9.8"/><rect class="cls-3" x="245.38" y="411.76" width="9.8" height="9.81"/><rect class="cls-3" x="245.38" y="401.96" width="9.8" height="9.8"/><rect class="cls-3" x="245.38" y="392.15" width="9.8" height="9.81"/><rect class="cls-9" x="245.38" y="382.35" width="9.8" height="9.8"/><rect class="cls-1" x="235.57" y="490.19" width="9.81" height="9.81"/><rect class="cls-1" x="235.57" y="480.39" width="9.81" height="9.8"/><rect class="cls-6" x="235.57" y="470.58" width="9.81" height="9.81"/><rect class="cls-1" x="235.57" y="460.78" width="9.81" height="9.8"/><rect class="cls-2" x="235.57" y="450.98" width="9.81" height="9.8"/><rect class="cls-5" x="235.57" y="441.17" width="9.81" height="9.81"/><rect class="cls-5" x="235.57" y="431.37" width="9.81" height="9.8"/><rect class="cls-3" x="235.57" y="421.57" width="9.81" height="9.8"/><rect class="cls-3" x="235.57" y="411.76" width="9.81" height="9.81"/><rect class="cls-3" x="235.57" y="401.96" width="9.81" height="9.8"/><rect class="cls-3" x="235.57" y="392.15" width="9.81" height="9.81"/><rect class="cls-9" x="235.57" y="382.35" width="9.81" height="9.8"/><rect class="cls-9" x="235.57" y="372.55" width="9.81" height="9.8"/><rect class="cls-1" x="225.77" y="490.19" width="9.8" height="9.81"/><rect class="cls-1" x="225.77" y="480.39" width="9.8" height="9.8"/><rect class="cls-6" x="225.77" y="470.58" width="9.8" height="9.81"/><rect class="cls-1" x="225.77" y="460.78" width="9.8" height="9.8"/><rect class="cls-6" x="225.77" y="450.98" width="9.8" height="9.8"/><rect class="cls-5" x="225.77" y="441.17" width="9.8" height="9.81"/><rect class="cls-5" x="225.77" y="431.37" width="9.8" height="9.8"/><rect class="cls-3" x="225.77" y="421.57" width="9.8" height="9.8"/><rect class="cls-3" x="225.77" y="411.76" width="9.8" height="9.81"/><rect class="cls-3" x="225.77" y="401.96" width="9.8" height="9.8"/><rect class="cls-3" x="225.77" y="392.15" width="9.8" height="9.81"/><rect class="cls-3" x="225.77" y="382.35" width="9.8" height="9.8"/><rect class="cls-3" x="225.77" y="372.55" width="9.8" height="9.8"/><rect class="cls-1" x="215.97" y="490.19" width="9.8" height="9.81"/><rect class="cls-1" x="215.97" y="480.39" width="9.8" height="9.8"/><rect class="cls-2" x="215.97" y="470.58" width="9.8" height="9.81"/><rect class="cls-1" x="215.97" y="460.78" width="9.8" height="9.8"/><rect class="cls-6" x="215.97" y="450.98" width="9.8" height="9.8"/><rect class="cls-2" x="215.97" y="441.17" width="9.8" height="9.81"/><rect class="cls-2" x="215.97" y="431.37" width="9.8" height="9.8"/><rect class="cls-3" x="215.97" y="421.57" width="9.8" height="9.8"/><rect class="cls-3" x="215.97" y="411.76" width="9.8" height="9.81"/><rect class="cls-3" x="215.97" y="401.96" width="9.8" height="9.8"/><rect class="cls-3" x="215.97" y="392.15" width="9.8" height="9.81"/><rect class="cls-3" x="215.97" y="382.35" width="9.8" height="9.8"/><rect class="cls-1" x="206.16" y="490.19" width="9.81" height="9.81"/><rect class="cls-1" x="206.16" y="480.39" width="9.81" height="9.8"/><rect class="cls-1" x="206.16" y="470.58" width="9.81" height="9.81"/><rect class="cls-1" x="206.16" y="460.78" width="9.81" height="9.8"/><rect class="cls-2" x="206.16" y="450.98" width="9.81" height="9.8"/><rect class="cls-1" x="206.16" y="441.17" width="9.81" height="9.81"/><rect class="cls-1" x="206.16" y="431.37" width="9.81" height="9.8"/><rect class="cls-1" x="206.16" y="421.57" width="9.81" height="9.8"/><rect class="cls-1" x="206.16" y="411.76" width="9.81" height="9.81"/><rect class="cls-3" x="206.16" y="401.96" width="9.81" height="9.8"/><rect class="cls-1" x="196.36" y="490.19" width="9.8" height="9.81"/><rect class="cls-1" x="196.36" y="480.39" width="9.8" height="9.8"/><rect class="cls-1" x="196.36" y="470.58" width="9.8" height="9.81"/><rect class="cls-1" x="196.36" y="460.78" width="9.8" height="9.8"/><rect class="cls-2" x="196.36" y="450.98" width="9.8" height="9.8"/><rect class="cls-1" x="196.36" y="441.17" width="9.8" height="9.81"/><rect class="cls-2" x="196.36" y="431.37" width="9.8" height="9.8"/><rect class="cls-1" x="196.36" y="421.57" width="9.8" height="9.8"/><rect class="cls-1" x="196.36" y="411.76" width="9.8" height="9.81"/><rect class="cls-1" x="186.55" y="490.19" width="9.81" height="9.81"/><rect class="cls-1" x="186.55" y="480.39" width="9.81" height="9.8"/><rect class="cls-1" x="186.55" y="470.58" width="9.81" height="9.81"/><rect class="cls-1" x="186.55" y="460.78" width="9.81" height="9.8"/><rect class="cls-2" x="186.55" y="450.98" width="9.81" height="9.8"/><rect class="cls-1" x="186.55" y="441.17" width="9.81" height="9.81"/><rect class="cls-2" x="186.55" y="431.37" width="9.81" height="9.8"/><rect class="cls-1" x="186.55" y="421.57" width="9.81" height="9.8"/><rect class="cls-1" x="186.55" y="411.76" width="9.81" height="9.81"/><rect class="cls-3" x="186.55" y="352.94" width="9.81" height="9.8"/><rect class="cls-4" x="186.55" y="343.13" width="9.81" height="9.81"/><rect class="cls-1" x="176.75" y="490.19" width="9.8" height="9.81"/><rect class="cls-1" x="176.75" y="480.39" width="9.8" height="9.8"/><rect class="cls-1" x="176.75" y="470.58" width="9.8" height="9.81"/><rect class="cls-1" x="176.75" y="460.78" width="9.8" height="9.8"/><rect class="cls-2" x="176.75" y="450.98" width="9.8" height="9.8"/><rect class="cls-1" x="176.75" y="441.17" width="9.8" height="9.81"/><rect class="cls-1" x="176.75" y="431.37" width="9.8" height="9.8"/><rect class="cls-1" x="176.75" y="421.57" width="9.8" height="9.8"/><rect class="cls-1" x="176.75" y="411.76" width="9.8" height="9.81"/><rect class="cls-3" x="176.75" y="372.55" width="9.8" height="9.8"/><rect class="cls-3" x="176.75" y="362.74" width="9.8" height="9.81"/><rect class="cls-3" x="176.75" y="352.94" width="9.8" height="9.8"/><rect class="cls-4" x="176.75" y="343.13" width="9.8" height="9.81"/><rect class="cls-4" x="176.75" y="333.33" width="9.8" height="9.8"/><rect class="cls-1" x="166.95" y="490.19" width="9.8" height="9.81"/><rect class="cls-1" x="166.95" y="480.39" width="9.8" height="9.8"/><rect class="cls-1" x="166.95" y="470.58" width="9.8" height="9.81"/><rect class="cls-2" x="166.95" y="460.78" width="9.8" height="9.8"/><rect class="cls-1" x="166.95" y="450.98" width="9.8" height="9.8"/><rect class="cls-2" x="166.95" y="441.17" width="9.8" height="9.81"/><rect class="cls-1" x="166.95" y="431.37" width="9.8" height="9.8"/><rect class="cls-1" x="166.95" y="421.57" width="9.8" height="9.8"/><rect class="cls-1" x="166.95" y="411.76" width="9.8" height="9.81"/><rect class="cls-5" x="166.95" y="401.96" width="9.8" height="9.8"/><rect class="cls-5" x="166.95" y="392.15" width="9.8" height="9.81"/><rect class="cls-5" x="166.95" y="382.35" width="9.8" height="9.8"/><rect class="cls-3" x="166.95" y="372.55" width="9.8" height="9.8"/><rect class="cls-3" x="166.95" y="362.74" width="9.8" height="9.81"/><rect class="cls-3" x="166.95" y="352.94" width="9.8" height="9.8"/><rect class="cls-3" x="166.95" y="343.13" width="9.8" height="9.81"/><rect class="cls-3" x="166.95" y="333.33" width="9.8" height="9.8"/><rect class="cls-3" x="166.95" y="323.53" width="9.8" height="9.8"/><rect class="cls-1" x="157.14" y="490.19" width="9.81" height="9.81"/><rect class="cls-1" x="157.14" y="480.39" width="9.81" height="9.8"/><rect class="cls-1" x="157.14" y="470.58" width="9.81" height="9.81"/><rect class="cls-1" x="157.14" y="460.78" width="9.81" height="9.8"/><rect class="cls-1" x="157.14" y="450.98" width="9.81" height="9.8"/><rect class="cls-6" x="157.14" y="441.17" width="9.81" height="9.81"/><rect class="cls-1" x="157.14" y="431.37" width="9.81" height="9.8"/><rect class="cls-1" x="157.14" y="421.57" width="9.81" height="9.8"/><rect class="cls-1" x="157.14" y="411.76" width="9.81" height="9.81"/><rect class="cls-3" x="157.14" y="372.55" width="9.81" height="9.8"/><rect class="cls-3" x="157.14" y="362.74" width="9.81" height="9.81"/><rect class="cls-3" x="157.14" y="352.94" width="9.81" height="9.8"/><rect class="cls-3" x="157.14" y="343.13" width="9.81" height="9.81"/><rect class="cls-3" x="157.14" y="333.33" width="9.81" height="9.8"/><rect class="cls-1" x="147.34" y="490.19" width="9.8" height="9.81"/><rect class="cls-1" x="147.34" y="480.39" width="9.8" height="9.8"/><rect class="cls-6" x="147.34" y="470.58" width="9.8" height="9.81"/><rect class="cls-1" x="147.34" y="460.78" width="9.8" height="9.8"/><rect class="cls-1" x="147.34" y="450.98" width="9.8" height="9.8"/><rect class="cls-6" x="147.34" y="441.17" width="9.8" height="9.81"/><rect class="cls-1" x="147.34" y="431.37" width="9.8" height="9.8"/><rect class="cls-1" x="147.34" y="421.57" width="9.8" height="9.8"/><rect class="cls-1" x="147.34" y="411.76" width="9.8" height="9.81"/><rect class="cls-3" x="147.34" y="352.94" width="9.8" height="9.8"/><rect class="cls-3" x="147.34" y="343.13" width="9.8" height="9.81"/><rect class="cls-1" x="137.53" y="490.19" width="9.81" height="9.81"/><rect class="cls-1" x="137.53" y="480.39" width="9.81" height="9.8"/><rect class="cls-6" x="137.53" y="470.58" width="9.81" height="9.81"/><rect class="cls-1" x="137.53" y="460.78" width="9.81" height="9.8"/><rect class="cls-1" x="137.53" y="450.98" width="9.81" height="9.8"/><rect class="cls-6" x="137.53" y="441.17" width="9.81" height="9.81"/><rect class="cls-2" x="137.53" y="431.37" width="9.81" height="9.8"/><rect class="cls-1" x="137.53" y="421.57" width="9.81" height="9.8"/><rect class="cls-1" x="137.53" y="411.76" width="9.81" height="9.81"/><rect class="cls-1" x="127.73" y="490.19" width="9.8" height="9.81"/><rect class="cls-1" x="127.73" y="480.39" width="9.8" height="9.8"/><rect class="cls-2" x="127.73" y="470.58" width="9.8" height="9.81"/><rect class="cls-2" x="127.73" y="460.78" width="9.8" height="9.8"/><rect class="cls-1" x="127.73" y="450.98" width="9.8" height="9.8"/><rect class="cls-6" x="127.73" y="441.17" width="9.8" height="9.81"/><rect class="cls-1" x="127.73" y="431.37" width="9.8" height="9.8"/><rect class="cls-1" x="127.73" y="421.57" width="9.8" height="9.8"/><rect class="cls-1" x="127.73" y="411.76" width="9.8" height="9.81"/><rect class="cls-1" x="117.93" y="490.19" width="9.8" height="9.81"/><rect class="cls-1" x="117.93" y="480.39" width="9.8" height="9.8"/><rect class="cls-2" x="117.93" y="470.58" width="9.8" height="9.81"/><rect class="cls-2" x="117.93" y="460.78" width="9.8" height="9.8"/><rect class="cls-1" x="117.93" y="450.98" width="9.8" height="9.8"/><rect class="cls-2" x="117.93" y="441.17" width="9.8" height="9.81"/><rect class="cls-1" x="117.93" y="431.37" width="9.8" height="9.8"/><rect class="cls-2" x="117.93" y="421.57" width="9.8" height="9.8"/><rect class="cls-1" x="117.93" y="411.76" width="9.8" height="9.81"/><rect class="cls-3" x="117.93" y="372.55" width="9.8" height="9.8"/><rect class="cls-3" x="117.93" y="362.74" width="9.8" height="9.81"/><rect class="cls-1" x="108.12" y="490.19" width="9.81" height="9.81"/><rect class="cls-1" x="108.12" y="480.39" width="9.81" height="9.8"/><rect class="cls-1" x="108.12" y="470.58" width="9.81" height="9.81"/><rect class="cls-2" x="108.12" y="460.78" width="9.81" height="9.8"/><rect class="cls-1" x="108.12" y="450.98" width="9.81" height="9.8"/><rect class="cls-2" x="108.12" y="441.17" width="9.81" height="9.81"/><rect class="cls-1" x="108.12" y="431.37" width="9.81" height="9.8"/><rect class="cls-6" x="108.12" y="421.57" width="9.81" height="9.8"/><rect class="cls-1" x="108.12" y="411.76" width="9.81" height="9.81"/><rect class="cls-3" x="108.12" y="382.35" width="9.81" height="9.8"/><rect class="cls-3" x="108.12" y="372.55" width="9.81" height="9.8"/><rect class="cls-3" x="108.12" y="362.74" width="9.81" height="9.81"/><rect class="cls-9" x="108.12" y="352.94" width="9.81" height="9.8"/><rect class="cls-1" x="98.32" y="490.19" width="9.8" height="9.81"/><rect class="cls-1" x="98.32" y="480.39" width="9.8" height="9.8"/><rect class="cls-1" x="98.32" y="470.58" width="9.8" height="9.81"/><rect class="cls-2" x="98.32" y="460.78" width="9.8" height="9.8"/><rect class="cls-1" x="98.32" y="450.98" width="9.8" height="9.8"/><rect class="cls-2" x="98.32" y="441.17" width="9.8" height="9.81"/><rect class="cls-1" x="98.32" y="431.37" width="9.8" height="9.8"/><rect class="cls-2" x="98.32" y="421.57" width="9.8" height="9.8"/><rect class="cls-1" x="98.32" y="411.76" width="9.8" height="9.81"/><rect class="cls-3" x="98.32" y="392.15" width="9.8" height="9.81"/><rect class="cls-3" x="98.32" y="382.35" width="9.8" height="9.8"/><rect class="cls-3" x="98.32" y="372.55" width="9.8" height="9.8"/><rect class="cls-3" x="98.32" y="362.74" width="9.8" height="9.81"/><rect class="cls-3" x="98.32" y="352.94" width="9.8" height="9.8"/><rect class="cls-9" x="98.32" y="343.13" width="9.8" height="9.81"/><rect class="cls-1" x="88.52" y="490.19" width="9.8" height="9.81"/><rect class="cls-1" x="88.52" y="480.39" width="9.8" height="9.8"/><rect class="cls-1" x="88.52" y="470.58" width="9.8" height="9.81"/><rect class="cls-2" x="88.52" y="460.78" width="9.8" height="9.8"/><rect class="cls-2" x="88.52" y="450.98" width="9.8" height="9.8"/><rect class="cls-2" x="88.52" y="441.17" width="9.8" height="9.81"/><rect class="cls-1" x="88.52" y="431.37" width="9.8" height="9.8"/><rect class="cls-5" x="88.52" y="421.57" width="9.8" height="9.8"/><rect class="cls-5" x="88.52" y="411.76" width="9.8" height="9.81"/><rect class="cls-5" x="88.52" y="401.96" width="9.8" height="9.8"/><rect class="cls-3" x="88.52" y="392.15" width="9.8" height="9.81"/><rect class="cls-3" x="88.52" y="382.35" width="9.8" height="9.8"/><rect class="cls-3" x="88.52" y="372.55" width="9.8" height="9.8"/><rect class="cls-3" x="88.52" y="362.74" width="9.8" height="9.81"/><rect class="cls-3" x="88.52" y="352.94" width="9.8" height="9.8"/><rect class="cls-3" x="88.52" y="343.13" width="9.8" height="9.81"/><rect class="cls-3" x="88.52" y="333.33" width="9.8" height="9.8"/><rect class="cls-1" x="78.71" y="490.19" width="9.81" height="9.81"/><rect class="cls-1" x="78.71" y="480.39" width="9.81" height="9.8"/><rect class="cls-1" x="78.71" y="470.58" width="9.81" height="9.81"/><rect class="cls-2" x="78.71" y="460.78" width="9.81" height="9.8"/><rect class="cls-2" x="78.71" y="450.98" width="9.81" height="9.8"/><rect class="cls-2" x="78.71" y="441.17" width="9.81" height="9.81"/><rect class="cls-1" x="78.71" y="431.37" width="9.81" height="9.8"/><rect class="cls-4" x="78.71" y="421.57" width="9.81" height="9.8"/><rect class="cls-3" x="78.71" y="392.15" width="9.81" height="9.81"/><rect class="cls-3" x="78.71" y="382.35" width="9.81" height="9.8"/><rect class="cls-3" x="78.71" y="372.55" width="9.81" height="9.8"/><rect class="cls-3" x="78.71" y="362.74" width="9.81" height="9.81"/><rect class="cls-3" x="78.71" y="352.94" width="9.81" height="9.8"/><rect class="cls-3" x="78.71" y="343.13" width="9.81" height="9.81"/><rect class="cls-1" x="68.91" y="490.19" width="9.8" height="9.81"/><rect class="cls-1" x="68.91" y="480.39" width="9.8" height="9.8"/><rect class="cls-1" x="68.91" y="470.58" width="9.8" height="9.81"/><rect class="cls-1" x="68.91" y="460.78" width="9.8" height="9.8"/><rect class="cls-1" x="68.91" y="450.98" width="9.8" height="9.8"/><rect class="cls-3" x="68.91" y="441.17" width="9.8" height="9.81"/><rect class="cls-3" x="68.91" y="431.37" width="9.8" height="9.8"/><rect class="cls-3" x="68.91" y="421.57" width="9.8" height="9.8"/><rect class="cls-4" x="68.91" y="411.76" width="9.8" height="9.81"/><rect class="cls-3" x="68.91" y="382.35" width="9.8" height="9.8"/><rect class="cls-3" x="68.91" y="372.55" width="9.8" height="9.8"/><rect class="cls-3" x="68.91" y="362.74" width="9.8" height="9.81"/><rect class="cls-3" x="68.91" y="352.94" width="9.8" height="9.8"/><rect class="cls-1" x="59.1" y="490.19" width="9.81" height="9.81"/><rect class="cls-1" x="59.1" y="480.39" width="9.81" height="9.8"/><rect class="cls-1" x="59.1" y="470.58" width="9.81" height="9.81"/><rect class="cls-2" x="59.1" y="460.78" width="9.81" height="9.8"/><rect class="cls-1" x="59.1" y="450.98" width="9.81" height="9.8"/><rect class="cls-3" x="59.1" y="441.17" width="9.81" height="9.81"/><rect class="cls-3" x="59.1" y="431.37" width="9.81" height="9.8"/><rect class="cls-3" x="59.1" y="421.57" width="9.81" height="9.8"/><rect class="cls-3" x="59.1" y="411.76" width="9.81" height="9.81"/><rect class="cls-4" x="59.1" y="401.96" width="9.81" height="9.8"/><rect class="cls-3" x="59.1" y="372.55" width="9.81" height="9.8"/><rect class="cls-3" x="59.1" y="362.74" width="9.81" height="9.81"/><rect class="cls-1" x="49.3" y="490.19" width="9.8" height="9.81"/><rect class="cls-1" x="49.3" y="480.39" width="9.8" height="9.8"/><rect class="cls-1" x="49.3" y="470.58" width="9.8" height="9.81"/><rect class="cls-5" x="49.3" y="460.78" width="9.8" height="9.8"/><rect class="cls-5" x="49.3" y="450.98" width="9.8" height="9.8"/><rect class="cls-3" x="49.3" y="441.17" width="9.8" height="9.81"/><rect class="cls-3" x="49.3" y="431.37" width="9.8" height="9.8"/><rect class="cls-3" x="49.3" y="421.57" width="9.8" height="9.8"/><rect class="cls-3" x="49.3" y="411.76" width="9.8" height="9.81"/><rect class="cls-4" x="49.3" y="401.96" width="9.8" height="9.8"/><rect class="cls-4" x="49.3" y="392.15" width="9.8" height="9.81"/><rect class="cls-1" x="39.5" y="490.19" width="9.8" height="9.81"/><rect class="cls-1" x="39.5" y="480.39" width="9.8" height="9.8"/><rect class="cls-1" x="39.5" y="470.58" width="9.8" height="9.81"/><rect class="cls-5" x="39.5" y="460.78" width="9.8" height="9.8"/><rect class="cls-5" x="39.5" y="450.98" width="9.8" height="9.8"/><rect class="cls-3" x="39.5" y="441.17" width="9.8" height="9.81"/><rect class="cls-3" x="39.5" y="431.37" width="9.8" height="9.8"/><rect class="cls-3" x="39.5" y="421.57" width="9.8" height="9.8"/><rect class="cls-3" x="39.5" y="411.76" width="9.8" height="9.81"/><rect class="cls-3" x="39.5" y="401.96" width="9.8" height="9.8"/><rect class="cls-3" x="39.5" y="392.15" width="9.8" height="9.81"/><rect class="cls-1" x="29.69" y="490.19" width="9.81" height="9.81"/><rect class="cls-1" x="29.69" y="480.39" width="9.81" height="9.8"/><rect class="cls-1" x="29.69" y="470.58" width="9.81" height="9.81"/><rect class="cls-1" x="29.69" y="460.78" width="9.81" height="9.8"/><rect class="cls-1" x="29.69" y="450.98" width="9.81" height="9.8"/><rect class="cls-3" x="29.69" y="441.17" width="9.81" height="9.81"/><rect class="cls-3" x="29.69" y="431.37" width="9.81" height="9.8"/><rect class="cls-3" x="29.69" y="421.57" width="9.81" height="9.8"/><rect class="cls-3" x="29.69" y="411.76" width="9.81" height="9.81"/><rect class="cls-1" x="19.89" y="490.19" width="9.8" height="9.81"/><rect class="cls-1" x="19.89" y="480.39" width="9.8" height="9.8"/><rect class="cls-1" x="19.89" y="470.58" width="9.8" height="9.81"/><rect class="cls-1" x="19.89" y="460.78" width="9.8" height="9.8"/><rect class="cls-1" x="19.89" y="450.98" width="9.8" height="9.8"/><rect class="cls-3" x="19.89" y="441.17" width="9.8" height="9.81"/><rect class="cls-3" x="19.89" y="431.37" width="9.8" height="9.8"/><rect class="cls-3" x="19.89" y="421.57" width="9.8" height="9.8"/><rect class="cls-3" x="19.89" y="411.76" width="9.8" height="9.81"/><rect class="cls-1" x="10.08" y="490.19" width="9.81" height="9.81"/><rect class="cls-1" x="10.08" y="480.39" width="9.81" height="9.8"/><rect class="cls-1" x="10.08" y="470.58" width="9.81" height="9.81"/><rect class="cls-1" x="10.08" y="460.78" width="9.81" height="9.8"/><rect class="cls-2" x="10.08" y="450.98" width="9.81" height="9.8"/><rect class="cls-1" x="10.08" y="441.17" width="9.81" height="9.81"/><rect class="cls-1" x="10.08" y="431.37" width="9.81" height="9.8"/><rect class="cls-3" x="10.08" y="421.57" width="9.81" height="9.8"/><rect class="cls-1" x="0.28" y="490.19" width="9.8" height="9.81"/><rect class="cls-1" x="0.28" y="480.39" width="9.8" height="9.8"/><rect class="cls-1" x="0.28" y="470.58" width="9.8" height="9.81"/><rect class="cls-1" x="0.28" y="460.78" width="9.8" height="9.8"/><rect class="cls-1" x="0.28" y="450.98" width="9.8" height="9.8"/><rect class="cls-2" x="0.28" y="441.17" width="9.8" height="9.81"/><rect class="cls-1" x="0.28" y="431.37" width="9.8" height="9.8"/><rect class="cls-1" x="0.28" y="421.57" width="9.8" height="9.8"/></svg>