<svg id="Layer_1" data-name="Layer 1" xmlns="http://www.w3.org/2000/svg" viewBox="0 0 500 500"><defs><style>.cls-1{fill:#75c37f;}.cls-2{fill:#bfe0b8;}.cls-3{fill:#aa8b4d;}.cls-4{fill:#8cc866;}.cls-5{fill:#97ce84;}.cls-6{fill:#9bd197;}</style></defs><rect class="cls-1" x="480.39" y="362.75" width="9.81" height="9.8"/><rect class="cls-1" x="480.39" y="352.94" width="9.81" height="9.81"/><rect class="cls-2" x="480.39" y="343.14" width="9.81" height="9.8"/><rect class="cls-1" x="470.59" y="372.55" width="9.8" height="9.8"/><rect class="cls-1" x="470.59" y="362.75" width="9.8" height="9.8"/><rect class="cls-1" x="470.59" y="352.94" width="9.8" height="9.81"/><rect class="cls-1" x="470.59" y="343.14" width="9.8" height="9.8"/><rect class="cls-1" x="470.59" y="333.33" width="9.8" height="9.81"/><rect class="cls-1" x="460.78" y="372.55" width="9.81" height="9.8"/><rect class="cls-1" x="460.78" y="362.75" width="9.81" height="9.8"/><rect class="cls-1" x="460.78" y="352.94" width="9.81" height="9.81"/><rect class="cls-1" x="460.78" y="343.14" width="9.81" height="9.8"/><rect class="cls-1" x="460.78" y="333.33" width="9.81" height="9.81"/><rect class="cls-2" x="460.78" y="323.53" width="9.81" height="9.8"/><rect class="cls-3" x="450.98" y="392.16" width="9.8" height="9.8"/><rect class="cls-3" x="450.98" y="382.35" width="9.8" height="9.81"/><rect class="cls-1" x="450.98" y="372.55" width="9.8" height="9.8"/><rect class="cls-1" x="450.98" y="362.75" width="9.8" height="9.8"/><rect class="cls-1" x="450.98" y="352.94" width="9.8" height="9.81"/><rect class="cls-1" x="450.98" y="343.14" width="9.8" height="9.8"/><rect class="cls-1" x="450.98" y="333.33" width="9.8" height="9.81"/><rect class="cls-1" x="450.98" y="323.53" width="9.8" height="9.8"/><rect class="cls-2" x="450.98" y="313.73" width="9.8" height="9.8"/><rect class="cls-3" x="441.18" y="392.16" width="9.8" height="9.8"/><rect class="cls-3" x="441.18" y="382.35" width="9.8" height="9.81"/><rect class="cls-1" x="441.18" y="372.55" width="9.8" height="9.8"/><rect class="cls-1" x="441.18" y="362.75" width="9.8" height="9.8"/><rect class="cls-1" x="441.18" y="352.94" width="9.8" height="9.81"/><rect class="cls-1" x="441.18" y="343.14" width="9.8" height="9.8"/><rect class="cls-1" x="441.18" y="333.33" width="9.8" height="9.81"/><rect class="cls-1" x="441.18" y="323.53" width="9.8" height="9.8"/><rect class="cls-1" x="441.18" y="313.73" width="9.8" height="9.8"/><rect class="cls-1" x="431.37" y="372.55" width="9.81" height="9.8"/><rect class="cls-1" x="431.37" y="362.75" width="9.81" height="9.8"/><rect class="cls-1" x="431.37" y="352.94" width="9.81" height="9.81"/><rect class="cls-1" x="431.37" y="343.14" width="9.81" height="9.8"/><rect class="cls-1" x="431.37" y="333.33" width="9.81" height="9.81"/><rect class="cls-1" x="431.37" y="323.53" width="9.81" height="9.8"/><rect class="cls-1" x="421.57" y="372.55" width="9.8" height="9.8"/><rect class="cls-1" x="421.57" y="362.75" width="9.8" height="9.8"/><rect class="cls-1" x="421.57" y="352.94" width="9.8" height="9.81"/><rect class="cls-1" x="421.57" y="343.14" width="9.8" height="9.8"/><rect class="cls-1" x="421.57" y="333.33" width="9.8" height="9.81"/><rect class="cls-1" x="411.76" y="362.75" width="9.81" height="9.8"/><rect class="cls-1" x="411.76" y="352.94" width="9.81" height="9.81"/><rect class="cls-1" x="411.76" y="343.14" width="9.81" height="9.8"/><rect class="cls-1" x="411.76" y="294.12" width="9.81" height="9.8"/><rect class="cls-2" x="411.76" y="284.31" width="9.81" height="9.81"/><rect class="cls-1" x="401.96" y="303.92" width="9.8" height="9.81"/><rect class="cls-1" x="401.96" y="294.12" width="9.8" height="9.8"/><rect class="cls-1" x="401.96" y="284.31" width="9.8" height="9.81"/><rect class="cls-4" x="401.96" y="274.51" width="9.8" height="9.8"/><rect class="cls-3" x="392.16" y="343.14" width="9.8" height="9.8"/><rect class="cls-3" x="392.16" y="333.33" width="9.8" height="9.81"/><rect class="cls-3" x="392.16" y="323.53" width="9.8" height="9.8"/><rect class="cls-3" x="392.16" y="313.73" width="9.8" height="9.8"/><rect class="cls-1" x="392.16" y="303.92" width="9.8" height="9.81"/><rect class="cls-1" x="392.16" y="294.12" width="9.8" height="9.8"/><rect class="cls-1" x="392.16" y="284.31" width="9.8" height="9.81"/><rect class="cls-1" x="392.16" y="274.51" width="9.8" height="9.8"/><rect class="cls-2" x="392.16" y="264.71" width="9.8" height="9.8"/><rect class="cls-3" x="382.35" y="343.14" width="9.81" height="9.8"/><rect class="cls-3" x="382.35" y="333.33" width="9.81" height="9.81"/><rect class="cls-3" x="382.35" y="323.53" width="9.81" height="9.8"/><rect class="cls-3" x="382.35" y="313.73" width="9.81" height="9.8"/><rect class="cls-1" x="382.35" y="303.92" width="9.81" height="9.81"/><rect class="cls-1" x="382.35" y="294.12" width="9.81" height="9.8"/><rect class="cls-1" x="382.35" y="284.31" width="9.81" height="9.81"/><rect class="cls-1" x="382.35" y="274.51" width="9.81" height="9.8"/><rect class="cls-1" x="382.35" y="264.71" width="9.81" height="9.8"/><rect class="cls-2" x="372.55" y="343.14" width="9.8" height="9.8"/><rect class="cls-1" x="372.55" y="303.92" width="9.8" height="9.81"/><rect class="cls-1" x="372.55" y="294.12" width="9.8" height="9.8"/><rect class="cls-1" x="372.55" y="284.31" width="9.8" height="9.81"/><rect class="cls-1" x="372.55" y="274.51" width="9.8" height="9.8"/><rect class="cls-1" x="362.75" y="362.75" width="9.8" height="9.8"/><rect class="cls-1" x="362.75" y="352.94" width="9.8" height="9.81"/><rect class="cls-2" x="362.75" y="343.14" width="9.8" height="9.8"/><rect class="cls-2" x="362.75" y="333.33" width="9.8" height="9.81"/><rect class="cls-1" x="362.75" y="294.12" width="9.8" height="9.8"/><rect class="cls-1" x="362.75" y="284.31" width="9.8" height="9.81"/><rect class="cls-1" x="352.94" y="362.75" width="9.81" height="9.8"/><rect class="cls-1" x="352.94" y="352.94" width="9.81" height="9.81"/><rect class="cls-1" x="352.94" y="343.14" width="9.81" height="9.8"/><rect class="cls-1" x="352.94" y="333.33" width="9.81" height="9.81"/><rect class="cls-2" x="352.94" y="323.53" width="9.81" height="9.8"/><rect class="cls-3" x="343.14" y="392.16" width="9.8" height="9.8"/><rect class="cls-3" x="343.14" y="382.35" width="9.8" height="9.81"/><rect class="cls-3" x="343.14" y="372.55" width="9.8" height="9.8"/><rect class="cls-1" x="343.14" y="362.75" width="9.8" height="9.8"/><rect class="cls-1" x="343.14" y="352.94" width="9.8" height="9.81"/><rect class="cls-1" x="343.14" y="343.14" width="9.8" height="9.8"/><rect class="cls-1" x="343.14" y="333.33" width="9.8" height="9.81"/><rect class="cls-2" x="343.14" y="323.53" width="9.8" height="9.8"/><rect class="cls-2" x="343.14" y="313.73" width="9.8" height="9.8"/><rect class="cls-3" x="333.33" y="392.16" width="9.81" height="9.8"/><rect class="cls-3" x="333.33" y="382.35" width="9.81" height="9.81"/><rect class="cls-3" x="333.33" y="372.55" width="9.81" height="9.8"/><rect class="cls-1" x="333.33" y="362.75" width="9.81" height="9.8"/><rect class="cls-1" x="333.33" y="352.94" width="9.81" height="9.81"/><rect class="cls-1" x="333.33" y="343.14" width="9.81" height="9.8"/><rect class="cls-1" x="333.33" y="333.33" width="9.81" height="9.81"/><rect class="cls-1" x="333.33" y="323.53" width="9.81" height="9.8"/><rect class="cls-1" x="333.33" y="313.73" width="9.81" height="9.8"/><rect class="cls-1" x="323.53" y="362.75" width="9.8" height="9.8"/><rect class="cls-1" x="323.53" y="352.94" width="9.8" height="9.81"/><rect class="cls-1" x="323.53" y="343.14" width="9.8" height="9.8"/><rect class="cls-1" x="323.53" y="333.33" width="9.8" height="9.81"/><rect class="cls-1" x="323.53" y="323.53" width="9.8" height="9.8"/><rect class="cls-1" x="313.73" y="362.75" width="9.8" height="9.8"/><rect class="cls-1" x="313.73" y="352.94" width="9.8" height="9.81"/><rect class="cls-1" x="313.73" y="343.14" width="9.8" height="9.8"/><rect class="cls-1" x="313.73" y="333.33" width="9.8" height="9.81"/><rect class="cls-1" x="313.73" y="294.12" width="9.8" height="9.8"/><rect class="cls-1" x="313.73" y="284.31" width="9.8" height="9.81"/><rect class="cls-1" x="303.92" y="343.14" width="9.81" height="9.8"/><rect class="cls-1" x="303.92" y="303.92" width="9.81" height="9.81"/><rect class="cls-1" x="303.92" y="294.12" width="9.81" height="9.8"/><rect class="cls-1" x="303.92" y="284.31" width="9.81" height="9.81"/><rect class="cls-1" x="303.92" y="274.51" width="9.81" height="9.8"/><rect class="cls-5" x="303.92" y="264.71" width="9.81" height="9.8"/><rect class="cls-1" x="294.12" y="313.73" width="9.8" height="9.8"/><rect class="cls-1" x="294.12" y="303.92" width="9.8" height="9.81"/><rect class="cls-1" x="294.12" y="294.12" width="9.8" height="9.8"/><rect class="cls-1" x="294.12" y="284.31" width="9.8" height="9.81"/><rect class="cls-1" x="294.12" y="274.51" width="9.8" height="9.8"/><rect class="cls-1" x="294.12" y="264.71" width="9.8" height="9.8"/><rect class="cls-5" x="294.12" y="254.9" width="9.8" height="9.81"/><rect class="cls-3" x="284.31" y="343.14" width="9.81" height="9.8"/><rect class="cls-3" x="284.31" y="333.33" width="9.81" height="9.81"/><rect class="cls-3" x="284.31" y="323.53" width="9.81" height="9.8"/><rect class="cls-1" x="284.31" y="313.73" width="9.81" height="9.8"/><rect class="cls-1" x="284.31" y="303.92" width="9.81" height="9.81"/><rect class="cls-1" x="284.31" y="294.12" width="9.81" height="9.8"/><rect class="cls-1" x="284.31" y="284.31" width="9.81" height="9.81"/><rect class="cls-1" x="284.31" y="274.51" width="9.81" height="9.8"/><rect class="cls-1" x="284.31" y="264.71" width="9.81" height="9.8"/><rect class="cls-1" x="284.31" y="254.9" width="9.81" height="9.81"/><rect class="cls-1" x="284.31" y="245.1" width="9.81" height="9.8"/><rect class="cls-2" x="284.31" y="235.29" width="9.81" height="9.81"/><rect class="cls-1" x="274.51" y="313.73" width="9.8" height="9.8"/><rect class="cls-1" x="274.51" y="303.92" width="9.8" height="9.81"/><rect class="cls-1" x="274.51" y="294.12" width="9.8" height="9.8"/><rect class="cls-1" x="274.51" y="284.31" width="9.8" height="9.81"/><rect class="cls-1" x="274.51" y="274.51" width="9.8" height="9.8"/><rect class="cls-1" x="274.51" y="264.71" width="9.8" height="9.8"/><rect class="cls-1" x="274.51" y="254.9" width="9.8" height="9.81"/><rect class="cls-1" x="264.71" y="303.92" width="9.8" height="9.81"/><rect class="cls-1" x="264.71" y="294.12" width="9.8" height="9.8"/><rect class="cls-1" x="264.71" y="284.31" width="9.8" height="9.81"/><rect class="cls-1" x="264.71" y="274.51" width="9.8" height="9.8"/><rect class="cls-1" x="264.71" y="264.71" width="9.8" height="9.8"/><rect class="cls-1" x="254.9" y="343.14" width="9.81" height="9.8"/><rect class="cls-1" x="254.9" y="294.12" width="9.81" height="9.8"/><rect class="cls-1" x="254.9" y="284.31" width="9.81" height="9.81"/><rect class="cls-1" x="245.1" y="362.75" width="9.8" height="9.8"/><rect class="cls-1" x="245.1" y="352.94" width="9.8" height="9.81"/><rect class="cls-1" x="245.1" y="343.14" width="9.8" height="9.8"/><rect class="cls-1" x="245.1" y="333.33" width="9.8" height="9.81"/><rect class="cls-6" x="245.1" y="323.53" width="9.8" height="9.8"/><rect class="cls-3" x="235.29" y="382.35" width="9.81" height="9.81"/><rect class="cls-3" x="235.29" y="372.55" width="9.81" height="9.8"/><rect class="cls-1" x="235.29" y="362.75" width="9.81" height="9.8"/><rect class="cls-1" x="235.29" y="352.94" width="9.81" height="9.81"/><rect class="cls-1" x="235.29" y="343.14" width="9.81" height="9.8"/><rect class="cls-1" x="235.29" y="333.33" width="9.81" height="9.81"/><rect class="cls-6" x="235.29" y="323.53" width="9.81" height="9.8"/><rect class="cls-6" x="235.29" y="313.73" width="9.81" height="9.8"/><rect class="cls-3" x="225.49" y="382.35" width="9.8" height="9.81"/><rect class="cls-3" x="225.49" y="372.55" width="9.8" height="9.8"/><rect class="cls-1" x="225.49" y="362.75" width="9.8" height="9.8"/><rect class="cls-1" x="225.49" y="352.94" width="9.8" height="9.81"/><rect class="cls-1" x="225.49" y="343.14" width="9.8" height="9.8"/><rect class="cls-1" x="225.49" y="333.33" width="9.8" height="9.81"/><rect class="cls-1" x="225.49" y="323.53" width="9.8" height="9.8"/><rect class="cls-1" x="225.49" y="313.73" width="9.8" height="9.8"/><rect class="cls-1" x="215.69" y="362.75" width="9.8" height="9.8"/><rect class="cls-1" x="215.69" y="352.94" width="9.8" height="9.81"/><rect class="cls-1" x="215.69" y="343.14" width="9.8" height="9.8"/><rect class="cls-1" x="215.69" y="333.33" width="9.8" height="9.81"/><rect class="cls-1" x="215.69" y="323.53" width="9.8" height="9.8"/><rect class="cls-1" x="205.88" y="343.14" width="9.81" height="9.8"/><rect class="cls-1" x="186.27" y="294.12" width="9.81" height="9.8"/><rect class="cls-2" x="186.27" y="284.31" width="9.81" height="9.81"/><rect class="cls-1" x="176.47" y="313.73" width="9.8" height="9.8"/><rect class="cls-1" x="176.47" y="303.92" width="9.8" height="9.81"/><rect class="cls-1" x="176.47" y="294.12" width="9.8" height="9.8"/><rect class="cls-2" x="176.47" y="284.31" width="9.8" height="9.81"/><rect class="cls-2" x="176.47" y="274.51" width="9.8" height="9.8"/><rect class="cls-3" x="166.67" y="343.14" width="9.8" height="9.8"/><rect class="cls-3" x="166.67" y="333.33" width="9.8" height="9.81"/><rect class="cls-3" x="166.67" y="323.53" width="9.8" height="9.8"/><rect class="cls-1" x="166.67" y="313.73" width="9.8" height="9.8"/><rect class="cls-1" x="166.67" y="303.92" width="9.8" height="9.81"/><rect class="cls-1" x="166.67" y="294.12" width="9.8" height="9.8"/><rect class="cls-1" x="166.67" y="284.31" width="9.8" height="9.81"/><rect class="cls-1" x="166.67" y="274.51" width="9.8" height="9.8"/><rect class="cls-1" x="166.67" y="264.71" width="9.8" height="9.8"/><rect class="cls-1" x="156.86" y="313.73" width="9.81" height="9.8"/><rect class="cls-1" x="156.86" y="303.92" width="9.81" height="9.81"/><rect class="cls-1" x="156.86" y="294.12" width="9.81" height="9.8"/><rect class="cls-1" x="156.86" y="284.31" width="9.81" height="9.81"/><rect class="cls-1" x="156.86" y="274.51" width="9.81" height="9.8"/><rect class="cls-1" x="147.06" y="294.12" width="9.8" height="9.8"/><rect class="cls-1" x="147.06" y="284.31" width="9.8" height="9.81"/><rect class="cls-1" x="117.65" y="313.73" width="9.8" height="9.8"/><rect class="cls-1" x="117.65" y="303.92" width="9.8" height="9.81"/><rect class="cls-1" x="107.84" y="323.53" width="9.81" height="9.8"/><rect class="cls-1" x="107.84" y="313.73" width="9.81" height="9.8"/><rect class="cls-1" x="107.84" y="303.92" width="9.81" height="9.81"/><rect class="cls-6" x="107.84" y="294.12" width="9.81" height="9.8"/><rect class="cls-1" x="98.04" y="333.33" width="9.8" height="9.81"/><rect class="cls-1" x="98.04" y="323.53" width="9.8" height="9.8"/><rect class="cls-1" x="98.04" y="313.73" width="9.8" height="9.8"/><rect class="cls-1" x="98.04" y="303.92" width="9.8" height="9.81"/><rect class="cls-1" x="98.04" y="294.12" width="9.8" height="9.8"/><rect class="cls-6" x="98.04" y="284.31" width="9.8" height="9.81"/><rect class="cls-3" x="88.24" y="362.75" width="9.8" height="9.8"/><rect class="cls-3" x="88.24" y="352.94" width="9.8" height="9.81"/><rect class="cls-3" x="88.24" y="343.14" width="9.8" height="9.8"/><rect class="cls-1" x="88.24" y="333.33" width="9.8" height="9.81"/><rect class="cls-1" x="88.24" y="323.53" width="9.8" height="9.8"/><rect class="cls-1" x="88.24" y="313.73" width="9.8" height="9.8"/><rect class="cls-1" x="88.24" y="303.92" width="9.8" height="9.81"/><rect class="cls-1" x="88.24" y="294.12" width="9.8" height="9.8"/><rect class="cls-1" x="88.24" y="284.31" width="9.8" height="9.81"/><rect class="cls-1" x="88.24" y="274.51" width="9.8" height="9.8"/><rect class="cls-2" x="78.43" y="362.75" width="9.81" height="9.8"/><rect class="cls-1" x="78.43" y="333.33" width="9.81" height="9.81"/><rect class="cls-1" x="78.43" y="323.53" width="9.81" height="9.8"/><rect class="cls-1" x="78.43" y="313.73" width="9.81" height="9.8"/><rect class="cls-1" x="78.43" y="303.92" width="9.81" height="9.81"/><rect class="cls-1" x="78.43" y="294.12" width="9.81" height="9.8"/><rect class="cls-1" x="78.43" y="284.31" width="9.81" height="9.81"/><rect class="cls-1" x="68.63" y="382.35" width="9.8" height="9.81"/><rect class="cls-1" x="68.63" y="372.55" width="9.8" height="9.8"/><rect class="cls-1" x="68.63" y="362.75" width="9.8" height="9.8"/><rect class="cls-2" x="68.63" y="352.94" width="9.8" height="9.81"/><rect class="cls-1" x="68.63" y="323.53" width="9.8" height="9.8"/><rect class="cls-1" x="68.63" y="313.73" width="9.8" height="9.8"/><rect class="cls-1" x="68.63" y="303.92" width="9.8" height="9.81"/><rect class="cls-1" x="68.63" y="294.12" width="9.8" height="9.8"/><rect class="cls-1" x="58.82" y="382.35" width="9.81" height="9.81"/><rect class="cls-1" x="58.82" y="372.55" width="9.81" height="9.8"/><rect class="cls-1" x="58.82" y="362.75" width="9.81" height="9.8"/><rect class="cls-1" x="58.82" y="352.94" width="9.81" height="9.81"/><rect class="cls-2" x="58.82" y="343.14" width="9.81" height="9.8"/><rect class="cls-1" x="58.82" y="313.73" width="9.81" height="9.8"/><rect class="cls-1" x="58.82" y="303.92" width="9.81" height="9.81"/><rect class="cls-3" x="49.02" y="401.96" width="9.8" height="9.8"/><rect class="cls-3" x="49.02" y="392.16" width="9.8" height="9.8"/><rect class="cls-1" x="49.02" y="382.35" width="9.8" height="9.81"/><rect class="cls-1" x="49.02" y="372.55" width="9.8" height="9.8"/><rect class="cls-1" x="49.02" y="362.75" width="9.8" height="9.8"/><rect class="cls-1" x="49.02" y="352.94" width="9.8" height="9.81"/><rect class="cls-2" x="49.02" y="343.14" width="9.8" height="9.8"/><rect class="cls-2" x="49.02" y="333.33" width="9.8" height="9.81"/><rect class="cls-3" x="39.22" y="401.96" width="9.8" height="9.8"/><rect class="cls-3" x="39.22" y="392.16" width="9.8" height="9.8"/><rect class="cls-1" x="39.22" y="382.35" width="9.8" height="9.81"/><rect class="cls-1" x="39.22" y="372.55" width="9.8" height="9.8"/><rect class="cls-1" x="39.22" y="362.75" width="9.8" height="9.8"/><rect class="cls-1" x="39.22" y="352.94" width="9.8" height="9.81"/><rect class="cls-1" x="39.22" y="343.14" width="9.8" height="9.8"/><rect class="cls-1" x="39.22" y="333.33" width="9.8" height="9.81"/><rect class="cls-1" x="29.41" y="382.35" width="9.81" height="9.81"/><rect class="cls-1" x="29.41" y="372.55" width="9.81" height="9.8"/><rect class="cls-1" x="29.41" y="362.75" width="9.81" height="9.8"/><rect class="cls-1" x="29.41" y="352.94" width="9.81" height="9.81"/><rect class="cls-1" x="19.61" y="382.35" width="9.8" height="9.81"/><rect class="cls-1" x="19.61" y="372.55" width="9.8" height="9.8"/><rect class="cls-1" x="19.61" y="362.75" width="9.8" height="9.8"/><rect class="cls-1" x="19.61" y="352.94" width="9.8" height="9.81"/><rect class="cls-1" x="9.8" y="362.75" width="9.81" height="9.8"/></svg>