<svg id="Layer_1" data-name="Layer 1" xmlns="http://www.w3.org/2000/svg" viewBox="0 0 500 500"><defs><style>.cls-1{fill:#f2f2f3;}.cls-2{fill:#e1f0f2;}.cls-3{fill:#b4d9e2;}.cls-4{fill:#9fb7ba;}.cls-5{fill:#f4f4f5;}</style></defs><rect class="cls-1" x="317.98" y="309.99" width="8" height="7.99"/><rect class="cls-1" x="317.98" y="301.99" width="8" height="7.99"/><rect class="cls-1" x="317.98" y="293.99" width="8" height="8"/><rect class="cls-1" x="317.98" y="285.99" width="8" height="7.99"/><rect class="cls-2" x="317.98" y="277.99" width="8" height="8"/><rect class="cls-2" x="317.98" y="270" width="8" height="7.99"/><rect class="cls-2" x="317.98" y="262" width="8" height="7.99"/><rect class="cls-2" x="317.98" y="254" width="8" height="8"/><rect class="cls-1" x="309.99" y="317.98" width="7.99" height="8"/><rect class="cls-1" x="309.99" y="309.99" width="7.99" height="7.99"/><rect class="cls-1" x="309.99" y="301.99" width="7.99" height="7.99"/><rect class="cls-1" x="309.99" y="293.99" width="7.99" height="8"/><rect class="cls-1" x="309.99" y="285.99" width="7.99" height="7.99"/><rect class="cls-2" x="309.99" y="277.99" width="7.99" height="8"/><rect class="cls-2" x="309.99" y="270" width="7.99" height="7.99"/><rect class="cls-2" x="309.99" y="262" width="7.99" height="7.99"/><rect class="cls-2" x="309.99" y="254" width="7.99" height="8"/><rect class="cls-2" x="309.99" y="246" width="7.99" height="7.99"/><rect class="cls-3" x="309.99" y="238" width="7.99" height="8"/><rect class="cls-1" x="301.99" y="325.98" width="7.99" height="7.99"/><rect class="cls-1" x="301.99" y="317.98" width="7.99" height="8"/><rect class="cls-1" x="301.99" y="309.99" width="7.99" height="7.99"/><rect class="cls-1" x="301.99" y="301.99" width="7.99" height="7.99"/><rect class="cls-1" x="301.99" y="293.99" width="7.99" height="8"/><rect class="cls-1" x="301.99" y="285.99" width="7.99" height="7.99"/><rect class="cls-2" x="301.99" y="277.99" width="7.99" height="8"/><rect class="cls-2" x="301.99" y="270" width="7.99" height="7.99"/><rect class="cls-2" x="301.99" y="262" width="7.99" height="7.99"/><rect class="cls-2" x="301.99" y="254" width="7.99" height="8"/><rect class="cls-2" x="301.99" y="246" width="7.99" height="7.99"/><rect class="cls-3" x="301.99" y="238" width="7.99" height="8"/><rect class="cls-3" x="301.99" y="230" width="7.99" height="7.99"/><rect class="cls-1" x="293.99" y="333.98" width="8" height="8"/><rect class="cls-1" x="293.99" y="325.98" width="8" height="7.99"/><rect class="cls-1" x="293.99" y="317.98" width="8" height="8"/><rect class="cls-1" x="293.99" y="309.99" width="8" height="7.99"/><rect class="cls-1" x="293.99" y="301.99" width="8" height="7.99"/><rect class="cls-1" x="293.99" y="293.99" width="8" height="8"/><rect class="cls-2" x="293.99" y="285.99" width="8" height="7.99"/><rect class="cls-2" x="293.99" y="277.99" width="8" height="8"/><rect class="cls-2" x="293.99" y="270" width="8" height="7.99"/><rect class="cls-2" x="293.99" y="262" width="8" height="7.99"/><rect class="cls-2" x="293.99" y="254" width="8" height="8"/><rect class="cls-2" x="293.99" y="246" width="8" height="7.99"/><rect class="cls-3" x="293.99" y="238" width="8" height="8"/><rect class="cls-3" x="293.99" y="230" width="8" height="7.99"/><rect class="cls-3" x="293.99" y="222.01" width="8" height="7.99"/><rect class="cls-3" x="293.99" y="214.01" width="8" height="8"/><rect class="cls-1" x="285.99" y="341.98" width="7.99" height="7.99"/><rect class="cls-1" x="285.99" y="333.98" width="7.99" height="8"/><rect class="cls-1" x="285.99" y="325.98" width="7.99" height="7.99"/><rect class="cls-1" x="285.99" y="317.98" width="7.99" height="8"/><rect class="cls-1" x="285.99" y="309.99" width="7.99" height="7.99"/><rect class="cls-1" x="285.99" y="301.99" width="7.99" height="7.99"/><rect class="cls-2" x="285.99" y="293.99" width="7.99" height="8"/><rect class="cls-2" x="285.99" y="285.99" width="7.99" height="7.99"/><rect class="cls-2" x="285.99" y="277.99" width="7.99" height="8"/><rect class="cls-2" x="285.99" y="270" width="7.99" height="7.99"/><rect class="cls-2" x="285.99" y="262" width="7.99" height="7.99"/><rect class="cls-2" x="285.99" y="254" width="7.99" height="8"/><rect class="cls-2" x="285.99" y="246" width="7.99" height="7.99"/><rect class="cls-3" x="285.99" y="238" width="7.99" height="8"/><rect class="cls-3" x="285.99" y="230" width="7.99" height="7.99"/><rect class="cls-3" x="285.99" y="222.01" width="7.99" height="7.99"/><rect class="cls-3" x="285.99" y="214.01" width="7.99" height="8"/><rect class="cls-3" x="285.99" y="206.01" width="7.99" height="7.99"/><rect class="cls-3" x="285.99" y="198.01" width="7.99" height="8"/><rect class="cls-1" x="277.99" y="341.98" width="8" height="7.99"/><rect class="cls-1" x="277.99" y="333.98" width="8" height="8"/><rect class="cls-1" x="277.99" y="325.98" width="8" height="7.99"/><rect class="cls-1" x="277.99" y="317.98" width="8" height="8"/><rect class="cls-1" x="277.99" y="309.99" width="8" height="7.99"/><rect class="cls-1" x="277.99" y="301.99" width="8" height="7.99"/><rect class="cls-2" x="277.99" y="293.99" width="8" height="8"/><rect class="cls-2" x="277.99" y="285.99" width="8" height="7.99"/><rect class="cls-2" x="277.99" y="277.99" width="8" height="8"/><rect class="cls-2" x="277.99" y="270" width="8" height="7.99"/><rect class="cls-2" x="277.99" y="262" width="8" height="7.99"/><rect class="cls-2" x="277.99" y="254" width="8" height="8"/><rect class="cls-2" x="277.99" y="246" width="8" height="7.99"/><rect class="cls-3" x="277.99" y="238" width="8" height="8"/><rect class="cls-3" x="277.99" y="230" width="8" height="7.99"/><rect class="cls-3" x="277.99" y="222.01" width="8" height="7.99"/><rect class="cls-3" x="277.99" y="214.01" width="8" height="8"/><rect class="cls-3" x="277.99" y="206.01" width="8" height="7.99"/><rect class="cls-3" x="277.99" y="198.01" width="8" height="8"/><rect class="cls-3" x="277.99" y="190.01" width="8" height="7.99"/><rect class="cls-1" x="270" y="349.98" width="7.99" height="7.99"/><rect class="cls-1" x="270" y="341.98" width="7.99" height="7.99"/><rect class="cls-1" x="270" y="333.98" width="7.99" height="8"/><rect class="cls-1" x="270" y="325.98" width="7.99" height="7.99"/><rect class="cls-1" x="270" y="317.98" width="7.99" height="8"/><rect class="cls-1" x="270" y="309.99" width="7.99" height="7.99"/><rect class="cls-2" x="270" y="301.99" width="7.99" height="7.99"/><rect class="cls-2" x="270" y="293.99" width="7.99" height="8"/><rect class="cls-2" x="270" y="285.99" width="7.99" height="7.99"/><rect class="cls-2" x="270" y="277.99" width="7.99" height="8"/><rect class="cls-2" x="270" y="270" width="7.99" height="7.99"/><rect class="cls-2" x="270" y="262" width="7.99" height="7.99"/><rect class="cls-2" x="270" y="254" width="7.99" height="8"/><rect class="cls-3" x="270" y="246" width="7.99" height="7.99"/><rect class="cls-3" x="270" y="238" width="7.99" height="8"/><rect class="cls-3" x="270" y="230" width="7.99" height="7.99"/><rect class="cls-3" x="270" y="222.01" width="7.99" height="7.99"/><rect class="cls-3" x="270" y="214.01" width="7.99" height="8"/><rect class="cls-3" x="270" y="206.01" width="7.99" height="7.99"/><rect class="cls-3" x="270" y="198.01" width="7.99" height="8"/><rect class="cls-3" x="270" y="190.01" width="7.99" height="7.99"/><rect class="cls-3" x="270" y="182.02" width="7.99" height="7.99"/><rect class="cls-3" x="270" y="174.02" width="7.99" height="8"/><rect class="cls-1" x="262" y="349.98" width="7.99" height="7.99"/><rect class="cls-1" x="262" y="341.98" width="7.99" height="7.99"/><rect class="cls-1" x="262" y="333.98" width="7.99" height="8"/><rect class="cls-1" x="262" y="325.98" width="7.99" height="7.99"/><rect class="cls-1" x="262" y="317.98" width="7.99" height="8"/><rect class="cls-2" x="262" y="309.99" width="7.99" height="7.99"/><rect class="cls-2" x="262" y="301.99" width="7.99" height="7.99"/><rect class="cls-2" x="262" y="293.99" width="7.99" height="8"/><rect class="cls-2" x="262" y="285.99" width="7.99" height="7.99"/><rect class="cls-2" x="262" y="277.99" width="7.99" height="8"/><rect class="cls-2" x="262" y="270" width="7.99" height="7.99"/><rect class="cls-2" x="262" y="262" width="7.99" height="7.99"/><rect class="cls-3" x="262" y="254" width="7.99" height="8"/><rect class="cls-3" x="262" y="246" width="7.99" height="7.99"/><rect class="cls-3" x="262" y="238" width="7.99" height="8"/><rect class="cls-3" x="262" y="230" width="7.99" height="7.99"/><rect class="cls-3" x="262" y="222.01" width="7.99" height="7.99"/><rect class="cls-3" x="262" y="214.01" width="7.99" height="8"/><rect class="cls-3" x="262" y="206.01" width="7.99" height="7.99"/><rect class="cls-3" x="262" y="198.01" width="7.99" height="8"/><rect class="cls-3" x="262" y="190.01" width="7.99" height="7.99"/><rect class="cls-3" x="262" y="182.02" width="7.99" height="7.99"/><rect class="cls-3" x="262" y="174.02" width="7.99" height="8"/><rect class="cls-3" x="262" y="166.02" width="7.99" height="7.99"/><rect class="cls-3" x="262" y="158.02" width="7.99" height="8"/><rect class="cls-1" x="254" y="349.98" width="8" height="7.99"/><rect class="cls-1" x="254" y="341.98" width="8" height="7.99"/><rect class="cls-1" x="254" y="333.98" width="8" height="8"/><rect class="cls-1" x="254" y="325.98" width="8" height="7.99"/><rect class="cls-2" x="254" y="317.98" width="8" height="8"/><rect class="cls-2" x="254" y="309.99" width="8" height="7.99"/><rect class="cls-2" x="254" y="301.99" width="8" height="7.99"/><rect class="cls-2" x="254" y="293.99" width="8" height="8"/><rect class="cls-2" x="254" y="285.99" width="8" height="7.99"/><rect class="cls-2" x="254" y="277.99" width="8" height="8"/><rect class="cls-2" x="254" y="270" width="8" height="7.99"/><rect class="cls-2" x="254" y="262" width="8" height="7.99"/><rect class="cls-3" x="254" y="254" width="8" height="8"/><rect class="cls-3" x="254" y="246" width="8" height="7.99"/><rect class="cls-3" x="254" y="238" width="8" height="8"/><rect class="cls-3" x="254" y="230" width="8" height="7.99"/><rect class="cls-3" x="254" y="222.01" width="8" height="7.99"/><rect class="cls-3" x="254" y="214.01" width="8" height="8"/><rect class="cls-3" x="254" y="206.01" width="8" height="7.99"/><rect class="cls-3" x="254" y="198.01" width="8" height="8"/><rect class="cls-3" x="254" y="190.01" width="8" height="7.99"/><rect class="cls-3" x="254" y="182.02" width="8" height="7.99"/><rect class="cls-3" x="254" y="174.02" width="8" height="8"/><rect class="cls-3" x="254" y="166.02" width="8" height="7.99"/><rect class="cls-4" x="254" y="158.02" width="8" height="8"/><rect class="cls-4" x="254" y="150.02" width="8" height="7.99"/><rect class="cls-1" x="246" y="349.98" width="7.99" height="7.99"/><rect class="cls-1" x="246" y="341.98" width="7.99" height="7.99"/><rect class="cls-1" x="246" y="333.98" width="7.99" height="8"/><rect class="cls-2" x="246" y="325.98" width="7.99" height="7.99"/><rect class="cls-2" x="246" y="317.98" width="7.99" height="8"/><rect class="cls-2" x="246" y="309.99" width="7.99" height="7.99"/><rect class="cls-2" x="246" y="301.99" width="7.99" height="7.99"/><rect class="cls-2" x="246" y="293.99" width="7.99" height="8"/><rect class="cls-2" x="246" y="285.99" width="7.99" height="7.99"/><rect class="cls-2" x="246" y="277.99" width="7.99" height="8"/><rect class="cls-2" x="246" y="270" width="7.99" height="7.99"/><rect class="cls-3" x="246" y="262" width="7.99" height="7.99"/><rect class="cls-3" x="246" y="254" width="7.99" height="8"/><rect class="cls-3" x="246" y="246" width="7.99" height="7.99"/><rect class="cls-3" x="246" y="238" width="7.99" height="8"/><rect class="cls-3" x="246" y="230" width="7.99" height="7.99"/><rect class="cls-3" x="246" y="222.01" width="7.99" height="7.99"/><rect class="cls-3" x="246" y="214.01" width="7.99" height="8"/><rect class="cls-3" x="246" y="206.01" width="7.99" height="7.99"/><rect class="cls-3" x="246" y="198.01" width="7.99" height="8"/><rect class="cls-3" x="246" y="190.01" width="7.99" height="7.99"/><rect class="cls-3" x="246" y="182.02" width="7.99" height="7.99"/><rect class="cls-3" x="246" y="174.02" width="7.99" height="8"/><rect class="cls-4" x="246" y="166.02" width="7.99" height="7.99"/><rect class="cls-4" x="246" y="158.02" width="7.99" height="8"/><rect class="cls-4" x="246" y="150.02" width="7.99" height="7.99"/><rect class="cls-4" x="246" y="142.03" width="7.99" height="7.99"/><rect class="cls-1" x="238" y="349.98" width="8" height="7.99"/><rect class="cls-1" x="238" y="341.98" width="8" height="7.99"/><rect class="cls-2" x="238" y="333.98" width="8" height="8"/><rect class="cls-2" x="238" y="325.98" width="8" height="7.99"/><rect class="cls-2" x="238" y="317.98" width="8" height="8"/><rect class="cls-2" x="238" y="309.99" width="8" height="7.99"/><rect class="cls-2" x="238" y="301.99" width="8" height="7.99"/><rect class="cls-2" x="238" y="293.99" width="8" height="8"/><rect class="cls-2" x="238" y="285.99" width="8" height="7.99"/><rect class="cls-2" x="238" y="277.99" width="8" height="8"/><rect class="cls-3" x="238" y="270" width="8" height="7.99"/><rect class="cls-3" x="238" y="262" width="8" height="7.99"/><rect class="cls-3" x="238" y="254" width="8" height="8"/><rect class="cls-3" x="238" y="246" width="8" height="7.99"/><rect class="cls-3" x="238" y="238" width="8" height="8"/><rect class="cls-3" x="238" y="230" width="8" height="7.99"/><rect class="cls-3" x="238" y="222.01" width="8" height="7.99"/><rect class="cls-3" x="238" y="214.01" width="8" height="8"/><rect class="cls-3" x="238" y="206.01" width="8" height="7.99"/><rect class="cls-3" x="238" y="198.01" width="8" height="8"/><rect class="cls-3" x="238" y="190.01" width="8" height="7.99"/><rect class="cls-3" x="238" y="182.02" width="8" height="7.99"/><rect class="cls-3" x="238" y="174.02" width="8" height="8"/><rect class="cls-4" x="238" y="166.02" width="8" height="7.99"/><rect class="cls-4" x="238" y="158.02" width="8" height="8"/><rect class="cls-4" x="238" y="150.02" width="8" height="7.99"/><rect class="cls-1" x="230" y="349.98" width="7.99" height="7.99"/><rect class="cls-2" x="230" y="341.98" width="7.99" height="7.99"/><rect class="cls-2" x="230" y="333.98" width="7.99" height="8"/><rect class="cls-2" x="230" y="325.98" width="7.99" height="7.99"/><rect class="cls-2" x="230" y="317.98" width="7.99" height="8"/><rect class="cls-2" x="230" y="309.99" width="7.99" height="7.99"/><rect class="cls-2" x="230" y="301.99" width="7.99" height="7.99"/><rect class="cls-2" x="230" y="293.99" width="7.99" height="8"/><rect class="cls-2" x="230" y="285.99" width="7.99" height="7.99"/><rect class="cls-3" x="230" y="277.99" width="7.99" height="8"/><rect class="cls-3" x="230" y="270" width="7.99" height="7.99"/><rect class="cls-3" x="230" y="262" width="7.99" height="7.99"/><rect class="cls-3" x="230" y="254" width="7.99" height="8"/><rect class="cls-3" x="230" y="246" width="7.99" height="7.99"/><rect class="cls-3" x="230" y="238" width="7.99" height="8"/><rect class="cls-3" x="230" y="230" width="7.99" height="7.99"/><rect class="cls-3" x="230" y="222.01" width="7.99" height="7.99"/><rect class="cls-3" x="230" y="214.01" width="7.99" height="8"/><rect class="cls-3" x="230" y="206.01" width="7.99" height="7.99"/><rect class="cls-3" x="230" y="198.01" width="7.99" height="8"/><rect class="cls-3" x="230" y="190.01" width="7.99" height="7.99"/><rect class="cls-4" x="230" y="182.02" width="7.99" height="7.99"/><rect class="cls-4" x="230" y="174.02" width="7.99" height="8"/><rect class="cls-4" x="230" y="166.02" width="7.99" height="7.99"/><rect class="cls-4" x="230" y="158.02" width="7.99" height="8"/><rect class="cls-2" x="222.01" y="349.98" width="7.99" height="7.99"/><rect class="cls-2" x="222.01" y="341.98" width="7.99" height="7.99"/><rect class="cls-2" x="222.01" y="333.98" width="7.99" height="8"/><rect class="cls-2" x="222.01" y="325.98" width="7.99" height="7.99"/><rect class="cls-2" x="222.01" y="317.98" width="7.99" height="8"/><rect class="cls-2" x="222.01" y="309.99" width="7.99" height="7.99"/><rect class="cls-2" x="222.01" y="301.99" width="7.99" height="7.99"/><rect class="cls-2" x="222.01" y="293.99" width="7.99" height="8"/><rect class="cls-2" x="222.01" y="285.99" width="7.99" height="7.99"/><rect class="cls-3" x="222.01" y="277.99" width="7.99" height="8"/><rect class="cls-3" x="222.01" y="270" width="7.99" height="7.99"/><rect class="cls-3" x="222.01" y="262" width="7.99" height="7.99"/><rect class="cls-3" x="222.01" y="254" width="7.99" height="8"/><rect class="cls-3" x="222.01" y="246" width="7.99" height="7.99"/><rect class="cls-3" x="222.01" y="238" width="7.99" height="8"/><rect class="cls-3" x="222.01" y="230" width="7.99" height="7.99"/><rect class="cls-3" x="222.01" y="222.01" width="7.99" height="7.99"/><rect class="cls-3" x="222.01" y="214.01" width="7.99" height="8"/><rect class="cls-3" x="222.01" y="206.01" width="7.99" height="7.99"/><rect class="cls-3" x="222.01" y="198.01" width="7.99" height="8"/><rect class="cls-4" x="222.01" y="190.01" width="7.99" height="7.99"/><rect class="cls-4" x="222.01" y="182.02" width="7.99" height="7.99"/><rect class="cls-4" x="222.01" y="174.02" width="7.99" height="8"/><rect class="cls-2" x="214.01" y="349.98" width="8" height="7.99"/><rect class="cls-2" x="214.01" y="341.98" width="8" height="7.99"/><rect class="cls-2" x="214.01" y="333.98" width="8" height="8"/><rect class="cls-2" x="214.01" y="325.98" width="8" height="7.99"/><rect class="cls-2" x="214.01" y="317.98" width="8" height="8"/><rect class="cls-2" x="214.01" y="309.99" width="8" height="7.99"/><rect class="cls-2" x="214.01" y="301.99" width="8" height="7.99"/><rect class="cls-2" x="214.01" y="293.99" width="8" height="8"/><rect class="cls-3" x="214.01" y="285.99" width="8" height="7.99"/><rect class="cls-3" x="214.01" y="277.99" width="8" height="8"/><rect class="cls-3" x="214.01" y="270" width="8" height="7.99"/><rect class="cls-3" x="214.01" y="262" width="8" height="7.99"/><rect class="cls-3" x="214.01" y="254" width="8" height="8"/><rect class="cls-3" x="214.01" y="246" width="8" height="7.99"/><rect class="cls-3" x="214.01" y="238" width="8" height="8"/><rect class="cls-3" x="214.01" y="230" width="8" height="7.99"/><rect class="cls-3" x="214.01" y="222.01" width="8" height="7.99"/><rect class="cls-3" x="214.01" y="214.01" width="8" height="8"/><rect class="cls-3" x="214.01" y="206.01" width="8" height="7.99"/><rect class="cls-3" x="214.01" y="198.01" width="8" height="8"/><rect class="cls-4" x="214.01" y="190.01" width="8" height="7.99"/><rect class="cls-2" x="206.01" y="341.98" width="7.99" height="7.99"/><rect class="cls-2" x="206.01" y="333.98" width="7.99" height="8"/><rect class="cls-2" x="206.01" y="325.98" width="7.99" height="7.99"/><rect class="cls-2" x="206.01" y="317.98" width="7.99" height="8"/><rect class="cls-2" x="206.01" y="309.99" width="7.99" height="7.99"/><rect class="cls-2" x="206.01" y="301.99" width="7.99" height="7.99"/><rect class="cls-3" x="206.01" y="293.99" width="7.99" height="8"/><rect class="cls-3" x="206.01" y="285.99" width="7.99" height="7.99"/><rect class="cls-3" x="206.01" y="277.99" width="7.99" height="8"/><rect class="cls-3" x="206.01" y="270" width="7.99" height="7.99"/><rect class="cls-3" x="206.01" y="262" width="7.99" height="7.99"/><rect class="cls-3" x="206.01" y="254" width="7.99" height="8"/><rect class="cls-3" x="206.01" y="246" width="7.99" height="7.99"/><rect class="cls-3" x="206.01" y="238" width="7.99" height="8"/><rect class="cls-3" x="206.01" y="230" width="7.99" height="7.99"/><rect class="cls-5" x="206.01" y="222.01" width="7.99" height="7.99"/><rect class="cls-3" x="206.01" y="214.01" width="7.99" height="8"/><rect class="cls-3" x="206.01" y="206.01" width="7.99" height="7.99"/><rect class="cls-3" x="206.01" y="198.01" width="7.99" height="8"/><rect class="cls-2" x="198.01" y="333.98" width="8" height="8"/><rect class="cls-2" x="198.01" y="325.98" width="8" height="7.99"/><rect class="cls-2" x="198.01" y="317.98" width="8" height="8"/><rect class="cls-2" x="198.01" y="309.99" width="8" height="7.99"/><rect class="cls-3" x="198.01" y="301.99" width="8" height="7.99"/><rect class="cls-3" x="198.01" y="293.99" width="8" height="8"/><rect class="cls-3" x="198.01" y="285.99" width="8" height="7.99"/><rect class="cls-3" x="198.01" y="277.99" width="8" height="8"/><rect class="cls-3" x="198.01" y="270" width="8" height="7.99"/><rect class="cls-3" x="198.01" y="262" width="8" height="7.99"/><rect class="cls-3" x="198.01" y="254" width="8" height="8"/><rect class="cls-3" x="198.01" y="246" width="8" height="7.99"/><rect class="cls-3" x="198.01" y="238" width="8" height="8"/><rect class="cls-5" x="198.01" y="230" width="8" height="7.99"/><rect class="cls-3" x="198.01" y="222.01" width="8" height="7.99"/><rect class="cls-3" x="198.01" y="214.01" width="8" height="8"/><rect class="cls-2" x="190.01" y="325.98" width="7.99" height="7.99"/><rect class="cls-2" x="190.01" y="317.98" width="7.99" height="8"/><rect class="cls-3" x="190.01" y="309.99" width="7.99" height="7.99"/><rect class="cls-3" x="190.01" y="301.99" width="7.99" height="7.99"/><rect class="cls-3" x="190.01" y="293.99" width="7.99" height="8"/><rect class="cls-3" x="190.01" y="285.99" width="7.99" height="7.99"/><rect class="cls-3" x="190.01" y="277.99" width="7.99" height="8"/><rect class="cls-3" x="190.01" y="270" width="7.99" height="7.99"/><rect class="cls-3" x="190.01" y="262" width="7.99" height="7.99"/><rect class="cls-3" x="190.01" y="254" width="7.99" height="8"/><rect class="cls-3" x="190.01" y="246" width="7.99" height="7.99"/><rect class="cls-5" x="190.01" y="238" width="7.99" height="8"/><rect class="cls-3" x="190.01" y="230" width="7.99" height="7.99"/><rect class="cls-2" x="182.02" y="317.98" width="7.99" height="8"/><rect class="cls-3" x="182.02" y="309.99" width="7.99" height="7.99"/><rect class="cls-3" x="182.02" y="301.99" width="7.99" height="7.99"/><rect class="cls-3" x="182.02" y="293.99" width="7.99" height="8"/><rect class="cls-3" x="182.02" y="285.99" width="7.99" height="7.99"/><rect class="cls-3" x="182.02" y="277.99" width="7.99" height="8"/><rect class="cls-3" x="182.02" y="270" width="7.99" height="7.99"/><rect class="cls-3" x="182.02" y="262" width="7.99" height="7.99"/><rect class="cls-3" x="182.02" y="254" width="7.99" height="8"/><rect class="cls-3" x="182.02" y="246" width="7.99" height="7.99"/><rect class="cls-3" x="182.02" y="238" width="7.99" height="8"/><rect class="cls-3" x="174.02" y="301.99" width="8" height="7.99"/><rect class="cls-3" x="174.02" y="293.99" width="8" height="8"/><rect class="cls-3" x="174.02" y="285.99" width="8" height="7.99"/><rect class="cls-3" x="174.02" y="277.99" width="8" height="8"/><rect class="cls-3" x="174.02" y="270" width="8" height="7.99"/><rect class="cls-3" x="174.02" y="262" width="8" height="7.99"/><rect class="cls-3" x="174.02" y="254" width="8" height="8"/></svg>